<svg width="40" height="40" viewBox="0 0 40 40" fill="none" xmlns="http://www.w3.org/2000/svg">
<path d="M14.7768 3.64541C14.9163 4.37073 14.8649 5.07512 14.6667 5.68885C14.3951 6.5397 14.2336 7.41845 14.3217 8.30418L14.6153 11.2264L11.532 11.7494L10.7391 8.91791C10.4969 8.06008 10.027 7.28594 9.45441 6.58155C9.0433 6.06546 8.7423 5.42383 8.60282 4.70549C8.22107 2.68297 9.2929 0.813882 10.9887 0.520966C12.6919 0.228049 14.3804 1.63684 14.7621 3.65238L14.7768 3.64541Z" fill="#F4958C"/>
<path d="M17.7208 8.33929L14.6155 7.94873L14.8944 2.7111C14.8911 2.43397 14.9506 2.15939 15.0688 1.90599C15.1869 1.65259 15.3611 1.4263 15.5794 1.24245C15.7977 1.0586 16.0551 0.921487 16.3341 0.840416C16.613 0.759345 16.9071 0.736208 17.1963 0.772573C17.4855 0.808938 17.7632 0.903955 18.0103 1.05118C18.2575 1.19841 18.4685 1.39441 18.6289 1.62588C18.7894 1.85736 18.8955 2.1189 18.9403 2.39278C18.985 2.66666 18.9672 2.94647 18.8881 3.21324L17.7135 8.33929H17.7208ZM25.1282 14.2325L22.5734 12.5099L25.3925 7.99755C25.9577 6.95142 27.3673 6.62363 28.3804 7.3071C29.3935 7.99058 29.5329 9.36449 28.6814 10.2153L25.1282 14.2325Z" fill="#F4958C"/>
<path d="M20.5912 9.7611L17.5959 8.89629L18.7559 3.77025C18.8004 3.49597 18.9065 3.234 19.0669 3.00206C19.2274 2.77013 19.4384 2.57366 19.6857 2.42596C19.933 2.27826 20.2109 2.18279 20.5004 2.146C20.79 2.10921 21.0845 2.13197 21.364 2.21273C21.6435 2.2935 21.9014 2.43038 22.1204 2.61411C22.3393 2.79784 22.5141 3.02413 22.633 3.27765C22.7518 3.53116 22.812 3.80599 22.8093 4.0835C22.8066 4.36101 22.7411 4.63473 22.6174 4.88613L20.5912 9.7611Z" fill="#F4958C"/>
<path d="M23.1596 11.6791L20.3479 10.3749L22.3521 5.49294C22.4418 5.22897 22.5902 4.98642 22.7872 4.78171C22.9843 4.577 23.2253 4.41492 23.4941 4.30645C23.7628 4.19798 24.0529 4.14566 24.3448 4.15303C24.6367 4.1604 24.9235 4.22729 25.1858 4.34917C25.4484 4.47033 25.6805 4.64379 25.8662 4.85776C26.052 5.07172 26.1871 5.32118 26.2623 5.58916C26.3375 5.85714 26.3511 6.13737 26.3022 6.41079C26.2532 6.68422 26.1429 6.94442 25.9787 7.17372L23.1596 11.686V11.6791Z" fill="#F4958C"/>
<path d="M25.8697 21.918L26.5157 21.8691C26.1119 22.9711 25.7963 24.0381 25.5614 25.0564L24.8272 24.9517L23.8288 24.8123C23.2562 24.7355 22.801 24.3729 22.6248 23.8917C22.5514 23.6894 22.5221 23.4662 22.5588 23.2431C22.5814 23.0611 22.6419 22.8853 22.7368 22.7258C22.8316 22.5663 22.959 22.4263 23.1113 22.3141C23.2637 22.2018 23.438 22.1194 23.6242 22.0717C23.8104 22.0241 24.0048 22.0121 24.1959 22.0365L25.7155 21.9319L25.8697 21.918Z" fill="#FFAEA1"/>
<path d="M9.9163 13.8982C8.98396 9.51139 13.1611 5.52912 18.0504 6.14285C18.0871 6.14285 18.1165 6.14983 18.1532 6.1568C20.3014 6.44074 22.364 7.14613 24.2098 8.22814C26.4635 9.53929 27.7409 11.8408 27.5721 14.2608C27.5647 14.3933 27.55 14.5258 27.5427 14.6584C27.249 18.0478 26.2653 20.44 25.8322 21.6116C22.602 30.3155 25.3183 36.4458 21.5742 38.7403C20.7006 39.2703 19.5848 39.5702 18.1459 39.5423C8.75638 39.3749 14.3871 28.1046 13.2786 22.9298C12.5812 19.6589 10.6137 17.2179 9.90896 13.9121L9.9163 13.8982Z" fill="#FFAEA1"/>
<path d="M18.0062 30.887C17.7639 31.6193 17.0885 32.1633 16.2516 32.2889L12.625 32.8817C12.6837 31.3125 12.9407 29.6247 13.1462 28.0137L14.0565 28.0555L15.6716 28.1392C15.7597 28.1253 15.8405 28.1253 15.9286 28.1253C17.0077 28.1253 17.9401 28.8924 18.0942 29.9107C18.153 30.2175 18.131 30.5662 18.0062 30.887Z" fill="#F4958C"/>
<path d="M17.3169 30.6501C17.1554 31.1383 16.7149 31.5149 16.1423 31.5986L13.3379 32.0589L12.6625 32.1705L11.9137 32.296L9.11669 32.7493L6.5399 39.6468L-1.38867 39.5283L3.3024 31.6683L4.08792 27.8744C4.31525 26.7485 4.89326 25.7135 5.74704 24.9034L7.66311 23.0691C8.57117 22.1948 9.74895 21.6183 11.0254 21.4232L12.0459 21.2698L12.7726 21.1582C12.9782 21.7231 13.1544 22.302 13.2865 22.9157C13.3893 23.3969 13.4334 23.9339 13.4407 24.5128L12.8167 24.7011C12.8167 24.7011 12.7433 24.722 12.7066 24.7429C12.1493 24.9202 11.6434 25.2187 11.2292 25.6147C10.8149 26.0106 10.5038 26.4931 10.3207 27.0235L10.0931 27.693C9.93891 28.1324 10.2619 28.5788 10.7538 28.6067L12.3175 28.6764L13.0589 28.7113L14.028 28.7531L15.7018 28.8368C16.502 28.7182 17.2508 29.2413 17.3683 30.0085C17.4123 30.2316 17.3903 30.4548 17.3169 30.6501Z" fill="#FFAEA1"/>
<path d="M20.1145 25.3278C19.8575 25.3278 19.6153 25.2023 19.4758 24.9791C19.1087 24.3723 18.9399 23.7028 18.9693 23.0333C19.006 21.9244 19.5786 20.8643 20.5917 20.0693C20.9074 19.8252 21.3699 19.867 21.6268 20.1599C21.8837 20.4598 21.8397 20.8992 21.5314 21.1433C20.8486 21.6803 20.4595 22.3707 20.4375 23.0821C20.4155 23.4936 20.5256 23.9051 20.7532 24.2747C20.9514 24.6095 20.8339 25.0349 20.4816 25.2302C20.3641 25.2929 20.2393 25.3208 20.1145 25.3208V25.3278ZM19.7107 32.5461C19.5639 32.5461 19.4244 32.5043 19.2923 32.4206C19.213 32.3685 19.1454 32.3021 19.0932 32.2252C19.0411 32.1482 19.0054 32.0622 18.9884 31.9721C18.9713 31.882 18.9732 31.7896 18.9938 31.7002C19.0145 31.6108 19.0535 31.5262 19.1087 31.4512C19.3657 31.0955 19.5125 30.698 19.5272 30.2934C19.5712 29.5681 19.2482 28.8498 18.6169 28.264C18.3306 27.992 18.3232 27.5526 18.6095 27.2806C18.8958 27.0086 19.3583 27.0016 19.6447 27.2806C20.577 28.1524 21.0615 29.2543 20.9954 30.3702C20.9661 31.0257 20.7312 31.6813 20.3127 32.2532C20.1732 32.4485 19.9383 32.5531 19.7107 32.5531V32.5461ZM25.9802 21.2061C25.9288 21.3455 25.8774 21.4781 25.8333 21.5966C25.3048 23.0124 24.9377 24.3654 24.6808 25.6347L23.7191 25.5022C23.4315 25.4651 23.1545 25.3746 22.9039 25.2356C22.6533 25.0966 22.4341 24.912 22.2588 24.6923C22.0835 24.4727 21.9556 24.2223 21.8824 23.9555C21.8092 23.6888 21.7922 23.4109 21.8324 23.1379C21.9572 22.1127 22.8895 21.3246 23.998 21.3246C24.0714 21.3246 24.1375 21.3316 24.2109 21.3386L25.6645 21.234L25.9802 21.2061Z" fill="#F4958C"/>
<path d="M39.4437 29.0657L35.0756 36.2283L30.8838 25.7948L26.6405 25.202L25.5614 25.0556L24.8272 24.951L23.8288 24.8115C23.2562 24.7348 22.801 24.3721 22.6248 23.8909C22.5514 23.6886 22.5221 23.4655 22.5588 23.2423C22.5814 23.0604 22.6419 22.8845 22.7368 22.725C22.8316 22.5655 22.959 22.4256 23.1113 22.3133C23.2637 22.201 23.438 22.1186 23.6242 22.071C23.8104 22.0233 24.0048 22.0113 24.1959 22.0357L25.7155 21.9311L25.8697 21.9172L26.5157 21.8684L29.1365 21.687C29.6211 21.6522 29.9367 21.1988 29.7752 20.7664L29.5256 20.0969C29.2051 19.2452 28.5573 18.5401 27.7123 18.1232C27.4994 18.0047 27.2719 17.921 27.0296 17.8512L27.5655 14.3711L28.2923 14.4687L28.6814 14.5176C29.9588 14.6849 31.1481 15.2289 32.0804 16.0798L34.0479 17.8791C34.9204 18.6692 35.5239 19.6894 35.7804 20.8083L36.6613 24.5813L39.4437 29.0657Z" fill="#FFAEA1"/>
<path d="M28.2931 14.4687C28.2858 14.5454 28.2858 14.6222 28.2784 14.7059C28.1683 15.9891 27.9554 17.1329 27.7131 18.1232C27.5002 18.0047 27.2727 17.921 27.0304 17.8512L27.5663 14.3711L28.2931 14.4687ZM12.5681 23.054C12.436 22.4333 12.2524 21.8405 12.0469 21.2686L12.7737 21.157C12.9792 21.7219 13.1554 22.3008 13.2875 22.9145C13.3903 23.3957 13.4344 23.9327 13.4417 24.5116L12.8177 24.6999C12.8177 24.6999 12.7443 24.7208 12.7076 24.7417C12.7076 24.121 12.6709 23.5491 12.5681 23.054Z" fill="#F4958C"/>
</svg>
