<svg width="14" height="17" viewBox="0 0 14 17" fill="none" xmlns="http://www.w3.org/2000/svg">
<path d="M8 13.4998C8.6875 13.4998 9.25 12.9373 9.25 12.2498V5.23726C9.25 5.13726 9.3125 5.08726 9.3375 5.06226C9.3625 5.04976 9.4375 4.99976 9.5375 5.03726C10.0375 5.23726 10.4875 5.37476 10.925 5.46226C11.0875 5.49976 11.2625 5.52476 11.4375 5.54976L11.9375 5.62476C12.6875 5.72476 13.3875 5.19976 13.4875 4.44976C13.5375 4.08726 13.45 3.72476 13.225 3.43726C13 3.14976 12.675 2.94976 12.3125 2.89976L11.8125 2.82476C10.375 2.62476 9.0875 1.88726 8.175 0.737257C8.05 0.574757 7.8125 0.549757 7.65 0.674757C7.4875 0.799757 7.4625 1.03726 7.5875 1.19976C8.6125 2.48726 10.075 3.32476 11.7125 3.54976L12.2125 3.62476C12.375 3.64976 12.525 3.73726 12.625 3.86226C12.725 3.99976 12.7625 4.16226 12.75 4.32476C12.7 4.66226 12.3875 4.89976 12.05 4.86226L11.55 4.78726C11.4 4.76226 11.2375 4.73726 11.0875 4.71226C10.6875 4.63726 10.275 4.51226 9.825 4.32476C9.525 4.21226 9.2 4.24976 8.9375 4.42476C8.675 4.59976 8.5125 4.89976 8.5125 5.21226V12.2498C8.5125 12.5248 8.2875 12.7498 8.0125 12.7498C7.7375 12.7498 7.5125 12.5248 7.5125 12.2498V8.57476C7.5125 8.02476 7.125 7.56226 6.5875 7.46226L2.975 6.81226C2.55 6.73726 2.25 6.37476 2.25 5.96226V0.974757C2.25 0.762257 2.0875 0.599757 1.875 0.599757C1.6625 0.599757 1.5 0.762257 1.5 0.974757V5.96226C1.5 6.74976 2.0625 7.42476 2.8375 7.56226L6.45 8.21226C6.625 8.24976 6.7625 8.39976 6.7625 8.58726V12.2498C6.75 12.9373 7.3125 13.4998 8 13.4998ZM0.5 14.6248H5.9125C6.0875 15.6248 6.9625 16.3748 8 16.3748C9.0375 16.3748 9.9125 15.6248 10.0875 14.6248H13.625C13.8375 14.6248 14 14.4623 14 14.2498C14 14.0373 13.8375 13.8748 13.625 13.8748H0.5C0.2875 13.8748 0.125 14.0373 0.125 14.2498C0.125 14.4623 0.2875 14.6248 0.5 14.6248Z" fill="#888888"/>
</svg>
