<svg width="40" height="40" viewBox="0 0 40 40" fill="none" xmlns="http://www.w3.org/2000/svg">
<path d="M35.877 29.2749V27.9006C37.395 27.9006 38.6256 26.6699 38.6256 25.1519V21.7161H35.877V20.3418H39.3128C39.495 20.3418 39.6698 20.4142 39.7986 20.5431C39.9275 20.6719 39.9999 20.8467 39.9999 21.029V25.1519C39.9977 27.428 38.1531 29.2726 35.877 29.2749Z" fill="#F15A24"/>
<path d="M0.831787 10.7227H13.2007V34.7732H0.831787V10.7227Z" fill="#E6E6E6"/>
<path d="M13.2012 10.7227H17.3241V34.7732H13.2012V10.7227Z" fill="#29ABE2"/>
<path d="M13.2012 10.7222L15.2627 5.91211L17.3241 10.7222H13.2012Z" fill="#0071BC"/>
<path d="M15.2624 5.91211H2.89351L0.832031 10.7222H13.2009L15.2624 5.91211Z" fill="#CCCCCC"/>
<path d="M2.89258 2.47656H15.2615V5.91236H2.89258V2.47656Z" fill="#29ABE2"/>
<path d="M7.01656 19.6562C8.15508 19.6562 9.07804 18.7332 9.07804 17.5947C9.07804 16.4562 8.15508 15.5332 7.01656 15.5332C5.87803 15.5332 4.95508 16.4562 4.95508 17.5947C4.95508 18.7332 5.87803 19.6562 7.01656 19.6562Z" fill="#29ABE2"/>
<path d="M4.26758 21.7168H9.76486V23.0911H4.26758V21.7168ZM4.26758 24.4654H9.76486V25.8398H4.26758V24.4654Z" fill="#0071BC"/>
<path d="M5.19458 31.5566L0.625658 34.8213C0.366075 35.006 0.172583 35.269 0.0736297 35.5718C-0.0253238 35.8746 -0.0245174 36.2012 0.0759303 36.5035C0.174775 36.8002 0.364501 37.0582 0.618207 37.241C0.871913 37.4238 1.17672 37.522 1.48942 37.5219H7.29111L5.19458 31.5566Z" fill="#C69C6D"/>
<path d="M10.3709 28.9844L5.86107 30.2728C5.1143 30.4864 4.6564 31.2372 4.80834 31.9989L5.91673 37.5223H12.7155L10.3709 28.9844Z" fill="#A67C52"/>
<path d="M22.8218 37.5226H10.6515L9.57812 29.5914C9.46766 28.7764 10.0388 28.0263 10.8537 27.9158C10.9202 27.9068 10.9871 27.9023 11.0541 27.9023H22.8218V37.5226Z" fill="#8C6239"/>
<path d="M23.5071 18.9685H22.1328C22.135 17.0719 23.6721 15.5349 25.5686 15.5327H35.5324C36.1017 15.5327 36.5632 15.0712 36.5632 14.5019C36.5632 13.9327 36.1017 13.4712 35.5324 13.4712H27.2865C25.9582 13.4712 24.8815 12.3944 24.8815 11.0661C24.8815 9.73787 25.9582 8.66109 27.2865 8.66109H30.3787C31.5173 8.66109 32.4402 7.73815 32.4402 6.59961H33.8145C33.8123 8.49617 32.2753 10.0332 30.3787 10.0354H27.2865C26.7173 10.0354 26.2558 10.4969 26.2558 11.0661C26.2558 11.6354 26.7173 12.0969 27.2865 12.0969H35.5324C36.8607 12.0969 37.9375 13.1737 37.9375 14.5019C37.9375 15.8302 36.8607 16.907 35.5324 16.907H25.5686C24.4301 16.907 23.5071 17.8299 23.5071 18.9685Z" fill="#B3B3B3"/>
<path d="M29.6804 35.4593H26.2563C22.4565 35.4552 19.3772 32.3759 19.373 28.576V21.029C19.373 20.8467 19.4454 20.6719 19.5743 20.5431C19.7032 20.4142 19.878 20.3418 20.0602 20.3418H35.8766C36.0588 20.3418 36.2336 20.4142 36.3625 20.5431C36.4913 20.6719 36.5637 20.8467 36.5637 21.029V28.576C36.5596 32.3758 33.4803 35.4551 29.6804 35.4593Z" fill="#F7931E"/>
<path d="M27.6203 32.7108H26.9332C24.2781 32.7073 22.1265 30.5557 22.123 27.9006V27.2135H23.4974V27.9006C23.4996 29.7972 25.0366 31.3342 26.9332 31.3364H27.6203V32.7108ZM22.123 24.4648H23.4974V25.8392H22.123V24.4648Z" fill="#FBB03B"/>
<path d="M35.1898 37.5221H21.4466L20.0723 34.7734H36.5641L35.1898 37.5221Z" fill="#F7931E"/>
<path d="M16.6365 34.0859H39.9999V35.4603H16.6365V34.0859Z" fill="#F15A24"/>
</svg>
