<svg width="15" height="15" viewBox="0 0 15 15" fill="none" xmlns="http://www.w3.org/2000/svg">
<path d="M8.20522 5.00458C8.18431 4.99223 8.1652 4.97707 8.14841 4.95953L7.8695 4.66797L7.79387 5.60553L8.12965 5.53812L8.33302 5.08012L8.20522 5.00458ZM7.72656 6.43936L8.30579 6.52648C8.48658 6.55367 8.66937 6.50058 8.80736 6.38079L8.86732 6.32876C8.9348 6.27022 8.98891 6.19786 9.02598 6.11659C9.06306 6.03532 9.08223 5.94703 9.08221 5.8577C9.08221 5.64759 8.97364 5.4507 8.80045 5.33651L8.5594 5.87932C8.54217 5.91814 8.51588 5.95226 8.48275 5.97882C8.44961 6.00539 8.41058 6.02362 8.36894 6.03199L7.74937 6.1563L7.72656 6.43936ZM9.18441 6.75698L9.15556 6.78198C8.964 6.94834 8.72292 7.04687 8.46968 7.06231L8.42731 7.22517C8.37873 7.413 8.37268 7.60929 8.40958 7.79975C8.46945 8.10632 8.63902 8.37782 8.87795 8.56758C8.81812 8.34298 8.80749 8.10811 8.84681 7.87902C8.88612 7.64994 8.97444 7.43205 9.10572 7.24025C9.20433 7.09585 9.23106 6.91971 9.18441 6.75698Z" fill="#6D6E70"/>
<path d="M6.09412 7.71578C6.29998 7.83455 6.56245 7.81383 6.74712 7.66412C6.78717 7.63165 6.87745 7.53828 6.8821 7.53353C7.03715 7.35606 7.13387 7.13121 7.15303 6.89411L7.35152 4.43435C7.35576 4.38185 7.37553 4.33179 7.4083 4.29055L8.01452 3.52728C8.11709 3.39776 8.19027 3.2475 8.22901 3.0869C8.23057 3.08036 8.80708 1.28563 8.80708 1.28563C8.82437 1.2318 8.8584 1.18488 8.9042 1.15172L9.42648 0.773541L9.58629 0.153705L8.94125 0.0195312L8.48186 0.990855C8.47915 0.996569 8.47623 1.00218 8.47312 1.00769L7.0352 3.55832C6.95386 3.70248 6.89695 3.8591 6.86676 4.02184C6.86676 4.02184 6.46749 6.0369 6.46344 6.04235C6.46224 6.04394 5.92681 6.73231 5.92681 6.73231C5.84799 6.83389 5.80507 6.95874 5.80479 7.08731L5.80469 7.21408C5.80475 7.31573 5.83153 7.41558 5.88232 7.50363C5.93312 7.59168 6.00615 7.66484 6.09412 7.71578Z" fill="#6D6E70"/>
<path d="M4.54964 7.56537L6.18798 8.58085C6.22572 8.49273 6.26723 8.40628 6.31239 8.32173C6.14276 8.31121 5.97786 8.26163 5.83055 8.17687C5.48773 7.97908 5.27499 7.61039 5.27533 7.21461L5.27543 7.08787C5.27556 6.8425 5.41378 6.50233 5.56459 6.30859L4.99317 6.53391C4.69195 6.62289 4.49306 6.91455 4.52025 7.22746L4.54964 7.56537ZM5.93972 10.3142C5.88925 9.90602 5.91598 9.4932 6.01403 9.09809L4.4831 8.14914C4.3567 8.88559 4.38093 9.65202 4.55505 10.378L5.93972 10.3142ZM9.1574 14.0593L8.87235 14.1337C8.82643 14.1457 8.77812 14.1451 8.73247 14.1321C8.68682 14.1191 8.64549 14.0941 8.61277 14.0597L6.92997 12.2902C6.88725 12.2452 6.86159 12.1868 6.85745 12.1249C6.83017 11.715 6.65273 11.3295 6.35908 11.0421L6.14903 10.8364C6.14903 10.8364 4.3119 10.9163 4.30868 10.9158C4.30397 10.9151 1.90242 10.1276 1.90242 10.1276C1.74798 10.0769 1.58073 10.0813 1.42921 10.1402L1.41473 10.1458C1.07101 10.2796 0.877672 10.6379 0.955267 10.9976C1.15909 11.9433 1.3624 12.889 1.56521 13.8349L2.26048 13.8069C2.171 12.9842 2.04021 11.7804 2.04021 11.7804C2.03476 11.7302 2.0437 11.6796 2.06599 11.6343C2.08828 11.5891 2.12299 11.5511 2.16607 11.5248C2.20915 11.4986 2.25881 11.4851 2.30924 11.4861C2.35968 11.487 2.4088 11.5023 2.45087 11.5302L2.54583 11.593C3.10221 11.9611 3.68379 12.2896 4.28627 12.5761L4.55771 12.7051C4.56538 12.7088 7.90867 14.7102 7.90867 14.7102C8.1517 14.8556 8.42907 14.9337 8.71228 14.9365L12.1281 14.9689L12.1515 14.4933L10.6631 14.0739C10.1714 13.9355 9.65174 13.9304 9.15744 14.0593L9.1574 14.0593ZM13.9828 14.1502C13.9814 14.1485 13.9799 14.1468 13.9785 14.1452C13.9283 14.0858 13.86 14.0447 13.7841 14.0281C13.7082 14.0115 13.6289 14.0203 13.5585 14.0532C13.5075 14.0772 13.463 14.1131 13.4286 14.1577L13.288 14.3407C13.2476 14.3932 13.1892 14.4287 13.124 14.4404L12.6821 14.5193L12.6598 14.9722L14.7181 14.9783L13.9828 14.1502V14.1502ZM0.689111 14.7768C0.675937 14.7839 0.665758 14.7956 0.660402 14.8096C0.655047 14.8236 0.654866 14.8391 0.659892 14.8533L0.662117 14.8597C0.67241 14.889 0.698707 14.908 0.729021 14.908H0.72932C0.989301 14.9071 1.41098 14.9068 1.73362 14.9067C1.82796 14.9069 1.92084 14.8835 2.00388 14.8387C2.08691 14.7939 2.15748 14.7291 2.20922 14.6502L2.21413 14.6427C2.27403 14.5515 2.30773 14.4456 2.31155 14.3365L1.42552 14.3722L0.689111 14.7768V14.7768Z" fill="#6D6E70"/>
</svg>
