<svg width="60" height="60" viewBox="0 0 60 60" fill="none" xmlns="http://www.w3.org/2000/svg">
<g clip-path="url(#clip0_120_1965)">
<path d="M11.379 24.8276C9.57545 23.9354 7.82503 22.9397 6.13651 21.8454C4.32758 20.9631 3.63926 18.339 4.52142 16.5307C4.73108 16.1005 5.02349 15.7157 5.38193 15.3985C5.74037 15.0812 6.1578 14.8378 6.61039 14.6819C7.06297 14.5261 7.54183 14.461 8.01958 14.4904C8.49733 14.5197 8.96462 14.6429 9.39474 14.8529L10.2034 15.3004L12.625 14.9436L12.7986 16.2654L14.221 17.3576C14.3287 17.4403 14.4192 17.5434 14.4871 17.6611C14.5549 17.7788 14.599 17.9087 14.6167 18.0434C14.6344 18.1781 14.6253 18.315 14.5901 18.4462C14.5549 18.5774 14.4942 18.7004 14.4115 18.8082L13.3192 20.2306L19.3004 24.8233L16.4297 28.5615L11.379 24.8276Z" fill="#C8856A"/>
<path d="M60 60H53.7931V57.931L54.8276 56.8965L48.3672 53.0961L37.2414 46.5517L32.069 43.4483H11.3793L10.9836 49.7871L10.3448 60H4.30603C4.02068 59.9997 3.74472 59.898 3.52748 59.713C3.31023 59.5279 3.16586 59.2717 3.12016 58.99C3.07445 58.7083 3.1304 58.4196 3.278 58.1754C3.4256 57.9312 3.65523 57.7474 3.92586 57.6569L5.38448 57.1707C5.6239 57.0909 5.83215 56.9378 5.97975 56.7332C6.12735 56.5285 6.20681 56.2825 6.2069 56.0302V40.3448C6.2069 39.5217 6.53387 38.7324 7.11587 38.1504C7.69788 37.5683 8.48726 37.2414 9.31034 37.2414H22.7586V32.069H16.5517L12.4138 26.8966L13.0978 26.0987L16.1586 22.4095L17.5862 20.6897L16.5517 18.6207L5.17241 7.24138L0 4.13793V2.06897L3.10345 0L13.4483 9.31034L16.5017 11.982C19.9503 14.9996 22.7783 18.6599 24.8276 22.7586L26.8966 25.8621L33.1034 32.069L36.2069 36.2069L46.5517 44.4828L51.4422 48.997L57.7196 54.7915C58.4386 55.4553 59.0124 56.2607 59.4049 57.1571C59.7974 58.0535 60 59.0214 60 60Z" fill="#C8856A"/>
<path d="M51.4424 48.997L48.6208 52.7586L48.3674 53.0961L37.2415 46.5517L32.0691 43.4483H11.3794L10.9838 49.7871L10.345 49.6552H6.20703V40.3448C6.20724 39.5218 6.53427 38.7326 7.11624 38.1506C7.6982 37.5686 8.48746 37.2416 9.31048 37.2414H22.7588V35.1724L33.1036 32.069L36.207 36.2069L46.5519 44.4828L51.4424 48.997Z" fill="#37474F"/>
<path d="M12.4141 26.8966L9.75342 30.4442C9.46715 30.826 9.3216 31.2949 9.34144 31.7716L10.3451 55.8621L7.2417 60.0001H10.3451L12.4141 58.9656L13.2343 59.7858C13.3715 59.923 13.5576 60 13.7516 60.0001C13.8476 60.0001 13.9428 59.9811 14.0315 59.9444C14.1203 59.9076 14.2009 59.8537 14.2688 59.7858C14.3368 59.7179 14.3906 59.6372 14.4274 59.5485C14.4642 59.4597 14.4831 59.3646 14.4831 59.2685V33.1035L16.552 32.069L12.4141 26.8966Z" fill="#C8856A"/>
<path d="M0.862112 25V31.8966L0 33.6207L2.22517 32.879C3.08341 32.5929 3.82988 32.0441 4.35884 31.3101C4.8878 30.5762 5.17243 29.6945 5.17241 28.7898V20.6897C4.02925 20.6897 2.93291 21.1438 2.12457 21.9522C1.31623 22.7605 0.862112 23.8568 0.862112 25Z" fill="#6E3C26"/>
<path d="M9.45968 21.6011L8.40412 21.9647C8.11584 22.0641 7.80156 22.0572 7.51792 21.9453C7.23428 21.8334 6.99995 21.6238 6.85718 21.3544C6.71441 21.085 6.67259 20.7734 6.73926 20.4759C6.80593 20.1783 6.97671 19.9144 7.2208 19.7317L7.47075 19.5444L5.35705 15.4194C3.98364 16.4946 2.32381 18.7638 3.50791 21.5384C5.17355 25.4446 11.3792 24.8275 11.3792 24.8275L9.45968 21.6011Z" fill="#6E3C26"/>
<path d="M21.7239 32.069L26.8963 25.8621L24.8274 22.7587C24.8274 22.7587 20.6894 23.7931 17.586 20.6897C17.586 20.6897 19.655 24.8276 17.586 26.8966C15.517 28.9656 12.4136 26.8966 12.4136 26.8966L14.6318 30.5934C15.203 31.5456 16.096 32.262 17.1494 32.6131C18.1042 32.9314 19.1365 32.9314 20.0912 32.6131L21.7239 32.069Z" fill="#F0F0F0"/>
</g>
<defs>
<clipPath id="clip0_120_1965">
<rect width="60" height="60" fill="white"/>
</clipPath>
</defs>
</svg>
