<svg width="42" height="57" viewBox="0 0 42 57" fill="none" xmlns="http://www.w3.org/2000/svg">
<path d="M10.2774 0.00222301C9.56919 -0.129616 6.21883 5.62247 5.57415 11.9996C5.23716 15.3346 4.62669 20.0662 6.22861 25.2763C7.27865 28.6797 8.49474 32.9376 12.5777 35.926C13.32 36.468 19.3956 40.7601 25.9303 38.1135C29.0413 36.8537 30.7312 34.5392 32.2794 32.4249C34.692 29.1192 35.4197 26.1845 36.7286 20.9012C37.9545 15.945 37.8714 13.4694 37.4563 11.4185C37.09 9.60207 36.8165 8.23485 35.703 7.26314C32.6163 4.54823 26.1305 7.51706 23.8107 8.57665C16.392 11.9703 12.0502 17.8591 12.3579 18.2058C12.5923 18.4744 15.5666 15.4567 21.6227 12.7369C22.536 12.3267 24.2307 11.355 26.658 10.8423C28.3234 10.4859 31.1707 9.8804 32.5675 11.355C33.178 11.9996 33.3099 12.8346 33.3685 13.5426C33.9057 20.0955 31.1072 25.579 31.1072 25.579C30.3405 27.0146 29.3832 28.7627 27.459 30.4668C26.4382 31.3702 23.8839 32.7911 21.6227 32.9474C16.7192 33.2892 11.9184 25.5253 9.87689 18.2888C7.06864 8.32273 11.1174 0.153594 10.2774 0.00222301Z" fill="white"/>
<path d="M7.90856 46.2093C11.8841 46.3948 16.1917 49.2464 20.5676 52.0444C23.3222 53.8071 24.7043 54.6909 24.9827 54.8179C26.609 55.5601 33.4905 58.69 38.4574 55.2085C40.6454 53.6753 42.5355 49.5345 41.8615 46.1604C41.0312 42.0197 36.9043 41.3312 33.3977 41.2043C27.5321 40.9943 23.0828 45.5842 23.2831 45.9212C23.4443 46.1946 26.609 43.6994 31.4539 43.7336C32.499 43.7434 33.9251 43.5773 35.3952 44.3196C35.9226 44.5832 37.295 45.2766 37.7297 46.6048C38.3402 48.4749 36.9287 50.7504 35.1998 51.7123C33.4318 52.6938 31.5467 52.1713 29.7054 51.6635C28.0254 51.1996 27.2684 50.6869 23.1903 48.2601C18.785 45.6379 17.5591 44.9836 16.431 44.4172C14.0085 43.2062 12.7632 42.591 10.9854 42.1808C8.75347 41.6681 6.62896 41.1749 4.3726 42.2297C1.44225 43.5969 0.480133 46.5462 0.382455 46.8489C-0.521068 49.764 0.240811 53.1235 1.98925 54.3393C6.47268 57.4498 14.6386 57.2837 18.6727 52.684C17.6226 52.6694 7.94274 54.105 4.88542 50.765C4.54354 50.3939 4.3726 49.7689 4.3726 49.7689C4.01607 48.7044 4.69494 47.5618 5.53986 46.8489C6.2871 46.2044 7.259 46.18 7.90856 46.2093Z" fill="white"/>
<path d="M21.2958 28.9144C24.5002 28.9144 27.0979 26.3172 27.0979 23.1134C27.0979 19.9097 24.5002 17.3125 21.2958 17.3125C18.0914 17.3125 15.4937 19.9097 15.4937 23.1134C15.4937 26.3172 18.0914 28.9144 21.2958 28.9144Z" fill="white"/>
</svg>
