<svg width="60" height="80" viewBox="0 0 60 80" fill="none" xmlns="http://www.w3.org/2000/svg">
<path d="M14.9039 0.00312986C13.9069 -0.182491 9.18977 7.91608 8.28211 16.8946C7.80765 21.5902 6.94814 28.2519 9.20354 35.5874C10.6819 40.3792 12.3941 46.3741 18.1426 50.5815C19.1878 51.3446 27.7419 57.3876 36.9423 53.6614C41.3224 51.8877 43.7016 48.629 45.8814 45.6522C49.2782 40.9979 50.3028 36.8661 52.1456 29.4275C53.8715 22.4495 53.7546 18.964 53.1702 16.0766C52.6544 13.5191 52.2694 11.5941 50.7016 10.226C46.3558 6.40362 37.2242 10.5835 33.958 12.0754C23.513 16.8534 17.4 25.1445 17.8332 25.6326C18.1633 26.0107 22.3509 21.7621 30.8774 17.9328C32.1633 17.3553 34.5493 15.9872 37.9668 15.2653C40.3116 14.7634 44.3204 13.911 46.287 15.9872C47.1466 16.8947 47.3322 18.0702 47.4147 19.0671C48.1711 28.2932 44.2311 36.0137 44.2311 36.0137C43.1515 38.0349 41.8038 40.496 39.0945 42.8954C37.6574 44.1672 34.0611 46.1678 30.8774 46.3878C23.9737 46.8691 17.2144 35.938 14.3401 25.7495C10.3863 11.7179 16.0866 0.216251 14.9039 0.00312986Z" fill="#344E41"/>
<path d="M11.5681 65.0597C17.1653 65.321 23.2302 69.3359 29.3913 73.2752C33.2695 75.757 35.2154 77.0014 35.6074 77.1801C37.8972 78.2251 47.5858 82.6319 54.5789 77.7301C57.6595 75.5714 60.3206 69.7415 59.3716 64.991C58.2027 59.1611 52.3923 58.1918 47.4551 58.013C39.1968 57.7174 32.9325 64.1797 33.2145 64.6541C33.4414 65.0391 37.8972 61.5261 44.7184 61.5742C46.1899 61.5879 48.1978 61.3542 50.2675 62.3992C51.0102 62.7704 52.9424 63.7466 53.5544 65.6166C54.4139 68.2497 52.4266 71.4534 49.9925 72.8077C47.5033 74.1895 44.849 73.4539 42.2567 72.7389C39.8913 72.0858 38.8255 71.364 33.0838 67.9472C26.8814 64.2554 25.1555 63.3341 23.5671 62.5367C20.1565 60.8317 18.4031 59.9655 15.9001 59.388C12.7577 58.6661 9.76651 57.9717 6.58969 59.4567C2.46395 61.3817 1.10935 65.5341 0.971822 65.9603C-0.300281 70.0646 0.772396 74.7945 3.23409 76.5064C9.54647 80.8857 21.0435 80.6519 26.7233 74.1758C25.2449 74.1552 11.6162 76.1764 7.31171 71.474C6.83037 70.9515 6.58969 70.0715 6.58969 70.0715C6.08773 68.5728 7.04353 66.9641 8.23312 65.9603C9.28518 65.0529 10.6536 65.0185 11.5681 65.0597Z" fill="#344E41"/>
<path d="M30.417 40.7092C34.9286 40.7092 38.586 37.0525 38.586 32.5418C38.586 28.0312 34.9286 24.3745 30.417 24.3745C25.9054 24.3745 22.248 28.0312 22.248 32.5418C22.248 37.0525 25.9054 40.7092 30.417 40.7092Z" fill="#344E41"/>
</svg>
