<svg width="40" height="40" viewBox="0 0 40 40" fill="none" xmlns="http://www.w3.org/2000/svg">
<g clip-path="url(#clip0_360_3756)">
<path d="M19.9991 27.8741C25.3759 27.8741 29.7347 23.5153 29.7347 18.1385C29.7347 12.7616 25.3759 8.40283 19.9991 8.40283C14.6222 8.40283 10.2634 12.7616 10.2634 18.1385C10.2634 23.5153 14.6222 27.8741 19.9991 27.8741Z" fill="#FFD347"/>
<path d="M20.0001 4.75178C19.9318 4.75179 19.8641 4.73835 19.801 4.71221C19.7379 4.68608 19.6806 4.64777 19.6323 4.59947C19.584 4.55117 19.5457 4.49383 19.5195 4.43072C19.4934 4.36761 19.48 4.29998 19.48 4.23167V1.45029C19.48 1.16297 19.7128 0.930176 20.0001 0.930176C20.2873 0.930176 20.5202 1.16297 20.5202 1.45029V4.23174C20.5202 4.30004 20.5067 4.36767 20.4806 4.43077C20.4545 4.49387 20.4161 4.5512 20.3678 4.59949C20.3195 4.64778 20.2622 4.68609 20.1991 4.71222C20.136 4.73835 20.0684 4.75179 20.0001 4.75178ZM13.0466 6.61516C12.9553 6.61527 12.8655 6.59128 12.7863 6.54562C12.7071 6.49996 12.6414 6.43423 12.5958 6.35507L11.2051 3.94631C11.1361 3.82685 11.1175 3.68488 11.1532 3.55164C11.1889 3.41839 11.276 3.30479 11.3955 3.23582C11.515 3.16685 11.6569 3.14816 11.7902 3.18386C11.9234 3.21956 12.037 3.30673 12.106 3.4262L13.4966 5.83496C13.5423 5.914 13.5663 6.00365 13.5663 6.09492C13.5664 6.18619 13.5424 6.27585 13.4968 6.35491C13.4512 6.43397 13.3856 6.49964 13.3066 6.54532C13.2276 6.591 13.1379 6.61509 13.0466 6.61516ZM7.95511 11.7058C7.86396 11.7058 7.77442 11.6817 7.69556 11.636L5.28679 10.2453C5.16962 10.1752 5.08471 10.0618 5.0504 9.92965C5.01609 9.79748 5.03513 9.65712 5.10341 9.53886C5.17168 9.42061 5.28372 9.33394 5.41534 9.29757C5.54695 9.26119 5.68759 9.27803 5.8069 9.34445L8.21567 10.7351C8.31486 10.7924 8.39237 10.8808 8.43618 10.9866C8.47998 11.0925 8.48763 11.2098 8.45794 11.3204C8.42824 11.4311 8.36286 11.5288 8.27194 11.5985C8.18102 11.6681 8.06965 11.7059 7.95511 11.7058ZM6.09227 18.6596H3.31088C3.02363 18.6596 2.79077 18.4268 2.79077 18.1395C2.79077 17.8522 3.02363 17.6194 3.31088 17.6194H6.09234C6.23028 17.6194 6.36257 17.6742 6.4601 17.7717C6.55763 17.8693 6.61242 18.0016 6.61241 18.1395C6.6124 18.2775 6.5576 18.4097 6.46005 18.5073C6.36251 18.6048 6.23021 18.6596 6.09227 18.6596ZM5.54729 27.0042C5.43274 27.0043 5.32136 26.9666 5.23044 26.897C5.13952 26.8273 5.07414 26.7296 5.04445 26.6189C5.01476 26.5083 5.02242 26.391 5.06624 26.2851C5.11006 26.1793 5.18759 26.0909 5.28679 26.0336L7.69556 24.643C7.81487 24.5766 7.95551 24.5597 8.08713 24.5961C8.21874 24.6325 8.33078 24.7191 8.39905 24.8374C8.46733 24.9557 8.48637 25.096 8.45206 25.2282C8.41775 25.3604 8.33284 25.4737 8.21567 25.5438L5.8069 26.9345C5.728 26.9802 5.63845 27.0042 5.54729 27.0042ZM11.655 33.1129C11.5638 33.1128 11.4741 33.0887 11.3951 33.043C11.3161 32.9973 11.2506 32.9316 11.205 32.8526C11.1594 32.7735 11.1354 32.6839 11.1354 32.5926C11.1354 32.5013 11.1595 32.4117 11.2051 32.3326L12.5958 29.9239C12.6659 29.8067 12.7793 29.7218 12.9114 29.6875C13.0436 29.6532 13.184 29.6722 13.3022 29.7405C13.4205 29.8088 13.5071 29.9208 13.5435 30.0524C13.5799 30.184 13.5631 30.3247 13.4966 30.444L12.106 32.8528C12.0603 32.9319 11.9946 32.9977 11.9154 33.0433C11.8362 33.089 11.7464 33.113 11.655 33.1129ZM20.0001 35.3488C19.9318 35.3488 19.8641 35.3353 19.801 35.3092C19.7379 35.2831 19.6806 35.2448 19.6323 35.1965C19.584 35.1482 19.5457 35.0908 19.5195 35.0277C19.4934 34.9646 19.48 34.897 19.48 34.8287V32.0472C19.48 31.7599 19.7128 31.5271 20.0001 31.5271C20.2873 31.5271 20.5202 31.7599 20.5202 32.0472V34.8287C20.5202 34.897 20.5067 34.9646 20.4806 35.0277C20.4545 35.0908 20.4162 35.1482 20.3679 35.1965C20.3196 35.2448 20.2622 35.2831 20.1991 35.3092C20.136 35.3353 20.0684 35.3488 20.0001 35.3488ZM28.3451 33.1129C28.2537 33.113 28.1639 33.089 28.0848 33.0434C28.0056 32.9977 27.9399 32.932 27.8942 32.8528L26.5036 30.4441C26.4346 30.3246 26.4159 30.1826 26.4516 30.0494C26.4873 29.9161 26.5745 29.8025 26.694 29.7336C26.8134 29.6646 26.9554 29.6459 27.0886 29.6816C27.2219 29.7173 27.3355 29.8045 27.4044 29.924L28.7951 32.3327C28.8407 32.4118 28.8648 32.5014 28.8648 32.5927C28.8648 32.6839 28.8408 32.7736 28.7952 32.8527C28.7496 32.9317 28.684 32.9974 28.605 33.0431C28.526 33.0888 28.4364 33.1128 28.3451 33.1129ZM34.4529 27.0042C34.3617 27.0042 34.2722 26.9802 34.1933 26.9344L31.7845 25.5438C31.6674 25.4737 31.5825 25.3603 31.5482 25.2281C31.5138 25.0959 31.5329 24.9556 31.6012 24.8373C31.6694 24.7191 31.7815 24.6324 31.9131 24.596C32.0447 24.5597 32.1853 24.5765 32.3047 24.6429L34.7134 26.0336C34.8126 26.0909 34.8901 26.1793 34.9339 26.2851C34.9777 26.3909 34.9854 26.5083 34.9557 26.6189C34.926 26.7295 34.8606 26.8273 34.7697 26.8969C34.6788 26.9666 34.5674 27.0043 34.4529 27.0042ZM36.6893 18.6596H33.9078C33.6206 18.6596 33.3877 18.4268 33.3877 18.1395C33.3877 17.8522 33.6206 17.6194 33.9078 17.6194H36.6893C36.9765 17.6194 37.2094 17.8522 37.2094 18.1395C37.2094 18.4268 36.9765 18.6596 36.6893 18.6596ZM32.045 11.7058C31.9305 11.7059 31.8191 11.6682 31.7282 11.5985C31.6373 11.5288 31.5719 11.4311 31.5422 11.3205C31.5125 11.2098 31.5202 11.0925 31.564 10.9867C31.6078 10.8808 31.6853 10.7924 31.7845 10.7352L34.1933 9.34452C34.3126 9.2781 34.4533 9.26126 34.5849 9.29763C34.7165 9.33401 34.8285 9.42068 34.8968 9.53893C34.9651 9.65719 34.9841 9.79755 34.9498 9.92972C34.9155 10.0619 34.8306 10.1753 34.7134 10.2454L32.3047 11.636C32.2258 11.6817 32.1362 11.7058 32.045 11.7058ZM26.9535 6.61516C26.8622 6.61506 26.7726 6.59096 26.6936 6.54526C26.6146 6.49957 26.549 6.43389 26.5034 6.35483C26.4578 6.27577 26.4339 6.18611 26.4339 6.09484C26.4339 6.00358 26.4579 5.91393 26.5036 5.83489L27.8942 3.42613C27.9644 3.30896 28.0777 3.22405 28.2099 3.18974C28.3421 3.15543 28.4824 3.17447 28.6007 3.24274C28.7189 3.31102 28.8056 3.42306 28.842 3.55467C28.8784 3.68629 28.8615 3.82693 28.7951 3.94624L27.4044 6.35501C27.3588 6.43417 27.293 6.49991 27.2139 6.54558C27.1347 6.59125 27.0449 6.61525 26.9535 6.61516Z" fill="#FFD347"/>
<path d="M19.9998 8.40479C19.6474 8.40479 19.2995 8.42401 18.9568 8.46045C23.843 8.98096 27.649 13.1158 27.649 18.1401C27.649 23.1643 23.8429 27.2993 18.9568 27.8198C19.2995 27.8563 19.6474 27.8754 19.9998 27.8754C25.3765 27.8754 29.7352 23.5168 29.7352 18.1401C29.7352 12.7634 25.3766 8.40479 19.9998 8.40479Z" fill="#FFBE31"/>
</g>
<g clip-path="url(#clip1_360_3756)">
<mask id="mask0_360_3756" style="mask-type:luminance" maskUnits="userSpaceOnUse" x="0" y="0" width="40" height="40">
<path d="M0 0.000118256H39.9999V40H0V0.000118256Z" fill="white"/>
</mask>
<g mask="url(#mask0_360_3756)">
<path d="M25.0987 32.1267L20 30.4703L14.9013 32.1267C14.9013 32.1267 -0.598869 32.0826 2.38776 38.3379H37.6123C40.5989 32.0826 25.0987 32.1267 25.0987 32.1267Z" fill="#0C99E6"/>
<path d="M37.6123 38.3394C37.1315 39.3277 33.6095 40.2442 26.8185 39.7473C20.0276 39.2504 13.7888 37.8149 13.7888 37.8149V36.6979C13.7888 36.6979 26.4873 35.3857 31.263 35.4685C36.0388 35.5513 38.1091 37.318 37.6123 38.3394Z" fill="#FFAEA1"/>
<path d="M31.5643 35.5728C31.5661 35.5422 31.567 35.5102 31.5674 35.4773C31.4666 35.4739 31.3663 35.4703 31.263 35.4685C26.4873 35.3857 13.7888 36.698 13.7888 36.698V37.815C13.7888 37.815 17.3911 38.6438 22.1004 39.2598C22.6007 39.1509 23.0982 39.041 23.5893 38.9308C25.5496 38.4909 27.2133 38.0884 28.4007 37.7666C29.0651 37.5867 29.5675 37.4361 29.9368 37.3062C30.4029 37.1422 31.4945 36.7581 31.5643 35.5728Z" fill="#F4958C"/>
<path d="M2.38767 38.3386C2.91752 39.3019 5.0654 40.6851 11.6355 39.6084C18.2055 38.5318 29.8831 35.9438 29.9107 35.4745C29.9384 35.0052 28.8336 34.1149 27.3981 34.1149C25.9627 34.1149 25.7418 34.5324 24.9136 34.5324C24.0855 34.5324 23.0365 33.2316 22.1531 33.411C21.2697 33.5905 20.7453 35.3849 20.7453 35.3849C20.7453 35.3849 12.3808 34.8327 7.93633 35.1088C3.49189 35.3849 1.78033 37.2344 2.38767 38.3386Z" fill="#FFCFC2"/>
<path d="M5.70032 38.3388C5.09298 37.2346 6.80454 35.3851 11.249 35.109C11.7101 35.0803 12.214 35.0607 12.7458 35.0484C11.0104 35.0177 9.29125 35.0248 7.93633 35.109C3.49189 35.3851 1.78033 37.2346 2.38767 38.3388C2.84424 39.169 4.50298 40.3108 9.15773 39.9215C6.96204 39.6802 6.02571 38.9304 5.70032 38.3388Z" fill="#FFAEA1"/>
<path d="M1.60718 32.6234V31.3398C1.60718 31.0775 1.99366 31.0499 2.10405 31.3398C2.21452 31.6296 2.18179 32.6522 2.34311 32.9346V33.4102L1.60718 32.6234Z" fill="#F4958C"/>
<path d="M38.3939 32.6234V31.3398C38.3939 31.0775 38.0074 31.0499 37.897 31.3398C37.7866 31.6296 37.8193 32.6522 37.658 32.9346V33.4102L38.3939 32.6234Z" fill="#F4958C"/>
<path d="M39.1567 31.9107C39.0946 31.7347 38.8255 31.8072 38.6184 32.0349C38.4737 32.1941 37.9248 32.6968 37.5683 33.0171C37.4841 33.0927 37.3754 33.1353 37.2623 33.137C37.1492 33.1387 37.0393 33.0993 36.953 33.0262C36.7034 32.8154 36.7402 32.4199 37.025 32.2601C37.4305 32.0325 37.9055 31.7224 37.9973 31.4759C38.1629 31.0308 37.7592 30.979 37.5418 31.1343C37.3244 31.2896 34.5845 32.0453 34.5845 32.0453L30.038 25.9169C30.038 25.9169 29.7619 17.0832 28.6577 16.1722C27.5535 15.2612 21.8226 14.295 21.8226 14.295V12.3074H18.1786V14.295C18.1786 14.295 12.4478 15.2612 11.3436 16.1722C10.2394 17.0832 9.96327 25.9169 9.96327 25.9169L5.41673 32.0453C5.41673 32.0453 2.67689 31.2896 2.45947 31.1343C2.24205 30.979 1.83838 31.0308 2.004 31.4759C2.09572 31.7224 2.57064 32.0325 2.97626 32.2601C3.26111 32.4199 3.2979 32.8154 3.04829 33.0262C2.96194 33.0993 2.85204 33.1387 2.73893 33.137C2.62581 33.1353 2.51713 33.0927 2.43298 33.0171C2.0765 32.6968 1.52752 32.1941 1.38283 32.0349C1.1758 31.8072 0.906659 31.7347 0.84455 31.9107C0.782441 32.0867 1.70377 33.4117 1.92119 33.7119C2.13853 34.0122 3.09095 34.6333 3.68103 34.5194C4.2711 34.4055 6.32766 33.2875 6.32766 33.2875C6.32766 33.2875 12.2352 28.8431 12.7873 27.2695C13.3394 25.696 13.7812 20.3875 13.7812 20.3875H26.2201C26.2201 20.3875 26.6618 25.696 27.2139 27.2695C27.766 28.8431 33.6736 33.2875 33.6736 33.2875C33.6736 33.2875 35.7302 34.4055 36.3202 34.5194C36.9103 34.6333 37.8627 34.0122 38.0801 33.7119C38.2975 33.4117 39.2188 32.0867 39.1567 31.9107Z" fill="#FFAEA1"/>
<path d="M18.1794 14.2946C18.1794 14.2946 20.9676 14.5155 21.2437 12.3071H18.1794V14.2946Z" fill="#F4958C"/>
<path d="M23.4891 5.99056C23.4891 5.99056 23.6825 4.54822 22.9879 3.74291C22.8839 3.62228 22.6862 3.70439 22.6989 3.86314L22.7071 3.96525C22.7071 3.96525 22.3085 3.1876 21.2826 2.88228C21.1402 2.83986 21.0204 2.9965 21.0962 3.12439L21.143 3.2033C21.143 3.2033 20.5246 2.58494 18.4752 2.54221C18.3247 2.53908 18.2501 2.724 18.3601 2.82682L18.4775 2.93658C18.4775 2.93658 17.7058 3.07267 16.6834 3.69166C16.5573 3.76798 16.5887 3.95955 16.7325 3.99244L16.8162 4.01158C16.4205 4.46658 16.2017 4.9404 16.0902 5.24571C16.0417 5.37845 16.1716 5.50634 16.3036 5.45579C16.3036 5.45579 15.9895 6.91297 16.3699 8.17024L20 8.99023L23.6301 8.17024C23.6301 8.17024 23.85 7.11352 23.4891 5.99056Z" fill="#8C4F5C"/>
<path d="M18.5148 5.91727C17.4453 5.6879 16.6843 5.26806 16.3032 5.45524C16.3032 5.45524 15.9892 6.91235 16.3696 8.16969L18.6102 8.67578L18.5148 5.91727Z" fill="#7B3C47"/>
<path d="M22.7713 8.86461C22.7713 8.86461 23.1281 7.99587 23.7641 8.19758C24.4002 8.39922 23.7488 10.2818 22.5076 10.4004L22.7713 8.86461Z" fill="#FFAEA1"/>
<path d="M17.2302 8.86461C17.2302 8.86461 16.8734 7.99587 16.2374 8.19758C15.6013 8.39922 16.2527 10.2818 17.494 10.4004L17.2302 8.86461Z" fill="#F4958C"/>
<path d="M22.8596 7.76931C22.8233 7.68072 22.7939 7.55385 22.7661 7.40728L20.0004 6.60518L17.2348 7.40728C17.2069 7.55385 17.1776 7.68072 17.1412 7.76931C16.9778 8.16791 16.7725 8.24908 16.7451 8.25838C16.7431 8.32112 16.742 8.38388 16.7419 8.44666C16.7419 10.8461 18.2008 13.6602 20.0004 13.6602C21.8001 13.6602 23.2589 10.8461 23.2589 8.44666C23.2588 8.38388 23.2577 8.32112 23.2557 8.25838C23.2283 8.24908 23.023 8.16791 22.8596 7.76931Z" fill="#FFCFC2"/>
<path d="M17.8625 8.44658C17.8625 7.99947 17.9137 7.57635 18.008 7.18299L17.2348 7.40721C17.2069 7.55377 17.1776 7.68064 17.1412 7.76924C16.9778 8.16783 16.7725 8.24908 16.7452 8.2583C16.7432 8.32064 16.7419 8.3833 16.7419 8.44658C16.7419 10.846 18.2008 13.6602 20.0004 13.6602C20.1915 13.6602 20.3787 13.6281 20.5607 13.5685C19.0281 13.067 17.8625 10.5913 17.8625 8.44658Z" fill="#FFAEA1"/>
<path d="M19.9997 6.16414C18.8608 6.16414 18.4049 5.80305 18.0108 5.80211H18.0104C17.9362 5.80153 17.8627 5.81552 17.794 5.84329C17.4251 5.99125 17.3406 6.84539 17.2341 7.40625H22.7654C22.6588 6.84539 22.5744 5.99125 22.2055 5.84329C22.1368 5.81552 22.0633 5.80153 21.9891 5.80211H21.9887C21.5946 5.80305 21.1388 6.16414 19.9997 6.16414Z" fill="white"/>
<path d="M19.3787 6.78516C19.3787 6.62043 19.4442 6.46246 19.5606 6.34598C19.6771 6.2295 19.8351 6.16407 19.9998 6.16407C18.8608 6.16407 18.4049 5.80297 18.0108 5.80204H18.0104C17.9363 5.80149 17.8628 5.81551 17.7941 5.84329C17.4251 5.99118 17.3407 6.84531 17.2341 7.40625H19.9998C19.8351 7.40625 19.6771 7.34081 19.5606 7.22434C19.4442 7.10786 19.3787 6.94988 19.3787 6.78516Z" fill="#EBF0F3"/>
<path d="M26.22 20.3864L25.2561 23.6812C25.1519 24.0375 25.0989 24.4068 25.0989 24.7781V32.127H14.9021V24.7781C14.9021 24.4068 14.8492 24.0375 14.7449 23.6812L13.781 20.3864C14.2857 20.3864 14.6943 19.9778 14.6943 19.4731V15.0028C15.481 14.8153 16.2662 14.6528 16.8912 14.5309V16.6559C16.8912 18.3732 18.2833 19.7653 20.0005 19.7653C21.7178 19.7653 23.1099 18.3732 23.1099 16.6559V14.5309C23.7349 14.6528 24.52 14.8153 25.3068 15.0028V19.4731C25.3068 19.9778 25.7153 20.3864 26.22 20.3864Z" fill="#3E4A68"/>
<path d="M19.8886 23.984C16.9643 23.984 16.0797 23.5527 15.549 22.8217L13.781 20.3864L14.7449 23.6812C14.8492 24.0375 14.9021 24.4068 14.9021 24.778V32.127H16.563V25.041C16.5626 24.8261 16.5347 24.6121 16.4802 24.4042C18.9505 24.3417 19.8886 23.984 19.8886 23.984Z" fill="#303A59"/>
</g>
</g>
<defs>
<clipPath id="clip0_360_3756">
<rect width="34.4186" height="34.4186" fill="white" transform="translate(2.79077 0.930176)"/>
</clipPath>
<clipPath id="clip1_360_3756">
<rect width="40" height="40" fill="white"/>
</clipPath>
</defs>
</svg>
