<svg width="349" height="349" viewBox="0 0 349 349" fill="none" xmlns="http://www.w3.org/2000/svg">
<path d="M188.778 283.181C193.504 284.85 198.012 287.081 202.205 289.826C206.91 292.909 211.22 296.632 216.233 299.187C222.746 302.51 230.216 303.702 237.516 303.345C241.655 303.14 246.15 302.246 248.783 299.051C249.505 298.26 249.936 297.246 250.005 296.178C250.005 294.624 248.925 293.29 247.796 292.22C241.757 286.528 233.353 284.178 225.247 282.355C217.141 280.533 212.295 278.246 204.316 274.117C200.896 272.353 197.544 270.458 194.109 268.792L194.026 268.752C192.331 267.847 190.589 267.031 188.808 266.309C185.897 265.2 182.869 264.428 179.783 264.008C176.684 263.592 173.53 263.97 170.617 265.108C169.853 265.365 169.182 265.845 168.692 266.485C168.337 267.073 168.175 267.756 168.228 268.44C168.316 269.828 168.816 271.158 169.664 272.261C170.501 273.357 171.488 274.331 172.596 275.153C177.35 278.871 183.14 281.192 188.778 283.181Z" fill="#E0E0E0"/>
<path d="M55.9099 317.422C-9.59041 279.605 -9.59041 218.306 55.9099 180.482C121.41 142.657 227.618 142.664 293.09 180.482C358.563 218.299 358.591 279.598 293.09 317.422C227.59 355.247 121.403 355.233 55.9099 317.422Z" fill="#F5F5F5"/>
<path d="M71.3358 304.607L84.9118 296.804C85.7913 296.301 85.7913 295.477 84.9118 294.968L34.3976 265.805C33.9038 265.557 33.3588 265.428 32.8062 265.428C32.2535 265.428 31.7086 265.557 31.2147 265.805L17.6386 273.616C16.7591 274.126 16.7591 274.942 17.6386 275.452L68.1529 304.607C68.6454 304.86 69.1909 304.991 69.7443 304.991C70.2977 304.991 70.8432 304.86 71.3358 304.607Z" fill="#E0E0E0"/>
<path d="M45.6143 251.322L13.0806 232.567C12.9155 232.51 12.7722 232.403 12.6708 232.261C12.5694 232.119 12.5149 231.949 12.5149 231.774C12.5149 231.6 12.5694 231.43 12.6708 231.288C12.7722 231.146 12.9155 231.039 13.0806 230.982L93.4971 184.391C93.9211 184.175 94.3898 184.063 94.8652 184.063C95.3407 184.063 95.8094 184.175 96.2333 184.391L128.767 203.118C128.932 203.175 129.075 203.281 129.177 203.423C129.278 203.565 129.333 203.736 129.333 203.91C129.333 204.085 129.278 204.255 129.177 204.397C129.075 204.539 128.932 204.646 128.767 204.702L48.3505 251.315C47.9271 251.531 47.4587 251.644 46.9833 251.646C46.5078 251.647 46.0388 251.536 45.6143 251.322Z" fill="#E0E0E0"/>
<path d="M222.069 158.446C229.537 162.809 229.537 169.879 222.069 174.235C214.6 178.59 202.525 178.597 195.028 174.235C187.532 169.872 187.56 162.809 195.028 158.446C202.497 154.084 214.6 154.07 222.069 158.446Z" fill="#E0E0E0"/>
<path d="M330.95 243.113L289.879 266.831L222.725 228.064L263.802 204.346L330.95 243.113Z" fill="#E0E0E0"/>
<path d="M246.903 250.6L134.839 315.388C134.61 315.502 134.358 315.561 134.103 315.561C133.847 315.561 133.595 315.502 133.366 315.388L50.5627 267.54C50.4732 267.51 50.3955 267.452 50.3405 267.375C50.2854 267.298 50.2559 267.205 50.2559 267.111C50.2559 267.016 50.2854 266.924 50.3405 266.847C50.3955 266.77 50.4732 266.712 50.5627 266.682L162.627 201.9C162.856 201.783 163.109 201.722 163.366 201.722C163.624 201.722 163.877 201.783 164.106 201.9L246.903 249.748C246.99 249.78 247.065 249.838 247.119 249.914C247.172 249.99 247.2 250.081 247.2 250.174C247.2 250.267 247.172 250.357 247.119 250.433C247.065 250.51 246.99 250.568 246.903 250.6Z" fill="#E0E0E0"/>
<path d="M324.507 144.025L322.909 144.982L268.423 113.523L270.021 112.566L324.507 144.025Z" fill="#FAFAFA"/>
<path d="M270.021 112.567L322.909 143.097V50.4795L270.021 19.9629V112.567Z" fill="white"/>
<path d="M265.394 115.268L325.966 150.216V48.7343L265.394 13.7854V115.268ZM268.423 19.0204L322.909 50.4793V144.981L268.423 113.523V19.0204Z" fill="#F0F0F0"/>
<path d="M268.423 113.523L270.021 112.566V19.9628L268.423 19.0205V113.523Z" fill="#E0E0E0"/>
<path d="M322.909 111.896V113.781L268.423 82.3222L270.021 81.366L322.909 111.896Z" fill="#FAFAFA"/>
<path d="M322.909 76.3193V78.197L268.423 46.7451L270.021 45.7888L322.909 76.3193Z" fill="#FAFAFA"/>
<path d="M265.394 13.7855L267.027 12.8572L327.557 47.7991L325.931 48.7344L265.394 13.7855Z" fill="#FAFAFA"/>
<path d="M327.557 47.7991L325.931 48.7344V150.217L327.557 149.281V47.7991Z" fill="#E0E0E0"/>
<path d="M299.603 37.022L297.976 36.0867V130.589L299.603 129.661V37.022Z" fill="#E0E0E0"/>
<path d="M294.954 34.3486L297.976 36.0867V130.589L294.954 128.844V34.3486Z" fill="#F0F0F0"/>
<path d="M265.394 45V48.483L325.931 83.4319V79.9419L265.394 45Z" fill="#F0F0F0"/>
<path d="M265.394 80.5701V84.0531L325.931 119.002V115.519L265.394 80.5701Z" fill="#F0F0F0"/>
<path d="M297.976 63.8041L299.603 62.8618L322.909 76.3193V78.1969L297.976 63.8041Z" fill="#FAFAFA"/>
<path d="M297.976 99.3674L299.603 98.425L322.909 111.882V113.76L297.976 99.3674Z" fill="#FAFAFA"/>
<path d="M83.09 88.0527L63.3854 76.6753L11.4961 106.606V108.769L31.2006 120.147L83.09 90.2165V88.0527Z" fill="#EBEBEB"/>
<path d="M31.2006 117.983L83.09 88.0527L63.3854 76.6753L11.4961 106.606L31.2006 117.983Z" fill="#FAFAFA"/>
<path d="M31.2006 117.983V120.147L11.4961 108.769V106.605L31.2006 117.983Z" fill="#E6E6E6"/>
<path d="M69.3114 57.9199L80.8773 64.5998V86.5938L69.3114 79.9209V57.9199Z" fill="#EBEBEB"/>
<path d="M80.5004 64.9699L69.3324 58.5483C68.6501 59.2725 67.7556 59.7613 66.7777 59.9443L77.848 66.3101C78.7879 65.9835 79.6799 65.5328 80.5004 64.9699Z" fill="white"/>
<path d="M76.78 66.31C77.1142 66.4755 77.482 66.5616 77.8549 66.5616C78.2278 66.5616 78.5957 66.4755 78.9299 66.31L80.8145 65.2281C80.9451 65.1859 81.059 65.1034 81.1398 64.9924C81.2206 64.8814 81.2641 64.7476 81.2641 64.6104C81.2641 64.4731 81.2206 64.3393 81.1398 64.2283C81.059 64.1173 80.9451 64.0348 80.8145 63.9926L69.8 57.6548L69.3114 57.934L80.1583 64.216C80.2355 64.2423 80.3026 64.2922 80.35 64.3585C80.3975 64.4248 80.423 64.5044 80.423 64.5859C80.423 64.6675 80.3975 64.747 80.35 64.8134C80.3026 64.8797 80.2355 64.9295 80.1583 64.9559L78.4064 65.947C78.2057 66.0467 77.9847 66.0985 77.7607 66.0985C77.5367 66.0985 77.3157 66.0467 77.1151 65.947L66.31 59.665L65.7795 59.9721L76.78 66.31Z" fill="#FAFAFA"/>
<path d="M65.7446 59.9722V81.9662L76.773 88.29C77.1062 88.4587 77.4745 88.5466 77.8479 88.5466C78.2214 88.5466 78.5897 88.4587 78.9229 88.29L80.8075 87.2151C80.9293 87.1591 81.0346 87.0724 81.1129 86.9635C81.1912 86.8546 81.2399 86.7272 81.2542 86.5939V64.5999C81.2399 64.7333 81.1912 64.8606 81.1129 64.9695C81.0346 65.0784 80.9293 65.1651 80.8075 65.2211L78.9229 66.31C78.5906 66.4775 78.2236 66.5648 77.8514 66.5648C77.4793 66.5648 77.1123 66.4775 76.78 66.31L65.7446 59.9722Z" fill="#E0E0E0"/>
<path d="M77.848 66.5543C78.2218 66.5623 78.5915 66.4759 78.9229 66.303L80.8075 65.2211C80.9294 65.165 81.0346 65.0783 81.1129 64.9695C81.1912 64.8606 81.2399 64.7332 81.2543 64.5999V86.5938C81.2399 86.7272 81.1912 86.8545 81.1129 86.9634C81.0346 87.0723 80.9294 87.159 80.8075 87.215L78.9229 88.29C78.5933 88.4683 78.2227 88.5573 77.848 88.5482V66.5543Z" fill="#F0F0F0"/>
<path d="M64.4673 61.2563L76.0261 67.9292L72.4384 90.5933L60.8726 83.9134L64.4673 61.2563Z" fill="#EBEBEB"/>
<path d="M75.5725 68.2504L64.4045 61.8218C63.5319 62.4664 62.503 62.8664 61.4241 62.9805L72.5223 69.3741C73.5771 69.1122 74.5999 68.7354 75.5725 68.2504Z" fill="white"/>
<path d="M71.3357 69.2905C72.0682 69.6331 72.9067 69.6707 73.667 69.3952L75.8657 68.4948C76.5637 68.2086 76.6405 67.7061 76.0472 67.3641L65.0118 61.0332L64.4674 61.2566L75.3143 67.5386C75.6703 67.741 75.6214 68.0481 75.2026 68.2366L73.1575 69.0602C72.9321 69.1421 72.6927 69.1787 72.4532 69.168C72.2136 69.1572 71.9786 69.0992 71.7615 68.9974L60.9215 62.7154L60.3003 62.9736L71.3357 69.2905Z" fill="#FAFAFA"/>
<path d="M60.3004 62.9526L56.7126 85.6167L67.741 91.9476C68.1033 92.1186 68.496 92.216 68.8962 92.234C69.2964 92.252 69.6962 92.1902 70.0724 92.0523L72.2711 91.1518C72.6201 91.0122 72.8155 90.8168 72.8434 90.6074L76.4381 67.9503C76.4032 68.1527 76.2078 68.3482 75.8658 68.4948L73.6671 69.3952C73.291 69.5335 72.8912 69.5955 72.4909 69.5775C72.0906 69.5595 71.6979 69.4619 71.3357 69.2905L60.3004 62.9526Z" fill="#E0E0E0"/>
<path d="M72.4594 69.5765C72.8702 69.6008 73.2815 69.539 73.667 69.3951L75.8657 68.4946C76.2077 68.3481 76.4031 68.1526 76.438 67.9502L72.8433 90.6073C72.8433 90.8167 72.62 91.0121 72.271 91.1517L70.0723 92.0521C69.6884 92.1928 69.28 92.2546 68.8717 92.2336L72.4594 69.5765Z" fill="#F0F0F0"/>
<path opacity="0.05" d="M60.2444 90.2234C62.9666 91.7939 62.9666 94.3346 60.2444 95.9051C58.7184 96.6795 57.0313 97.0831 55.32 97.0831C53.6088 97.0831 51.9217 96.6795 50.3957 95.9051C47.6735 94.3346 47.6735 91.7939 50.3957 90.2234C51.9217 89.449 53.6088 89.0454 55.32 89.0454C57.0313 89.0454 58.7184 89.449 60.2444 90.2234Z" fill="black"/>
<path d="M50.8912 94.1811C48.525 91.766 47.136 85.7283 49.4463 83.8088H61.2007C63.511 85.7283 62.122 91.7591 59.7558 94.1811L59.686 94.2439L59.6092 94.3277L59.3928 94.5162L59.337 94.558L59.1555 94.6976C59.0574 94.7693 58.9548 94.8345 58.8484 94.8931C57.7548 95.4474 56.5461 95.7363 55.32 95.7363C54.094 95.7363 52.8852 95.4474 51.7916 94.8931C51.6869 94.8303 51.5892 94.7674 51.4845 94.6907C51.4254 94.6533 51.3694 94.6113 51.317 94.565L51.2472 94.5162L51.0448 94.3277L50.954 94.23C50.9347 94.2117 50.9136 94.1954 50.8912 94.1811Z" fill="#D28F3F"/>
<path d="M60.1815 82.8946C62.8618 84.4441 62.8618 86.9499 60.1815 88.4786C58.676 89.2425 57.0116 89.6407 55.3234 89.6407C53.6352 89.6407 51.9708 89.2425 50.4653 88.4786C47.785 86.929 47.785 84.4232 50.4653 82.8946C51.9708 82.1306 53.6352 81.7324 55.3234 81.7324C57.0116 81.7324 58.676 82.1306 60.1815 82.8946Z" fill="#C07474"/>
<path d="M58.2761 83.9902C59.9094 84.9325 59.9094 86.4611 58.2761 87.4034C57.36 87.8682 56.3473 88.1104 55.3201 88.1104C54.2929 88.1104 53.2801 87.8682 52.364 87.4034C50.7377 86.4611 50.7377 84.9325 52.364 83.9902C53.2801 83.5254 54.2929 83.2832 55.3201 83.2832C56.3473 83.2832 57.36 83.5254 58.2761 83.9902Z" fill="#D28F3F"/>
<path d="M52.35 85.6096C53.2661 85.1448 54.2788 84.9026 55.306 84.9026C56.3333 84.9026 57.346 85.1448 58.2621 85.6096C58.6562 85.8227 58.9918 86.1295 59.2393 86.503C58.9922 86.8787 58.6567 87.1879 58.2621 87.4034C57.346 87.8682 56.3333 88.1104 55.306 88.1104C54.2788 88.1104 53.2661 87.8682 52.35 87.4034C51.9554 87.1879 51.6198 86.8787 51.3728 86.503C51.6203 86.1295 51.9559 85.8227 52.35 85.6096Z" fill="#A5BC59"/>
<path d="M57.9341 86.5031C58.7526 85.6512 59.4565 84.6962 60.0281 83.6622C61.0123 81.9172 61.1938 79.5789 60.6842 79.2928C60.1747 79.0066 58.1016 81.3379 58.1016 81.3379C58.2886 80.3561 58.3613 79.356 58.318 78.3574C58.2273 76.8009 57.8503 75.3909 57.4036 75.1048C56.9569 74.8186 55.9937 76.78 55.5679 78.176C55.1421 79.572 54.8699 80.7655 54.8699 80.7655C54.6979 79.6563 54.4412 78.5619 54.1021 77.4919C53.5856 76.0191 53.1179 75.6841 52.748 75.8307C52.378 75.9773 52.1477 76.6613 52.05 78.6227C52.0153 79.5543 52.0456 80.4873 52.1407 81.4147C52.1407 81.4147 51.4427 80.605 50.5981 79.8232C49.7535 79.0415 49.3208 78.853 49.0625 79.0136C48.8043 79.1741 48.7414 80.5143 50.1235 83.0131C50.8109 84.2859 51.6916 85.4443 52.734 86.4473C52.734 86.4473 54.6465 87.7386 57.9341 86.5031Z" fill="#486A1A"/>
<path d="M36.98 74.6091L48.5389 81.289V103.283L36.98 96.6031V74.6091Z" fill="#E0E0E0"/>
<path d="M48.162 81.666L36.994 75.2444C36.309 75.9686 35.4123 76.4573 34.4324 76.6404L45.5306 83.0341C46.4639 82.6953 47.3486 82.2354 48.162 81.666Z" fill="white"/>
<path d="M44.4416 82.9852C44.7748 83.1539 45.1431 83.2418 45.5165 83.2418C45.89 83.2418 46.2583 83.1539 46.5915 82.9852L48.4761 81.9033C48.6067 81.8611 48.7206 81.7786 48.8014 81.6676C48.8822 81.5566 48.9257 81.4229 48.9257 81.2856C48.9257 81.1483 48.8822 81.0146 48.8014 80.9036C48.7206 80.7926 48.6067 80.7101 48.4761 80.6679L37.4477 74.344L36.98 74.6092L47.8269 80.8912C47.9041 80.9176 47.9712 80.9674 48.0186 81.0337C48.0661 81.1001 48.0916 81.1796 48.0916 81.2612C48.0916 81.3427 48.0661 81.4223 48.0186 81.4886C47.9712 81.5549 47.9041 81.6048 47.8269 81.6311L46.068 82.6013C45.8686 82.7053 45.6471 82.7596 45.4223 82.7596C45.1975 82.7596 44.976 82.7053 44.7767 82.6013L33.9367 76.3193L33.4062 76.6195L44.4416 82.9852Z" fill="#FAFAFA"/>
<path d="M33.4133 76.6543V98.6483L44.4417 104.979C44.7759 105.145 45.1438 105.231 45.5166 105.231C45.8895 105.231 46.2574 105.145 46.5916 104.979L48.4762 103.897C48.598 103.842 48.7029 103.755 48.7802 103.646C48.8575 103.537 48.9043 103.409 48.9159 103.276V81.282C48.9043 81.4153 48.8575 81.5431 48.7802 81.6522C48.7029 81.7614 48.598 81.848 48.4762 81.9033L46.5916 82.9852C46.2584 83.1538 45.8901 83.2417 45.5166 83.2417C45.1432 83.2417 44.7749 83.1538 44.4417 82.9852L33.4133 76.6543Z" fill="#E0E0E0"/>
<path d="M45.5166 83.2434C45.8907 83.2472 46.26 83.1585 46.5915 82.9851L48.4761 81.9032C48.5979 81.848 48.7029 81.7613 48.7801 81.6522C48.8574 81.543 48.9043 81.4152 48.9159 81.282V103.304C48.9043 103.437 48.8574 103.565 48.7801 103.674C48.7029 103.783 48.5979 103.87 48.4761 103.925L46.5915 105.007C46.2595 105.178 45.8902 105.265 45.5166 105.258V83.2434Z" fill="#F0F0F0"/>
<path d="M32.2476 77.3245L43.8134 83.9973V105.991L32.2476 99.3184V77.3245Z" fill="#EBEBEB"/>
<path d="M43.4436 84.3672L32.2756 77.9456C31.5946 78.6712 30.6995 79.1603 29.7209 79.3416L40.8122 85.7352C41.7459 85.3974 42.6307 84.9374 43.4436 84.3672Z" fill="white"/>
<path d="M39.7092 85.7005C40.0424 85.8691 40.4106 85.957 40.7841 85.957C41.1576 85.957 41.5258 85.8691 41.859 85.7005L43.7436 84.6186C43.8742 84.5764 43.9882 84.4939 44.0689 84.3829C44.1497 84.2719 44.1933 84.1381 44.1933 84.0008C44.1933 83.8636 44.1497 83.7298 44.0689 83.6188C43.9882 83.5078 43.8742 83.4253 43.7436 83.3831L32.7152 77.0522L32.2475 77.3245L43.0945 83.6065C43.1717 83.6328 43.2387 83.6826 43.2861 83.749C43.3336 83.8153 43.3591 83.8948 43.3591 83.9764C43.3591 84.058 43.3336 84.1375 43.2861 84.2038C43.2387 84.2702 43.1717 84.32 43.0945 84.3463L41.3425 85.3375C41.1432 85.4376 40.9233 85.4897 40.7003 85.4897C40.4773 85.4897 40.2574 85.4376 40.0582 85.3375L29.2112 79.0555L28.6877 79.3556L39.7092 85.7005Z" fill="#FAFAFA"/>
<path d="M28.6877 79.3696V101.364L39.7092 107.687C40.0424 107.856 40.4106 107.944 40.7841 107.944C41.1576 107.944 41.5258 107.856 41.859 107.687L43.7436 106.613C43.8667 106.558 43.9731 106.472 44.0516 106.363C44.1302 106.254 44.1781 106.125 44.1903 105.991V83.9974C44.1781 84.1314 44.1302 84.2596 44.0516 84.3689C43.9731 84.4781 43.8667 84.5643 43.7436 84.6186L41.8799 85.7005C41.5467 85.8692 41.1785 85.957 40.805 85.957C40.4316 85.957 40.0633 85.8692 39.7301 85.7005L28.6877 79.3696Z" fill="#E0E0E0"/>
<path d="M40.7842 85.9517C41.1579 85.9598 41.5277 85.8734 41.8591 85.7004L43.7437 84.6185C43.8668 84.5643 43.9732 84.4781 44.0517 84.3688C44.1303 84.2596 44.1782 84.1313 44.1904 83.9973V105.991C44.1782 106.125 44.1303 106.254 44.0517 106.363C43.9732 106.472 43.8668 106.558 43.7437 106.613L41.88 107.687C41.5504 107.866 41.1798 107.955 40.8051 107.946L40.7842 85.9517Z" fill="#F0F0F0"/>
<path d="M27.5849 81.9871L39.1438 88.6669L35.5491 111.324L23.9902 104.644L27.5849 81.9871Z" fill="#EBEBEB"/>
<path d="M38.6831 88.9809L27.5151 82.5593C26.6403 83.1988 25.6122 83.5961 24.5347 83.711L35.598 90.1117C36.6651 89.8504 37.6999 89.4712 38.6831 88.9809Z" fill="white"/>
<path d="M34.4464 90.042C34.8082 90.2146 35.201 90.3128 35.6015 90.3308C36.0019 90.3488 36.4019 90.2862 36.7777 90.1467L38.9834 89.2463C39.6814 88.9671 39.7582 88.4575 39.1579 88.1155L28.1295 81.7847L27.5851 82.008L38.425 88.29C38.781 88.4994 38.7321 88.7996 38.3203 88.988L36.2961 89.7558C36.0707 89.8386 35.8309 89.8751 35.591 89.8631C35.3512 89.8511 35.1162 89.7909 34.9001 89.686L24.0532 83.404L23.439 83.6553L34.4464 90.042Z" fill="#FAFAFA"/>
<path d="M23.418 83.6902L19.8303 106.347L30.8587 112.678C31.2204 112.851 31.6132 112.95 32.0137 112.968C32.4143 112.986 32.8143 112.923 33.19 112.783L35.3887 111.882C35.7377 111.743 35.9332 111.547 35.9611 111.345L39.5558 88.6809C39.5209 88.8903 39.3255 89.0857 38.9834 89.2253L36.7778 90.1257C36.402 90.2656 36.002 90.3284 35.6015 90.3105C35.2009 90.2925 34.8081 90.194 34.4464 90.021L23.418 83.6902Z" fill="#E0E0E0"/>
<path d="M35.598 90.3072C36.0065 90.3322 36.4157 90.2704 36.7985 90.1258L39.0042 89.2253C39.3462 89.0857 39.5417 88.8903 39.5766 88.6809L35.9819 111.345C35.9819 111.547 35.7585 111.743 35.4095 111.882L33.2108 112.783C32.8277 112.926 32.4187 112.988 32.0103 112.964L35.598 90.3072Z" fill="#F0F0F0"/>
<path d="M83.09 45.3701L63.3854 33.9927L11.4961 63.9229V66.0867L31.2006 77.4571L83.09 47.5339V45.3701Z" fill="#EBEBEB"/>
<path d="M31.2006 75.3003L83.09 45.3701L63.3854 33.9927L11.4961 63.9229L31.2006 75.3003Z" fill="#FAFAFA"/>
<path d="M31.2006 75.3002V77.4571L11.4961 66.0867V63.9229L31.2006 75.3002Z" fill="#E6E6E6"/>
<path d="M66.4147 13.1504L79.1881 20.5283V44.8396L66.4147 37.4617V13.1504Z" fill="#EBEBEB"/>
<path d="M78.7834 20.9399L66.4148 13.8342C65.6577 14.6285 64.6677 15.1613 63.5879 15.3559L75.8448 22.4196C76.8868 22.0618 77.8754 21.564 78.7834 20.9399Z" fill="white"/>
<path d="M74.6859 22.4058C75.0551 22.5917 75.4627 22.6886 75.876 22.6886C76.2894 22.6886 76.697 22.5917 77.0661 22.4058L79.1601 21.2122C79.3143 21.177 79.452 21.0906 79.5507 20.9669C79.6493 20.8433 79.703 20.6898 79.703 20.5316C79.703 20.3735 79.6493 20.22 79.5507 20.0964C79.452 19.9727 79.3143 19.8862 79.1601 19.8511L66.973 12.8711L66.4565 13.1643L78.4412 20.0884C78.839 20.3118 78.839 20.6747 78.4412 20.9051L76.5077 22.0009C76.2902 22.1065 76.0515 22.1614 75.8097 22.1614C75.5679 22.1614 75.3293 22.1065 75.1117 22.0009L63.0573 15.0768L62.4709 15.4118L74.6859 22.4058Z" fill="#FAFAFA"/>
<path d="M62.4709 15.4119V39.7232L74.658 46.7032C75.0272 46.8892 75.4348 46.986 75.8481 46.986C76.2615 46.986 76.6691 46.8892 77.0382 46.7032L79.1322 45.5096C79.2695 45.4489 79.3877 45.3517 79.4738 45.2287C79.5599 45.1057 79.6107 44.9615 79.6208 44.8116V20.5282C79.6107 20.678 79.5599 20.8223 79.4738 20.9453C79.3877 21.0683 79.2695 21.1655 79.1322 21.2262L77.0382 22.4198C76.6691 22.6057 76.2615 22.7026 75.8481 22.7026C75.4348 22.7026 75.0272 22.6057 74.658 22.4198L62.4709 15.4119Z" fill="#E0E0E0"/>
<path d="M75.8447 22.6919C76.2604 22.699 76.6711 22.6006 77.0383 22.4057L79.1323 21.2122C79.2696 21.1514 79.3878 21.0543 79.4739 20.9312C79.56 20.8082 79.6108 20.664 79.6209 20.5142V44.8395C79.6108 44.9893 79.56 45.1335 79.4739 45.2565C79.3878 45.3796 79.2696 45.4767 79.1323 45.5375L77.0383 46.731C76.6705 46.9237 76.2598 47.0198 75.8447 47.0102V22.6919Z" fill="#F0F0F0"/>
<path d="M61.4518 17.3733L74.2252 24.7512L70.2606 49.7954L57.4802 42.4175L61.4518 17.3733Z" fill="#EBEBEB"/>
<path d="M73.7227 25.128L61.3541 18.0015C60.3876 18.7099 59.2511 19.1505 58.0596 19.2788L70.3234 26.3495C71.4981 26.0689 72.6381 25.6592 73.7227 25.128Z" fill="white"/>
<path d="M69.0393 26.2517C69.4395 26.4406 69.8732 26.5484 70.3153 26.5687C70.7573 26.5891 71.1991 26.5217 71.6149 26.3704L74.051 25.3722C74.8188 25.0581 74.9025 24.4997 74.2464 24.1228L62.0523 17.1428L61.4521 17.3871L73.4367 24.3113C73.8346 24.5346 73.7787 24.8697 73.3181 25.0581L71.0635 25.9655C70.8138 26.0587 70.5479 26.1005 70.2816 26.0885C70.0154 26.0765 69.7543 26.0109 69.514 25.8957L57.5293 18.9855L56.8313 19.2647L69.0393 26.2517Z" fill="#FAFAFA"/>
<path d="M56.8453 19.2507L52.8806 44.295L65.0747 51.275C65.4748 51.4646 65.9088 51.5722 66.3512 51.5914C66.7935 51.6106 67.2353 51.541 67.6503 51.3867L70.0793 50.3955C70.4632 50.2419 70.6796 50.0255 70.7145 49.7952L74.6861 24.7719C74.6861 25.0023 74.4418 25.2186 74.0579 25.3722L71.6219 26.3703C71.2064 26.5236 70.7645 26.592 70.3221 26.5716C69.8797 26.5512 69.4459 26.4425 69.0463 26.2517L56.8453 19.2507Z" fill="#E0E0E0"/>
<path d="M70.2886 26.5658C70.7395 26.5935 71.1911 26.5269 71.6148 26.3704L74.0509 25.3723C74.4348 25.2187 74.6442 25.0023 74.6791 24.772L70.7144 49.8162C70.7144 50.0466 70.4631 50.2629 70.0792 50.4165L67.6502 51.4076C67.2253 51.5694 66.7708 51.6384 66.317 51.6101L70.2886 26.5658Z" fill="#F0F0F0"/>
<path d="M40.2188 62.8618L41.1261 63.3015L57.8921 53.6203L56.9847 53.1875L40.2188 62.8618Z" fill="#FAFAFA"/>
<path d="M56.9847 53.1876L41.0354 62.3942L38.718 38.5366L54.6673 29.3369L56.9847 53.1876Z" fill="white"/>
<path d="M56.859 26.2795L36.9939 37.7407L39.7301 65.8771L59.5951 54.4438L56.859 26.2795ZM57.892 53.6202L41.14 63.3015L38.718 38.5364L55.47 28.8552L57.892 53.6202Z" fill="#F0F0F0"/>
<path d="M57.892 53.6203L56.9846 53.1875L54.6672 29.3368L55.4769 28.8552L57.892 53.6203Z" fill="#E0E0E0"/>
<path d="M56.859 26.2796L55.9376 25.8608L36.0935 37.315L37.0079 37.7408L56.859 26.2796Z" fill="#FAFAFA"/>
<path d="M36.0935 37.3149L37.0079 37.7407L39.744 65.8771L38.8297 65.4513L36.0935 37.3149Z" fill="#E0E0E0"/>
<path d="M56.2797 52.734L41.5798 61.2217L41.189 57.2012L43.9251 45.398L46.5287 49.4255L45.9912 52.8178L50.3397 40.2957L55.8888 48.7135L56.2797 52.734Z" fill="#F0F0F0"/>
<path d="M43.6949 40.4281C43.3906 40.6215 43.1414 40.8902 42.9715 41.2081C42.8015 41.526 42.7165 41.8825 42.7247 42.2429C42.7875 42.899 43.3249 43.1503 43.9252 42.8013C44.2337 42.6119 44.4866 42.3442 44.6582 42.0255C44.8298 41.7068 44.9141 41.3483 44.9024 40.9865C44.8396 40.3304 44.2952 40.0791 43.6949 40.4281Z" fill="#F0F0F0"/>
<path d="M252.467 95.5981L251.35 96.2682L228.4 83.0202L229.516 82.3501L252.467 95.5981Z" fill="#FAFAFA"/>
<path d="M229.516 82.3501L251.35 94.949V72.0895L229.516 59.4976V82.3501Z" fill="white"/>
<path d="M226.292 84.2346L253.458 99.9187V70.8749L226.292 55.1838V84.2346ZM228.386 58.8414L251.336 72.1034V96.2821L228.386 83.0201V58.8414Z" fill="#F0F0F0"/>
<path d="M228.4 83.02L229.516 82.3499V59.4974L228.4 58.8413V83.02Z" fill="#E0E0E0"/>
<path d="M226.292 55.1838L227.422 54.5347L254.596 70.2257L253.458 70.8749L226.292 55.1838Z" fill="#FAFAFA"/>
<path d="M254.596 70.2258L253.458 70.875V99.9187L254.596 99.2696V70.2258Z" fill="#E0E0E0"/>
<path d="M230.368 81.666L250.498 93.2877V87.4733L245.466 75.8586L242.332 78.7623L243.455 83.6343L236.51 68.7739L230.368 75.8586V81.666Z" fill="#F0F0F0"/>
<path d="M242.52 70.2467C242.953 70.5285 243.314 70.9087 243.572 71.3563C243.83 71.8039 243.979 72.3062 244.007 72.8223C244.007 73.7716 243.344 74.1555 242.52 73.6808C242.087 73.3989 241.726 73.0187 241.468 72.5711C241.21 72.1236 241.061 71.6213 241.033 71.1052C241.033 70.1559 241.696 69.7999 242.52 70.2467Z" fill="#F0F0F0"/>
<path d="M252.467 57.3057L251.35 57.9688L228.4 44.7207L229.516 44.0576L252.467 57.3057Z" fill="#FAFAFA"/>
<path d="M229.516 44.0578L251.35 56.6567V33.7972L229.516 21.2053V44.0578Z" fill="white"/>
<path d="M226.292 45.9424L253.458 61.6264V32.5757L226.292 16.8916V45.9424ZM228.386 20.5491L251.336 33.8111V57.9689L228.386 44.7069V20.5491Z" fill="#F0F0F0"/>
<path d="M228.4 44.7208L229.516 44.0577V21.2052L228.4 20.5491V44.7208Z" fill="#E0E0E0"/>
<path d="M226.292 16.8916L227.422 16.2424L254.596 31.9265L253.458 32.5756L226.292 16.8916Z" fill="#FAFAFA"/>
<path d="M254.596 31.9265L253.458 32.5757V61.6264L254.596 60.9773V31.9265Z" fill="#E0E0E0"/>
<path d="M230.368 43.3736L250.498 54.9884V49.181L245.466 37.5593L242.332 40.47L243.455 45.335L236.51 30.4746L230.368 37.5593V43.3736Z" fill="#F0F0F0"/>
<path d="M242.52 31.9544C242.953 32.2362 243.314 32.6165 243.572 33.064C243.83 33.5116 243.979 34.0139 244.007 34.53C244.007 35.4793 243.344 35.8632 242.52 35.3885C242.086 35.106 241.725 34.7247 241.467 34.2758C241.208 33.8269 241.06 33.3232 241.033 32.8059C241.033 31.8636 241.696 31.4797 242.52 31.9544Z" fill="#F0F0F0"/>
<path d="M197.073 168.916C190.938 162.585 187.301 146.58 193.318 141.561H223.779C229.761 146.58 226.152 162.564 220.024 168.916L219.856 169.09L219.647 169.293C219.472 169.467 219.291 169.635 219.095 169.795L218.949 169.914C218.795 170.033 218.648 170.151 218.481 170.263C218.227 170.449 217.964 170.621 217.692 170.78C212.639 173.725 204.43 173.725 199.405 170.78C199.131 170.621 198.865 170.449 198.609 170.263L198.176 169.935L197.995 169.788C197.806 169.628 197.625 169.467 197.457 169.307L197.213 169.062C197.171 169 197.115 168.958 197.073 168.916Z" fill="#D28F3F"/>
<path d="M221.133 139.523C228.079 143.579 228.079 150.161 221.133 154.216C214.188 158.272 202.916 158.272 195.964 154.216C189.011 150.161 188.984 143.579 195.964 139.523C202.944 135.468 214.181 135.468 221.133 139.523Z" fill="#C07474"/>
<path d="M217.776 141.471C222.878 144.451 222.878 149.288 217.776 152.262C212.674 155.235 204.395 155.242 199.293 152.262C194.191 149.281 194.191 144.451 199.293 141.471C204.395 138.49 212.688 138.497 217.776 141.471Z" fill="#EBEBEB"/>
<path d="M199.307 146.58C204.409 143.6 212.688 143.6 217.79 146.58C219.028 147.258 220.078 148.231 220.847 149.414C220.08 150.598 219.029 151.573 217.79 152.248C212.688 155.228 204.409 155.228 199.307 152.248C198.068 151.573 197.017 150.598 196.25 149.414C197.019 148.231 198.069 147.258 199.307 146.58Z" fill="#AE8484"/>
<path d="M204.381 108.762C202.322 111.359 196.145 112.504 193.067 106.138C190.177 100.17 187.127 94.5371 186.205 92.3384C186.077 92.0515 186.007 91.7415 186.002 91.4271C185.996 91.1127 186.053 90.8003 186.172 90.5088C186.29 90.2174 186.465 89.9528 186.688 89.731C186.911 89.5092 187.177 89.3348 187.469 89.2183C187.469 89.2183 187.385 85.8261 193.29 87.6827C199.195 89.5394 203.502 92.7014 206.427 98.1527C209.351 103.604 208.158 107.715 204.381 108.762Z" fill="#486A1A"/>
<path d="M207.522 117.264C207.333 116.122 207.079 114.992 206.762 113.879C206.117 111.672 205.314 109.514 204.36 107.422C202.411 103.164 199.861 99.208 196.787 95.6749C195.074 93.6617 193.177 91.8133 191.119 90.1537C191.057 90.1049 191.015 90.2375 191.064 90.2794C194.537 93.4154 197.575 97.0024 200.096 100.945C202.527 104.827 204.443 109.008 205.798 113.383C206.175 114.612 206.538 115.84 206.859 117.083C207.18 118.325 207.425 119.623 207.739 120.887C207.739 121.012 207.969 121.075 207.969 120.887C207.91 119.67 207.761 118.459 207.522 117.264Z" fill="#BFC783"/>
<path opacity="0.1" d="M207.522 117.264C207.333 116.122 207.079 114.992 206.762 113.879C206.117 111.672 205.314 109.514 204.36 107.422C202.411 103.164 199.861 99.208 196.787 95.6749C195.074 93.6617 193.177 91.8133 191.119 90.1537C191.057 90.1049 191.015 90.2375 191.064 90.2794C194.537 93.4154 197.575 97.0024 200.096 100.945C202.527 104.827 204.443 109.008 205.798 113.383C206.175 114.612 206.538 115.84 206.859 117.083C207.18 118.325 207.425 119.623 207.739 120.887C207.739 121.012 207.969 121.075 207.969 120.887C207.91 119.67 207.761 118.459 207.522 117.264Z" fill="black"/>
<path d="M211.075 104.204C205.715 105.859 201.736 101.678 203.111 95.1304C204.486 88.5832 211.382 81.2891 213.986 83.2644C215.612 81.6381 219.193 82.2244 220.875 87.5502C222.557 92.8759 221.029 106.529 211.075 104.204Z" fill="#486A1A"/>
<path d="M214.223 87.2501C212.701 91.0686 211.507 95.0104 210.656 99.0323C209.735 103.107 209.036 107.229 208.562 111.38C207.695 119.411 207.336 127.489 207.488 135.566C207.488 137.799 207.515 140.033 207.571 142.266C207.62 144.563 207.571 146.887 207.781 149.17C207.857 150.049 209.1 149.819 209.121 149.009C209.198 144.996 208.974 140.961 208.932 136.941C208.89 132.92 208.932 128.99 209.009 125.019C209.149 116.924 209.874 108.851 211.18 100.861C211.564 98.6344 211.983 96.4148 212.506 94.2161C213.051 91.9057 213.721 89.6303 214.328 87.3338C214.377 87.2501 214.286 87.0965 214.223 87.2501Z" fill="#BFC783"/>
<path opacity="0.1" d="M214.223 87.2501C212.701 91.0686 211.507 95.0104 210.656 99.0323C209.735 103.107 209.036 107.229 208.562 111.38C207.695 119.411 207.336 127.489 207.488 135.566C207.488 137.799 207.515 140.033 207.571 142.266C207.62 144.563 207.571 146.887 207.781 149.17C207.857 150.049 209.1 149.819 209.121 149.009C209.198 144.996 208.974 140.961 208.932 136.941C208.89 132.92 208.932 128.99 209.009 125.019C209.149 116.924 209.874 108.851 211.18 100.861C211.564 98.6344 211.983 96.4148 212.506 94.2161C213.051 91.9057 213.721 89.6303 214.328 87.3338C214.377 87.2501 214.286 87.0965 214.223 87.2501Z" fill="black"/>
<path d="M201.108 122.15C199.558 125.333 194.323 126.547 189.591 122.946C184.858 119.344 177.99 102.801 183.197 102.536C183.595 99.9606 198.609 101.713 203.439 112.413C206.964 120.196 201.108 122.15 201.108 122.15Z" fill="#486A1A"/>
<path d="M207.39 129.13C206.943 128.118 206.43 127.136 205.854 126.191C204.709 124.246 203.465 122.362 202.127 120.545C199.377 116.853 196.257 113.452 192.815 110.396C190.937 108.642 188.948 107.01 186.862 105.51C186.806 105.475 186.799 105.6 186.862 105.635C188.551 107.031 190.254 108.427 191.845 109.984C193.493 111.581 195.058 113.261 196.536 115.016C199.4 118.373 201.998 121.948 204.305 125.71C204.954 126.778 205.554 127.881 206.217 128.942C206.88 130.003 207.683 131.098 208.311 132.229C208.402 132.397 208.646 132.397 208.555 132.166C208.151 131.224 207.822 130.142 207.39 129.13Z" fill="#BFC783"/>
<path opacity="0.1" d="M207.39 129.13C206.943 128.118 206.43 127.136 205.854 126.191C204.709 124.246 203.465 122.362 202.127 120.545C199.377 116.853 196.257 113.452 192.815 110.396C190.937 108.642 188.948 107.01 186.862 105.51C186.806 105.475 186.799 105.6 186.862 105.635C188.551 107.031 190.254 108.427 191.845 109.984C193.493 111.581 195.058 113.261 196.536 115.016C199.4 118.373 201.998 121.948 204.305 125.71C204.954 126.778 205.554 127.881 206.217 128.942C206.88 130.003 207.683 131.098 208.311 132.229C208.402 132.397 208.646 132.397 208.555 132.166C208.151 131.224 207.822 130.142 207.39 129.13Z" fill="black"/>
<path d="M210.922 120.817C207.857 120.119 207.704 116.434 211.536 111.924C215.368 107.415 225.014 105.44 225.496 107.339C227.639 107.339 227.639 114.053 222.892 120.224C218.146 126.394 211.208 124.942 210.922 120.817Z" fill="#486A1A"/>
<path d="M216.924 114.249C212.866 117.066 209.772 121.062 208.06 125.696C207.955 125.954 208.409 126.338 208.521 126.052C210.256 121.47 213.161 117.423 216.945 114.312C216.945 114.312 216.966 114.221 216.924 114.249Z" fill="#BFC783"/>
<path opacity="0.1" d="M216.924 114.249C212.866 117.066 209.772 121.062 208.06 125.696C207.955 125.954 208.409 126.338 208.521 126.052C210.256 121.47 213.161 117.423 216.945 114.312C216.945 114.312 216.966 114.221 216.924 114.249Z" fill="black"/>
<path d="M214.426 143.23C210.182 144.947 211.997 150 216.143 153.839C220.289 157.678 226.208 158.683 229.056 158.481C231.903 158.279 232.629 157.895 232.629 157.895C232.629 157.895 233.083 153.525 232.629 150.866C232.173 148.3 230.987 145.919 229.213 144.009C227.439 142.099 225.153 140.741 222.627 140.096C216.01 138.309 214.426 140.703 214.426 143.23Z" fill="#486A1A"/>
<path d="M226.152 150.691C224.253 148.415 222.069 146.392 219.654 144.674C217.239 143.09 214.014 141.729 211.117 142.72C209.993 143.104 208.248 144.221 208.458 145.617C208.458 145.749 208.723 146.098 208.89 145.903C209.339 145.26 209.851 144.663 210.419 144.123C211.085 143.633 211.872 143.334 212.695 143.257C214.769 143.112 216.841 143.583 218.648 144.612C221.517 146.133 223.835 148.492 226.117 150.754C226.152 150.768 226.187 150.712 226.152 150.691Z" fill="#BFC783"/>
<path opacity="0.1" d="M226.152 150.691C224.253 148.415 222.069 146.392 219.654 144.674C217.239 143.09 214.014 141.729 211.117 142.72C209.993 143.104 208.248 144.221 208.458 145.617C208.458 145.749 208.723 146.098 208.89 145.903C209.339 145.26 209.851 144.663 210.419 144.123C211.085 143.633 211.872 143.334 212.695 143.257C214.769 143.112 216.841 143.583 218.648 144.612C221.517 146.133 223.835 148.492 226.117 150.754C226.152 150.768 226.187 150.712 226.152 150.691Z" fill="black"/>
<path d="M198.295 126.638C198.337 124.837 195.077 121.145 187.127 121.752C183.497 122.045 180.147 123.023 177.501 125.591C176.568 126.426 175.948 127.553 175.742 128.788C175.665 129.262 175.73 129.748 175.931 130.184C176.105 130.492 176.343 130.758 176.629 130.966C178.527 132.501 181.005 132.097 183.246 132.669C186.736 133.555 194.023 136.717 198.232 134.609C202.441 132.501 200.815 127.957 198.295 126.638Z" fill="#486A1A"/>
<path d="M205.338 131.594C200.794 125.396 191.929 124.872 184.998 126.184C182.718 126.605 180.5 127.308 178.395 128.278C178.395 128.278 178.395 128.369 178.395 128.355C182.016 127.038 185.823 126.301 189.675 126.17C193.474 125.974 197.266 126.692 200.731 128.264C202.431 129.119 203.943 130.306 205.177 131.754C205.331 131.922 205.428 131.72 205.338 131.594Z" fill="#BFC783"/>
<path opacity="0.1" d="M205.338 131.594C200.794 125.396 191.929 124.872 184.998 126.184C182.718 126.605 180.5 127.308 178.395 128.278C178.395 128.278 178.395 128.369 178.395 128.355C182.016 127.038 185.823 126.301 189.675 126.17C193.474 125.974 197.266 126.692 200.731 128.264C202.431 129.119 203.943 130.306 205.177 131.754C205.331 131.922 205.428 131.72 205.338 131.594Z" fill="black"/>
<path d="M218.537 111.345C218.425 114.388 222.725 116.154 226.85 113.523C230.975 110.891 235.338 108.33 239.177 107.338C243.016 106.347 244.838 103.213 243.623 101.699C242.408 100.184 240.482 96.3589 230.361 97.6083C220.24 98.8578 216.687 103.409 215.305 106.62C213.923 109.83 217.015 112.224 218.537 111.345Z" fill="#486A1A"/>
<path d="M234.968 101.685C233.507 101.545 232.033 101.7 230.633 102.138C229.359 102.468 228.119 102.914 226.927 103.472C224.559 104.579 222.427 106.131 220.645 108.044C220.142 108.582 219.676 109.153 219.249 109.754C218.806 110.288 218.442 110.883 218.167 111.52C218.104 111.722 218.39 112.05 218.572 111.841C219.067 111.268 219.444 110.563 219.912 109.956C220.417 109.305 220.96 108.685 221.538 108.099C222.705 106.923 224.01 105.894 225.426 105.035C226.791 104.196 228.236 103.494 229.74 102.941C230.564 102.648 231.403 102.396 232.253 102.187C233.141 101.917 234.067 101.788 234.996 101.803C234.989 101.803 235.01 101.692 234.968 101.685Z" fill="#BFC783"/>
<path opacity="0.1" d="M234.968 101.685C233.507 101.545 232.033 101.7 230.633 102.138C229.359 102.468 228.119 102.914 226.927 103.472C224.559 104.579 222.427 106.131 220.645 108.044C220.142 108.582 219.676 109.153 219.249 109.754C218.806 110.288 218.442 110.883 218.167 111.52C218.104 111.722 218.39 112.05 218.572 111.841C219.067 111.268 219.444 110.563 219.912 109.956C220.417 109.305 220.96 108.685 221.538 108.099C222.705 106.923 224.01 105.894 225.426 105.035C226.791 104.196 228.236 103.494 229.74 102.941C230.564 102.648 231.403 102.396 232.253 102.187C233.141 101.917 234.067 101.788 234.996 101.803C234.989 101.803 235.01 101.692 234.968 101.685Z" fill="black"/>
<path d="M211.292 127.769C209.896 126.373 206.036 126.68 204.221 130.861C202.406 135.042 206.217 139.614 206.643 140.905C208.395 139.893 209.763 140.494 212.848 139.893C214.567 139.489 216.095 138.505 217.173 137.107C218.251 135.708 218.814 133.981 218.767 132.215C218.565 128.376 216.952 125.85 211.292 127.769Z" fill="#486A1A"/>
<path d="M211.236 127.35C210.469 127.838 209.828 128.501 209.365 129.284C208.862 130.011 208.454 130.799 208.151 131.629C207.49 133.322 207.304 135.164 207.613 136.955C207.613 137.024 207.683 136.955 207.683 136.92C207.539 135.118 207.846 133.31 208.576 131.657C208.918 130.912 209.344 130.21 209.847 129.563C210.112 129.217 210.399 128.889 210.705 128.579C210.997 128.325 211.261 128.042 211.494 127.734C211.613 127.587 211.452 127.245 211.236 127.35Z" fill="#BFC783"/>
<path opacity="0.1" d="M211.236 127.35C210.469 127.838 209.828 128.501 209.365 129.284C208.862 130.011 208.454 130.799 208.151 131.629C207.49 133.322 207.304 135.164 207.613 136.955C207.613 137.024 207.683 136.955 207.683 136.92C207.539 135.118 207.846 133.31 208.576 131.657C208.918 130.912 209.344 130.21 209.847 129.563C210.112 129.217 210.399 128.889 210.705 128.579C210.997 128.325 211.261 128.042 211.494 127.734C211.613 127.587 211.452 127.245 211.236 127.35Z" fill="black"/>
<path d="M205.456 139C204.668 135.984 200.85 134.295 195.859 133.925C193.398 133.702 190.924 134.182 188.726 135.31C186.527 136.439 184.695 138.168 183.441 140.298C180.831 144.758 179.749 148.311 181.347 148.897C182.946 149.484 189.64 150.412 193.967 150.796C198.295 151.18 203.704 150.398 207.229 147.111C210.754 143.823 209.589 139.691 205.456 139Z" fill="#486A1A"/>
<path d="M205.645 138.602C203.883 138.149 202.046 138.063 200.249 138.351C198.516 138.556 196.809 138.949 195.161 139.523C193.42 140.137 191.735 140.896 190.121 141.792C189.277 142.252 188.446 142.741 187.636 143.265C186.853 143.721 186.107 144.236 185.403 144.807C185.403 144.807 185.403 144.933 185.403 144.912C186.219 144.542 186.987 144.025 187.769 143.586C188.551 143.146 189.465 142.643 190.331 142.19C191.939 141.368 193.608 140.668 195.321 140.096C197.039 139.519 198.816 139.137 200.619 138.958C202.305 138.87 203.994 138.914 205.673 139.091C206.05 139.104 205.847 138.672 205.645 138.602Z" fill="#BFC783"/>
<path opacity="0.1" d="M205.645 138.602C203.883 138.149 202.046 138.063 200.249 138.351C198.516 138.556 196.809 138.949 195.161 139.523C193.42 140.137 191.735 140.896 190.121 141.792C189.277 142.252 188.446 142.741 187.636 143.265C186.853 143.721 186.107 144.236 185.403 144.807C185.403 144.807 185.403 144.933 185.403 144.912C186.219 144.542 186.987 144.025 187.769 143.586C188.551 143.146 189.465 142.643 190.331 142.19C191.939 141.368 193.608 140.668 195.321 140.096C197.039 139.519 198.816 139.137 200.619 138.958C202.305 138.87 203.994 138.914 205.673 139.091C206.05 139.104 205.847 138.672 205.645 138.602Z" fill="black"/>
<path d="M214.53 131.608C211.103 128.879 212.248 122.346 224.254 121.997C236.259 121.648 244.824 124.789 244.447 128.641C246.373 130.568 245.396 135.984 235.68 137.674C225.964 139.363 212.059 138.518 214.53 131.608Z" fill="#486A1A"/>
<path d="M238.8 128.683C235.258 128.101 231.664 127.891 228.079 128.055C224.743 128.035 221.418 128.417 218.174 129.193C217.346 129.42 216.54 129.721 215.766 130.093C215.405 130.26 215.053 130.446 214.712 130.652C214.44 130.819 214.133 130.966 214.014 131.28C214.005 131.33 214.008 131.381 214.022 131.43C214.036 131.479 214.062 131.523 214.096 131.56C214.131 131.598 214.173 131.626 214.221 131.644C214.268 131.662 214.319 131.669 214.37 131.664C215.098 131.382 215.799 131.034 216.464 130.624C217.144 130.325 217.844 130.074 218.558 129.87C219.929 129.48 221.329 129.204 222.746 129.046C226.107 128.627 229.494 128.44 232.881 128.488C234.849 128.488 236.818 128.662 238.779 128.823C238.835 128.823 238.856 128.69 238.8 128.683Z" fill="#BFC783"/>
<path opacity="0.1" d="M238.8 128.683C235.258 128.101 231.664 127.891 228.079 128.055C224.743 128.035 221.418 128.417 218.174 129.193C217.346 129.42 216.54 129.721 215.766 130.093C215.405 130.26 215.053 130.446 214.712 130.652C214.44 130.819 214.133 130.966 214.014 131.28C214.005 131.33 214.008 131.381 214.022 131.43C214.036 131.479 214.062 131.523 214.096 131.56C214.131 131.598 214.173 131.626 214.221 131.644C214.268 131.662 214.319 131.669 214.37 131.664C215.098 131.382 215.799 131.034 216.464 130.624C217.144 130.325 217.844 130.074 218.558 129.87C219.929 129.48 221.329 129.204 222.746 129.046C226.107 128.627 229.494 128.44 232.881 128.488C234.849 128.488 236.818 128.662 238.779 128.823C238.835 128.823 238.856 128.69 238.8 128.683Z" fill="black"/>
<path d="M52.4965 233.181L49.7045 247.043L46.9893 248.614L44.295 247.057L41.4751 233.181L46.9893 229.998L52.4965 233.181Z" fill="#E0E0E0"/>
<path opacity="0.05" d="M52.4965 233.181L49.7045 247.043L46.9893 248.614L44.295 247.057L41.4751 233.181L46.9893 229.998L52.4965 233.181Z" fill="black"/>
<path d="M46.9893 248.614V236.364L52.4965 233.181L49.7045 247.043L46.9893 248.614Z" fill="#EBEBEB"/>
<path opacity="0.05" d="M52.4965 233.181L50.6957 242.136L46.9893 244.272L43.2969 242.143L41.4751 233.181L46.9893 229.998L52.4965 233.181Z" fill="black"/>
<path d="M28.269 219.193L25.47 233.055L22.7548 234.626L20.0605 233.069L17.2476 219.193L22.7548 216.01L28.269 219.193Z" fill="#E0E0E0"/>
<path opacity="0.05" d="M28.269 219.193L25.47 233.055L22.7548 234.626L20.0605 233.069L17.2476 219.193L22.7548 216.01L28.269 219.193Z" fill="black"/>
<path d="M22.7546 234.626V222.376L28.2688 219.193L25.4699 233.055L22.7546 234.626Z" fill="#EBEBEB"/>
<path opacity="0.05" d="M28.269 219.193L26.4612 228.148L22.7548 230.284L19.0624 228.155L17.2476 219.193L22.7548 216.01L28.269 219.193Z" fill="black"/>
<path opacity="0.05" d="M124.174 191.796L121.382 205.659L118.667 207.229L115.973 205.673L113.153 191.796L118.667 188.614L124.174 191.796Z" fill="black"/>
<path d="M118.667 207.229V194.979L124.174 191.796L121.382 205.659L118.667 207.229Z" fill="#EBEBEB"/>
<path opacity="0.05" d="M124.174 191.796L122.373 200.752L118.667 202.888L114.974 200.759L113.153 191.796L118.667 188.614L124.174 191.796Z" fill="black"/>
<path d="M46.9893 242.039L16.9543 224.7V159.709L46.9823 177.048L46.9893 242.039Z" fill="#E0E0E0"/>
<path d="M46.9824 177.048L125.738 131.573V196.571L46.9894 242.038L46.9824 177.048Z" fill="#EBEBEB"/>
<path d="M125.738 131.573L46.9823 177.048L16.9543 159.709L95.7097 114.242L125.738 131.573Z" fill="#F5F5F5"/>
<path d="M51.2749 209.239L121.445 168.728V192.578L122.234 193.039L52.0636 233.551L51.2749 233.09V209.239Z" fill="#E0E0E0"/>
<path d="M52.0637 209.7L122.234 169.181V193.039L52.0637 233.551V209.7Z" fill="#F5F5F5"/>
<path d="M85.7981 194.742L91.6334 191.371C92.3942 190.931 93.0294 191.133 93.0294 191.817C92.9707 192.241 92.814 192.646 92.5717 192.998C92.3293 193.351 92.008 193.642 91.6334 193.849L85.7981 197.22C85.0443 197.653 84.4021 197.457 84.4021 196.773C84.4602 196.349 84.6167 195.945 84.8591 195.592C85.1015 195.239 85.4231 194.948 85.7981 194.742Z" fill="#E0E0E0"/>
<path d="M51.2749 180.44L121.445 139.928V163.779L122.234 164.233L52.0636 204.744L51.2749 204.291V180.44Z" fill="#E0E0E0"/>
<path d="M52.0637 180.894L122.234 140.382V164.232L52.0637 204.744V180.894Z" fill="#F5F5F5"/>
<path d="M85.7981 165.929L91.6334 162.557C92.3942 162.117 93.0294 162.32 93.0294 163.004C92.9707 163.428 92.814 163.832 92.5717 164.185C92.3293 164.537 92.008 164.828 91.6334 165.035L85.7981 168.399C85.0443 168.839 84.4021 168.637 84.4021 167.96C84.4602 167.536 84.6167 167.131 84.8591 166.779C85.1015 166.426 85.4231 166.135 85.7981 165.929Z" fill="#E0E0E0"/>
<path d="M93.4552 133.527C97.0987 135.621 97.0987 139.035 93.4552 141.136C89.8116 143.237 83.9135 143.23 80.27 141.136C76.6264 139.042 76.6334 135.628 80.27 133.527C83.9065 131.426 89.8116 131.426 93.4552 133.527Z" fill="#E0E0E0"/>
<path d="M81.0657 137.799C77.8968 134.567 76.0331 126.491 79.1253 123.923H94.8582C97.9503 126.491 96.0936 134.56 92.9247 137.799C92.8927 137.828 92.8624 137.858 92.834 137.89L92.7293 137.995C92.6385 138.078 92.5408 138.169 92.4431 138.246L92.3663 138.309L92.122 138.49C91.9919 138.584 91.8568 138.67 91.7172 138.748C90.254 139.491 88.6362 139.879 86.9952 139.879C85.3542 139.879 83.7364 139.491 82.2732 138.748C82.1336 138.672 81.994 138.581 81.8614 138.49C81.7288 138.399 81.7079 138.378 81.6381 138.323L81.5403 138.246C81.4426 138.162 81.3519 138.085 81.2681 138.002L81.1425 137.876C81.1135 137.854 81.0877 137.828 81.0657 137.799Z" fill="#EBEBEB"/>
<path d="M93.49 122.89C97.0847 124.984 97.0847 128.32 93.49 130.393C89.8953 132.467 84.081 132.487 80.4933 130.393C76.9056 128.299 76.9056 124.963 80.4933 122.89C84.081 120.817 89.9023 120.817 93.49 122.89Z" fill="#FAFAFA"/>
<path d="M90.9494 124.363C93.1341 125.619 93.1341 127.664 90.9494 128.928C89.7243 129.55 88.3695 129.875 86.9952 129.875C85.6209 129.875 84.2661 129.55 83.041 128.928C80.8563 127.664 80.8563 125.619 83.041 124.363C84.2661 123.74 85.6209 123.415 86.9952 123.415C88.3695 123.415 89.7243 123.74 90.9494 124.363Z" fill="#F5F5F5"/>
<path d="M83.062 126.527C84.288 125.907 85.6425 125.584 87.0162 125.584C88.3898 125.584 89.7443 125.907 90.9703 126.527C91.5001 126.81 91.9492 127.223 92.2756 127.727C91.9492 128.231 91.5001 128.645 90.9703 128.928C89.7453 129.551 88.3904 129.875 87.0162 129.875C85.6419 129.875 84.287 129.551 83.062 128.928C82.5318 128.643 82.0808 128.23 81.7498 127.727C82.0808 127.224 82.5318 126.812 83.062 126.527Z" fill="#EBEBEB"/>
<path d="M90.4677 127.734C91.5852 126.598 92.5475 125.319 93.3295 123.93C94.6488 121.599 94.8931 118.465 94.209 118.081C93.525 117.697 90.719 120.817 90.719 120.817C90.9715 119.502 91.0699 118.162 91.0122 116.824C90.8935 114.73 90.384 112.86 89.7907 112.476C89.1974 112.092 87.8642 114.716 87.2918 116.622C86.7195 118.527 86.3775 120.112 86.3775 120.112C86.1473 118.629 85.8043 117.166 85.3514 115.735C84.6534 113.76 84.0322 113.313 83.5436 113.509C83.055 113.704 82.7339 114.626 82.5873 117.257C82.5369 118.512 82.5766 119.77 82.706 121.019C82.706 121.019 81.7288 119.944 80.612 118.925C79.4952 117.906 78.9019 117.62 78.5599 117.836C78.2178 118.053 78.1271 119.847 79.9559 123.19C80.8741 124.895 82.0515 126.446 83.4459 127.79C83.4459 127.79 86.0913 129.381 90.4677 127.734Z" fill="#486A1A"/>
<path d="M44.8464 163.911L46.0191 164.47L67.678 151.969L66.5054 151.403L44.8464 163.911Z" fill="#FAFAFA"/>
<path d="M66.5054 151.403L45.9074 163.297L42.906 132.48L63.511 120.594L66.5054 151.403Z" fill="white"/>
<path d="M66.3448 116.65L40.7073 131.454L44.2392 167.799L69.8837 152.995L66.3448 116.65ZM67.7059 151.969L46.0679 164.47L42.906 132.481L64.544 119.979L67.7059 151.969Z" fill="#F0F0F0"/>
<path d="M67.678 151.969L66.5054 151.403L63.511 120.594L64.565 119.979L67.678 151.969Z" fill="#E0E0E0"/>
<path d="M66.3449 116.65L65.1583 116.105L39.5208 130.903L40.7074 131.454L66.3449 116.65Z" fill="#FAFAFA"/>
<path d="M39.5208 130.903L40.7074 131.455L44.2392 167.799L43.0526 167.255L39.5208 130.903Z" fill="#E0E0E0"/>
<path d="M65.5979 150.817L46.6053 161.783L46.1028 156.596L49.6347 141.345L53.006 146.545L52.308 150.929L57.9199 134.749L65.0954 145.631L65.5979 150.817Z" fill="#F0F0F0"/>
<path d="M49.3414 134.923C48.9459 135.171 48.622 135.518 48.4017 135.929C48.1813 136.341 48.0721 136.802 48.085 137.269C48.1688 138.12 48.8668 138.441 49.6415 137.967C50.0375 137.72 50.3618 137.373 50.5822 136.961C50.8026 136.55 50.9115 136.088 50.8979 135.621C50.8142 134.798 50.1162 134.477 49.3414 134.923Z" fill="#F0F0F0"/>
<path d="M327.439 227.073L289.782 248.809L227.018 212.576L264.675 190.833L327.439 227.073Z" fill="#F5F5F5"/>
<path d="M289.782 248.809V251.713L227.018 215.473V212.576L289.782 248.809Z" fill="#EBEBEB"/>
<path d="M327.439 227.073L289.782 248.809V251.713L327.439 229.97V227.073Z" fill="#E0E0E0"/>
<path d="M286.655 215.012L289.782 216.813V251.713L286.655 249.905V215.012Z" fill="#EBEBEB"/>
<path d="M292.902 215.012L289.782 216.813V251.713L292.902 249.905V215.012Z" fill="#E0E0E0"/>
<path d="M261.576 157.762L264.703 159.563V194.463L261.576 192.662V157.762Z" fill="#F0F0F0"/>
<path d="M267.823 157.762L264.703 159.563V194.463L267.823 192.662V157.762Z" fill="#E0E0E0"/>
<path d="M327.439 195.077L324.312 196.885V231.778L327.439 229.977V195.077Z" fill="#E0E0E0"/>
<path d="M321.192 198.679L324.312 196.885V228.874L321.192 227.073V198.679Z" fill="#F0F0F0"/>
<path d="M227.025 180.58L230.145 182.387V217.287L227.025 215.48V180.58Z" fill="#EBEBEB"/>
<path d="M233.272 184.181L230.145 182.387V214.377L233.272 212.576V184.181Z" fill="#E0E0E0"/>
<path d="M327.439 192.18L289.782 213.916L227.018 177.683L264.675 155.94L327.439 192.18Z" fill="#F5F5F5"/>
<path d="M289.782 213.916V216.82L227.018 180.58V177.683L289.782 213.916Z" fill="#EBEBEB"/>
<path d="M327.439 192.18L289.782 213.916V216.82L327.439 195.077V192.18Z" fill="#E0E0E0"/>
<path d="M327.439 163.332L289.782 185.068L227.025 148.834L264.675 127.092L327.439 163.332Z" fill="#FAFAFA"/>
<path d="M264.682 127.985L325.903 163.332L289.782 184.181L228.56 148.834L264.682 127.985ZM264.682 127.092L227.025 148.834L289.782 185.068L327.439 163.332L264.682 127.092Z" fill="#E0E0E0"/>
<path d="M289.782 185.068V187.971L227.025 151.731V148.834L289.782 185.068Z" fill="#EBEBEB"/>
<path d="M327.439 163.332L289.782 185.068V187.971L327.439 166.229V163.332Z" fill="#E0E0E0"/>
<path d="M286.655 186.156L289.782 187.964V216.82L286.655 215.012V186.156Z" fill="#EBEBEB"/>
<path d="M292.902 186.156L289.782 187.964V216.82L292.902 215.012V186.156Z" fill="#E0E0E0"/>
<path d="M327.439 166.229L324.312 168.037V196.885L327.439 195.084V166.229Z" fill="#E0E0E0"/>
<path d="M321.192 169.83L324.312 168.036V193.981L321.192 192.18V169.83Z" fill="#F0F0F0"/>
<path d="M227.025 151.731L230.145 153.539V182.394L227.025 180.587V151.731Z" fill="#EBEBEB"/>
<path d="M233.272 155.333L230.145 153.539V179.484L233.272 177.683V155.333Z" fill="#E0E0E0"/>
<path d="M286.655 249.905L289.782 251.706V263.844L286.655 262.043V249.905Z" fill="#EBEBEB"/>
<path d="M292.902 249.905L289.782 251.706V263.844L292.902 262.043V249.905Z" fill="#E0E0E0"/>
<path d="M327.439 229.977L324.312 231.778V243.916L327.439 242.115V229.977Z" fill="#E0E0E0"/>
<path d="M321.192 233.572L324.312 231.778V243.916L321.192 242.115V233.572Z" fill="#F0F0F0"/>
<path d="M227.025 215.479L230.145 217.28V229.426L227.025 227.625V215.479Z" fill="#EBEBEB"/>
<path d="M233.272 219.081L230.145 217.28V229.425L233.272 227.618V219.081Z" fill="#E0E0E0"/>
<path d="M315.342 160.98L285.098 178.255C284.996 178.32 284.877 178.352 284.756 178.346C284.633 178.352 284.51 178.326 284.4 178.269L246.876 156.631C246.834 156.614 246.797 156.584 246.772 156.546C246.747 156.509 246.733 156.464 246.733 156.418C246.733 156.373 246.747 156.328 246.772 156.29C246.797 156.252 246.834 156.223 246.876 156.206L277.106 138.902L315.342 160.98Z" fill="#E0E0E0"/>
<path d="M249.109 156.122C249.122 156.229 249.159 156.333 249.218 156.424C249.278 156.515 249.357 156.59 249.451 156.645L284.484 176.887C284.581 176.936 284.689 176.962 284.798 176.962C284.907 176.962 285.015 176.936 285.112 176.887L312.453 161.238L312.418 160.54L276.75 139.949L249.395 155.591C249.311 155.653 249.242 155.732 249.192 155.824C249.143 155.916 249.114 156.017 249.109 156.122Z" fill="#455A64"/>
<path d="M312.418 160.54L285.077 176.154C284.986 176.214 284.879 176.243 284.77 176.238C284.659 176.245 284.548 176.221 284.449 176.168L249.416 155.926C249.379 155.91 249.347 155.883 249.325 155.849C249.303 155.815 249.291 155.775 249.291 155.734C249.291 155.694 249.303 155.654 249.325 155.62C249.347 155.586 249.379 155.559 249.416 155.542L276.771 139.928L312.418 160.54Z" fill="#37474F"/>
<path d="M312.418 160.54L312.453 161.238L285.112 176.852C285.018 176.905 284.913 176.934 284.805 176.936V176.273C284.914 176.278 285.021 176.248 285.112 176.189L312.418 160.54Z" fill="#263238"/>
<path d="M312.006 160.84L276.324 140.256L275.878 131.524L311.559 152.213L312.006 160.84Z" fill="#455A64"/>
<path d="M249.256 151.417C249.15 151.501 249.063 151.606 249.003 151.727C248.943 151.848 248.91 151.98 248.907 152.115L248.998 153.881C249.013 154.022 249.058 154.157 249.132 154.278C249.206 154.399 249.305 154.501 249.423 154.579L284.323 174.702C284.443 174.768 284.578 174.802 284.714 174.802C284.851 174.802 284.985 174.768 285.105 174.702L308.237 160.582L308.097 157.853L272.429 137.262L249.256 151.417Z" fill="#EBEBEB"/>
<path d="M272.402 137.29L249.256 151.417C249.21 151.439 249.171 151.473 249.144 151.515C249.116 151.558 249.102 151.607 249.102 151.658C249.102 151.709 249.116 151.758 249.144 151.801C249.171 151.844 249.21 151.878 249.256 151.899L284.156 172.022C284.276 172.086 284.411 172.119 284.547 172.119C284.683 172.119 284.817 172.086 284.938 172.022L308.069 157.895L272.402 137.29Z" fill="#FAFAFA"/>
<path d="M305.026 158.16C305.109 158.205 305.198 158.235 305.291 158.251C305.431 158.289 305.578 158.289 305.717 158.251C305.762 158.241 305.805 158.222 305.843 158.195C306.052 158.069 306.017 157.839 305.759 157.692C305.642 157.631 305.514 157.596 305.382 157.587C305.23 157.569 305.077 157.598 304.942 157.671C304.929 157.667 304.914 157.667 304.9 157.671C304.761 157.832 304.803 158.02 305.026 158.16Z" fill="#263238"/>
<path d="M284.554 172.106L284.693 174.835C284.555 174.838 284.419 174.807 284.295 174.744L249.395 154.628C249.281 154.548 249.184 154.444 249.112 154.324C249.04 154.203 248.994 154.069 248.977 153.93L248.907 152.164C248.9 152.034 248.922 151.905 248.97 151.785C249.018 151.664 249.092 151.555 249.186 151.466C249.074 151.599 249.109 151.759 249.298 151.871L284.198 171.987C284.303 172.059 284.426 172.1 284.554 172.106Z" fill="#E6E6E6"/>
<path d="M309.026 154.307C308.774 154.169 308.487 154.108 308.201 154.13C307.914 154.152 307.641 154.257 307.413 154.433C306.333 155.309 305.611 156.55 305.382 157.923L305.92 157.999C306.125 156.784 306.759 155.682 307.706 154.893C307.901 154.76 308.127 154.681 308.363 154.663C308.51 154.66 308.655 154.699 308.781 154.775C309.046 155.014 309.25 155.313 309.378 155.647C309.505 155.98 309.552 156.339 309.514 156.694C309.556 158.502 308.684 160.568 307.574 161.294C307.344 161.461 307.062 161.541 306.778 161.517L306.22 161.88H306.255C306.464 162.01 306.707 162.075 306.953 162.069C307.283 162.053 307.602 161.944 307.874 161.755C309.144 160.924 310.108 158.697 310.059 156.68C310.017 155.556 309.647 154.677 309.026 154.307Z" fill="#263238"/>
<path d="M248.83 150.58C248.843 150.686 248.88 150.787 248.938 150.877C248.996 150.966 249.074 151.041 249.165 151.096L284.205 171.338C284.3 171.389 284.407 171.416 284.515 171.416C284.624 171.416 284.73 171.389 284.826 171.338L312.006 152.541L311.971 151.878L276.303 131.287L249.116 150.07C249.035 150.129 248.967 150.205 248.917 150.293C248.868 150.381 248.838 150.479 248.83 150.58Z" fill="#37474F"/>
<path d="M312.006 151.878L284.784 170.64C284.687 170.692 284.58 170.721 284.47 170.724C284.361 170.731 284.252 170.706 284.156 170.654L249.123 150.412C248.942 150.307 248.935 150.133 249.123 150.028L276.345 131.266L312.006 151.878Z" fill="#455A64"/>
<path d="M312.006 151.878L312.041 152.541L284.868 171.303C284.772 171.357 284.663 171.384 284.554 171.38L284.519 170.724C284.629 170.721 284.736 170.692 284.833 170.64L312.006 151.878Z" fill="#263238"/>
<path d="M312.418 160.568L311.978 151.892L311.559 152.213L312.006 160.84L312.418 160.568Z" fill="#263238"/>
<path d="M310.952 151.766C311.035 151.724 311.104 151.661 311.152 151.582C311.2 151.503 311.225 151.412 311.224 151.319C311.224 151.159 311.224 150.621 311.224 150.621L276.75 131.126C276.53 131.006 276.282 130.943 276.031 130.943C275.78 130.943 275.533 131.006 275.312 131.126L248.432 148.674L284.086 169.258L310.952 151.766Z" fill="#344E41"/>
<path opacity="0.2" d="M310.952 151.766C311.035 151.724 311.104 151.661 311.152 151.582C311.2 151.503 311.225 151.412 311.224 151.319C311.224 151.159 311.224 150.621 311.224 150.621L276.75 131.126C276.53 131.006 276.282 130.943 276.031 130.943C275.78 130.943 275.533 131.006 275.312 131.126L248.432 148.674L284.086 169.258L310.952 151.766Z" fill="black"/>
<path d="M310.917 151.103C311.003 151.064 311.075 150.999 311.125 150.918C311.174 150.838 311.198 150.744 311.193 150.649C311.189 150.555 311.156 150.464 311.099 150.388C311.043 150.312 310.965 150.255 310.875 150.224L276.673 130.484C276.452 130.366 276.205 130.304 275.954 130.304C275.703 130.304 275.456 130.366 275.235 130.484L248.383 147.983L284.086 168.602L310.917 151.103Z" fill="#344E41"/>
<path opacity="0.5" d="M310.917 151.103C311.003 151.064 311.075 150.999 311.125 150.918C311.174 150.838 311.198 150.744 311.193 150.649C311.189 150.555 311.156 150.464 311.099 150.388C311.043 150.312 310.965 150.255 310.875 150.224L276.673 130.484C276.452 130.366 276.205 130.304 275.954 130.304C275.703 130.304 275.456 130.366 275.235 130.484L248.383 147.983L284.086 168.602L310.917 151.103Z" fill="black"/>
<path d="M254.554 143.453L274.433 130.526C274.654 130.407 274.901 130.345 275.152 130.345C275.403 130.345 275.65 130.407 275.871 130.526L307.609 148.855L310.198 147.152L310.366 150.51L310.317 150.545C310.367 150.653 310.373 150.777 310.332 150.889C310.292 151.002 310.208 151.094 310.101 151.145L287.339 165.977L251.657 145.393L251.469 141.722L254.554 143.453Z" fill="#EBEBEB"/>
<path d="M309.912 147.432C309.998 147.392 310.07 147.328 310.119 147.247C310.169 147.166 310.193 147.072 310.188 146.978C310.184 146.883 310.151 146.792 310.094 146.716C310.038 146.64 309.96 146.583 309.87 146.552L275.668 126.813C275.447 126.694 275.2 126.632 274.949 126.632C274.698 126.632 274.451 126.694 274.23 126.813L251.469 141.694L287.15 162.285L309.912 147.432Z" fill="#FAFAFA"/>
<path d="M287.15 162.264L287.332 165.929L251.657 145.345L251.469 141.673L287.15 162.264Z" fill="#E6E6E6"/>
<path d="M286.697 160.833C286.781 160.881 286.873 160.914 286.969 160.931C287.106 160.97 287.251 160.97 287.388 160.931C287.435 160.923 287.481 160.903 287.52 160.875C287.73 160.749 287.688 160.519 287.436 160.379C287.318 160.314 287.187 160.276 287.053 160.268C286.9 160.249 286.745 160.281 286.613 160.359C286.613 160.359 286.578 160.359 286.571 160.359C286.41 160.54 286.459 160.701 286.697 160.833Z" fill="#263238"/>
<path d="M283.221 163.772C283.227 164.227 283.376 164.669 283.646 165.035C283.771 165.195 283.931 165.323 284.114 165.409C284.297 165.496 284.498 165.537 284.7 165.531C285.052 165.52 285.393 165.403 285.677 165.196L285.852 165.084L285.433 164.84C284.484 165.44 283.681 164.959 283.618 163.765C283.612 163.127 283.755 162.497 284.034 161.924C284.314 161.351 284.724 160.851 285.231 160.463C285.412 160.307 285.64 160.214 285.879 160.198C286.118 160.181 286.356 160.243 286.557 160.373C286.749 160.509 286.889 160.706 286.955 160.931C287.092 160.97 287.237 160.97 287.374 160.931C287.314 160.688 287.199 160.461 287.039 160.268C286.913 160.11 286.752 159.984 286.569 159.899C286.386 159.814 286.186 159.773 285.985 159.779C285.631 159.793 285.289 159.91 285 160.114C284.436 160.54 283.98 161.093 283.671 161.729C283.361 162.365 283.207 163.065 283.221 163.772Z" fill="#263238"/>
<path d="M284.086 160.289L310.945 145.463V145.945C310.952 146.079 310.926 146.212 310.87 146.333C310.814 146.455 310.73 146.561 310.624 146.643L284.1 160.98L284.086 160.289Z" fill="#344E41"/>
<path opacity="0.2" d="M284.086 160.289L310.945 145.463V145.945C310.952 146.079 310.926 146.212 310.87 146.333C310.814 146.455 310.73 146.561 310.624 146.643L284.1 160.98L284.086 160.289Z" fill="black"/>
<path d="M310.652 145.882C310.738 145.843 310.81 145.778 310.859 145.697C310.909 145.616 310.932 145.523 310.928 145.428C310.923 145.334 310.891 145.243 310.834 145.167C310.777 145.091 310.699 145.034 310.61 145.003L276.408 125.291C276.188 125.171 275.94 125.108 275.689 125.108C275.438 125.108 275.191 125.171 274.97 125.291L247.979 139.949L283.667 160.54L310.652 145.882Z" fill="#344E41"/>
<path d="M284.114 169.258L248.432 148.674L247.992 139.942L283.667 160.54L284.114 169.258Z" fill="#344E41"/>
<path opacity="0.1" d="M284.114 169.258L248.432 148.674L247.992 139.942L283.667 160.54L284.114 169.258Z" fill="black"/>
<path d="M277.518 163.772C277.717 163.772 277.912 163.723 278.088 163.629C278.263 163.536 278.413 163.4 278.523 163.234C278.762 162.854 278.868 162.404 278.823 161.957C278.753 161.232 278.522 160.531 278.146 159.907C277.771 159.283 277.26 158.75 276.652 158.348C276.348 158.154 275.994 158.05 275.633 158.048C274.803 158.048 274.272 158.788 274.328 159.863C274.395 160.589 274.625 161.291 275.001 161.916C275.377 162.541 275.889 163.072 276.499 163.472C276.804 163.665 277.157 163.769 277.518 163.772Z" fill="#455A64"/>
<path d="M278.411 161.971C278.474 163.171 277.713 163.674 276.687 163.088C276.143 162.728 275.686 162.251 275.351 161.692C275.015 161.133 274.809 160.505 274.747 159.856C274.684 158.648 275.445 158.146 276.464 158.732C277.008 159.094 277.465 159.572 277.802 160.132C278.139 160.693 278.347 161.32 278.411 161.971Z" fill="#F5F5F5"/>
<path d="M271.738 157.699L271.773 158.362C271.836 159.682 270.992 160.233 269.882 159.591L252.892 149.819C252.298 149.42 251.798 148.894 251.429 148.28C251.06 147.666 250.83 146.979 250.757 146.266V145.603C250.687 144.284 251.531 143.732 252.641 144.375L269.631 154.181C270.216 154.58 270.707 155.101 271.071 155.709C271.435 156.316 271.663 156.995 271.738 157.699Z" fill="#F5F5F5"/>
<path d="M284.526 168.993L284.086 160.317L283.667 160.54L284.114 169.258L284.526 168.993Z" fill="#344E41"/>
<path opacity="0.2" d="M284.526 168.993L284.086 160.317L283.667 160.54L284.114 169.258L284.526 168.993Z" fill="black"/>
<path d="M60.7748 247.651H63.0433V240.671C62.9807 239.334 62.5988 238.032 61.9297 236.874C61.2605 235.715 60.3236 234.734 59.1973 234.012L47.0103 226.997C46.5257 226.623 45.9403 226.404 45.3297 226.367C44.7191 226.33 44.1115 226.477 43.5853 226.789C43.0591 227.101 42.6386 227.563 42.3782 228.117C42.1177 228.67 42.0293 229.289 42.1243 229.893L42.3406 237.02L44.6091 236.971L44.3997 229.845C44.3997 229.286 44.5184 228.86 44.7487 228.728C44.9791 228.595 45.4467 228.679 45.8935 228.958L58.0666 235.994C58.8492 236.516 59.5008 237.211 59.9706 238.026C60.4404 238.841 60.7156 239.753 60.7748 240.691V247.651Z" fill="#37474F"/>
<path d="M22.5873 273.246L25.0234 228.351C25.0854 227.767 25.2767 227.204 25.5833 226.703C25.89 226.202 26.3043 225.775 26.7963 225.454L28.1923 224.644C28.3692 224.516 28.5782 224.439 28.7962 224.421C29.0143 224.404 29.2328 224.448 29.4277 224.547L76.3403 251.636L69.8838 301.369L23.0341 274.314C22.8685 274.194 22.7392 274.031 22.6604 273.843C22.5816 273.655 22.5563 273.448 22.5873 273.246Z" fill="#37474F"/>
<path d="M78.0853 297.167L71.0076 301.257C70.0863 301.787 69.3883 301.362 69.4511 300.301L71.8941 255.405C71.9578 254.825 72.1492 254.267 72.4545 253.769C72.7599 253.272 73.1716 252.849 73.66 252.529L75.056 251.72C75.2214 251.58 75.4249 251.494 75.6401 251.473C75.8552 251.451 76.0719 251.494 76.2619 251.598C76.4518 251.701 76.6062 251.859 76.7049 252.051C76.8036 252.244 76.8419 252.462 76.815 252.676L79.6558 294.291C79.655 294.863 79.5109 295.426 79.2365 295.929C78.9622 296.431 78.5664 296.856 78.0853 297.167Z" fill="#263238"/>
<path d="M53.3971 287.744C53.5599 287.742 53.7163 287.68 53.8353 287.569C53.9542 287.457 54.027 287.306 54.0393 287.143L55.2817 266.106C55.2919 265.935 55.234 265.768 55.1208 265.64C55.0075 265.513 54.8482 265.435 54.6779 265.425C54.5076 265.415 54.3402 265.473 54.2126 265.586C54.085 265.699 54.0076 265.858 53.9974 266.029L52.7549 287.066C52.7473 287.152 52.7571 287.239 52.7838 287.321C52.8105 287.403 52.8534 287.479 52.9101 287.545C52.9668 287.61 53.0361 287.663 53.1138 287.701C53.1914 287.738 53.2759 287.76 53.3622 287.764L53.3971 287.744Z" fill="#344E41"/>
<path d="M35.4305 277.42C35.5933 277.419 35.7497 277.356 35.8686 277.245C35.9876 277.134 36.0604 276.982 36.0727 276.82L37.3081 255.782C37.3157 255.697 37.3062 255.611 37.2799 255.529C37.2537 255.447 37.2113 255.372 37.1554 255.306C37.0994 255.241 37.031 255.188 36.9541 255.15C36.8772 255.112 36.7935 255.089 36.7078 255.084C36.5349 255.073 36.3644 255.13 36.2336 255.244C36.1028 255.358 36.0224 255.519 36.0098 255.691L34.7674 276.722C34.7598 276.808 34.7696 276.895 34.7963 276.977C34.8229 277.059 34.8659 277.135 34.9226 277.2C34.9793 277.266 35.0485 277.319 35.1262 277.356C35.2039 277.394 35.2884 277.416 35.3747 277.42H35.4305Z" fill="#344E41"/>
<path d="M65.8215 276.129C66.3274 276.419 66.8993 276.574 67.4823 276.579C68.0654 276.585 68.64 276.441 69.1514 276.16C69.6627 275.88 70.0936 275.473 70.4027 274.979C70.7118 274.485 70.8889 273.919 70.9169 273.337L71.8941 255.398C71.9613 254.819 72.1557 254.261 72.4634 253.765C72.7711 253.269 73.1844 252.847 73.674 252.529L75.07 251.727C75.2335 251.609 75.4231 251.533 75.6225 251.505C75.8219 251.477 76.0252 251.498 76.2147 251.566L29.4487 224.561C29.2563 224.458 29.0388 224.412 28.8213 224.428C28.6038 224.444 28.3954 224.521 28.2202 224.651L26.8242 225.461C26.3362 225.782 25.925 226.207 25.6198 226.705C25.3146 227.204 25.1229 227.763 25.0583 228.344L24.109 246.08C24.0008 247.816 24.3775 249.549 25.1972 251.083C26.0169 252.618 27.2473 253.894 28.7507 254.77L65.8215 276.129Z" fill="#455A64"/>
<path d="M49.4045 264.605L42.606 260.689L42.3198 264.451L49.1323 268.381L49.4045 264.605Z" fill="#344E41"/>
<path opacity="0.05" d="M33.385 61.5746C36.046 63.1137 36.046 65.6105 33.385 67.1495C31.8884 67.9085 30.2339 68.304 28.5557 68.304C26.8776 68.304 25.2231 67.9085 23.7264 67.1495C21.0655 65.6105 21.0655 63.1137 23.7264 61.5746C25.2228 60.8146 26.8774 60.4185 28.5557 60.4185C30.234 60.4185 31.8887 60.8146 33.385 61.5746Z" fill="#97D248"/>
<path d="M24.2189 65.46C21.9 63.0864 20.532 57.1763 22.7961 55.2952H34.3154C36.5795 57.1763 35.2183 63.0864 32.8994 65.4532L32.8378 65.5216L32.7558 65.5968L32.5437 65.7883L32.489 65.8294C32.4338 65.8781 32.3743 65.9216 32.3111 65.9593C32.2179 66.0303 32.1196 66.0943 32.017 66.1509C30.9463 66.6973 29.7613 66.9823 28.5592 66.9823C27.3571 66.9823 26.1721 66.6973 25.1014 66.1509C24.9943 66.0945 24.8914 66.0305 24.7935 65.9593L24.6362 65.8362C24.6105 65.8219 24.5874 65.8034 24.5678 65.7815C24.4949 65.7276 24.4263 65.6682 24.3626 65.6036L24.2668 65.5147L24.2189 65.46Z" fill="#D2903F"/>
<path d="M33.3166 54.3922C35.9433 55.9108 35.9433 58.3733 33.3166 59.8645C31.8412 60.6132 30.2101 61.0034 28.5557 61.0034C26.9012 61.0034 25.2701 60.6132 23.7947 59.8645C21.168 58.346 21.168 55.8834 23.7947 54.3922C25.271 53.6467 26.9018 53.2583 28.5557 53.2583C30.2095 53.2583 31.8403 53.6467 33.3166 54.3922Z" fill="#C07474"/>
<path d="M31.4765 55.473C33.0771 56.3965 33.0771 57.8946 31.4765 58.818C30.5799 59.2734 29.5886 59.5108 28.583 59.5108C27.5774 59.5108 26.586 59.2734 25.6895 58.818C24.0889 57.8946 24.0889 56.3965 25.6895 55.473C26.586 55.0176 27.5774 54.7803 28.583 54.7803C29.5886 54.7803 30.5799 55.0176 31.4765 55.473Z" fill="#EBEBEB"/>
<path d="M25.6622 57.06C26.5588 56.6045 27.5501 56.3672 28.5557 56.3672C29.5613 56.3672 30.5527 56.6045 31.4492 57.06C31.8388 57.2667 32.1704 57.5677 32.4137 57.9355C32.1759 58.3 31.8547 58.6025 31.4766 58.818C30.58 59.2734 29.5887 59.5107 28.5831 59.5107C27.5775 59.5107 26.5861 59.2734 25.6896 58.818C25.3029 58.6067 24.974 58.3037 24.7319 57.9355C24.9648 57.5712 25.2845 57.2704 25.6622 57.06Z" fill="#A5BC59"/>
<path d="M31.1005 57.9355C31.9195 57.1052 32.6235 56.1688 33.1937 55.1514C34.165 53.4413 34.3428 51.1498 33.8777 50.8693C33.4126 50.5889 31.3057 52.8941 31.3057 52.8941C31.4928 51.9348 31.564 50.9564 31.5178 49.9801C31.4357 48.4547 31.0595 47.0661 30.6285 46.7925C30.1976 46.5189 29.2125 48.4342 28.7953 49.8228C28.378 51.2114 28.1112 52.3606 28.1112 52.3606C27.9482 51.267 27.7012 50.1876 27.3725 49.1319C26.8663 47.6817 26.408 47.3602 26.0523 47.497C25.6966 47.6338 25.4572 48.3179 25.3682 50.2332C25.33 51.146 25.3575 52.0604 25.4503 52.9693C25.4503 52.9693 24.7184 52.2101 23.9523 51.4439C23.1862 50.6778 22.7005 50.4863 22.4542 50.6505C22.208 50.8146 22.1327 52.1143 23.4871 54.57C24.1483 55.8145 24.9974 56.9496 26.0044 57.9355C26.0044 57.9355 27.8924 59.1462 31.1005 57.9355Z" fill="#486A1A"/>
<path d="M178.376 72.5305C177.835 72.1394 177.265 71.755 176.674 71.3771C167.258 65.3056 152.062 60.5895 139.225 59.5488C137.533 59.4055 135.833 59.3325 134.132 59.3301C133.504 59.3301 132.884 59.3301 132.272 59.3632C125.078 59.625 120.376 61.4014 119.04 64.3676C117.704 67.3338 119.914 71.0855 125.282 74.9333C125.718 75.2647 126.168 75.5563 126.638 75.8646C126.621 75.5751 126.621 75.2835 126.638 74.9896C126.368 74.8073 126.11 74.625 125.852 74.4395C120.767 70.7938 118.641 67.2874 119.851 64.593C121.062 61.8986 125.502 60.2846 132.334 60.0227C133.904 59.9697 135.477 59.984 137.045 60.0658C146.311 60.5232 157.142 63.085 166.172 66.7903C167.42 67.2974 168.602 67.8243 169.754 68.3712C172.032 69.4404 174.207 70.6423 176.262 71.9671C176.797 72.314 177.313 72.6664 177.81 73.0243C182.891 76.6699 185.021 80.1763 183.806 82.8707C182.741 85.2338 179.204 86.7715 173.749 87.2852C173.728 87.5139 173.703 87.736 173.678 87.9481C179.566 87.4178 183.402 85.7243 184.588 83.0895C185.928 80.1299 183.714 76.3783 178.376 72.5305Z" fill="#FFEA00"/>
<ellipse cx="213.937" cy="298.046" rx="24.779" ry="10.47" fill="#E0E0E0"/>
<ellipse cx="109.237" cy="254.072" rx="7.329" ry="2.792" fill="#E0E0E0"/>
<ellipse cx="146.231" cy="239.414" rx="7.329" ry="2.792" fill="#E0E0E0"/>
<ellipse cx="168.567" cy="286.878" rx="7.329" ry="2.792" fill="#E0E0E0"/>
<ellipse cx="215.333" cy="261.75" rx="7.329" ry="2.792" fill="#E0E0E0"/>
<path d="M216.919 260.931L207.552 206.899L201.626 206.599L213.939 260.924C213.962 261.036 214.009 261.141 214.076 261.232C214.144 261.324 214.23 261.4 214.33 261.455C214.647 261.633 215.001 261.735 215.364 261.753C215.728 261.772 216.09 261.705 216.424 261.56C216.554 261.513 216.668 261.428 216.75 261.316C216.832 261.204 216.879 261.07 216.884 260.931H216.919Z" fill="#263238"/>
<path d="M128.804 198H122.871L108.911 254.126C108.91 254.265 108.951 254.401 109.028 254.517C109.105 254.632 109.215 254.722 109.343 254.775C109.668 254.94 110.027 255.026 110.39 255.026C110.754 255.026 111.113 254.94 111.437 254.775C111.54 254.726 111.631 254.655 111.703 254.567C111.776 254.479 111.828 254.376 111.856 254.266L128.804 198Z" fill="#37474F"/>
<path d="M169.846 286.681L169.581 226.164L163.655 225.864L166.859 286.646C166.883 286.759 166.931 286.865 166.999 286.958C167.068 287.05 167.156 287.127 167.256 287.183C167.573 287.363 167.928 287.465 168.291 287.483C168.655 287.502 169.017 287.435 169.35 287.288C169.482 287.242 169.597 287.158 169.681 287.046C169.764 286.934 169.812 286.799 169.818 286.66L169.846 286.681Z" fill="#37474F"/>
<path d="M161.191 179.196H155.258L145.758 238.826C145.757 238.965 145.798 239.101 145.875 239.217C145.952 239.332 146.062 239.422 146.191 239.475C146.515 239.64 146.874 239.726 147.238 239.726C147.602 239.726 147.96 239.64 148.285 239.475C148.388 239.426 148.478 239.355 148.551 239.267C148.623 239.179 148.675 239.076 148.704 238.966L161.191 179.196Z" fill="#263238"/>
<path d="M111.724 132.479C110.382 135.803 109.58 139.322 109.35 142.9C108.652 150.885 111.382 176.746 113.001 188.305C115.353 207.625 118.229 207.66 122.417 210.899C129.62 216.483 150.337 227.365 157.17 230.059C169.567 234.945 179.702 227.414 187.254 223.679C194.182 220.175 200.868 216.211 207.266 211.813C209.157 210.417 210.135 209.021 210.114 207.59C210.114 207.011 210.114 204.638 210.114 204.024C210.114 202.16 208.466 200.157 204.997 197.909C198.597 193.756 175.458 180.257 166.489 175.294C166.486 175.276 166.478 175.258 166.466 175.245C166.453 175.231 166.437 175.221 166.419 175.217C159.516 171.029 155.363 142.558 150.588 127.411C150.484 127.09 150.386 126.776 150.281 126.476C150.176 126.176 150.114 125.994 150.03 125.778C149.754 125.006 149.44 124.249 149.088 123.509" fill="#344E41"/>
<path d="M210.114 204.031C210.114 202.167 208.467 200.164 204.997 197.916C198.597 193.763 175.458 180.264 166.489 175.301C166.486 175.282 166.478 175.265 166.466 175.252C166.454 175.238 166.437 175.228 166.419 175.224C159.516 171.036 155.363 142.565 150.588 127.418C150.54 127.278 150.204 126.113 149.583 124.626L149.5 124.424C149.416 124.221 149.325 124.019 149.227 123.809C149.178 123.705 149.137 123.6 149.088 123.502C148.331 121.776 147.247 120.212 145.898 118.896C145.427 118.463 144.902 118.094 144.334 117.8C143.56 117.36 141.926 116.453 141.542 116.215C136.852 113.423 130.709 116.774 123.045 120.969C118.285 123.586 114.216 126.685 111.745 132.472C110.403 135.796 109.602 139.315 109.371 142.893C108.673 150.878 111.403 176.739 113.022 188.298C115.374 207.618 118.25 207.653 122.438 210.892C129.641 216.476 150.358 227.358 157.191 230.052C169.588 234.938 179.723 227.407 187.275 223.672C194.203 220.168 200.889 216.204 207.287 211.806C209.179 210.41 210.156 209.014 210.135 207.583C210.1 207.018 210.114 204.645 210.114 204.031Z" fill="#344E41"/>
<path opacity="0.25" d="M210.114 204.031C210.114 202.167 208.467 200.164 204.997 197.916C198.597 193.763 175.458 180.264 166.489 175.301C166.486 175.282 166.478 175.265 166.466 175.252C166.454 175.238 166.437 175.228 166.419 175.224C159.516 171.036 155.363 142.565 150.588 127.418C150.54 127.278 150.204 126.113 149.583 124.626L149.5 124.424C149.416 124.221 149.325 124.019 149.227 123.809C149.178 123.705 149.137 123.6 149.088 123.502C148.331 121.776 147.247 120.212 145.898 118.896C145.427 118.463 144.902 118.094 144.334 117.8C143.56 117.36 141.926 116.453 141.542 116.215C136.852 113.423 130.709 116.774 123.045 120.969C118.285 123.586 114.216 126.685 111.745 132.472C110.403 135.796 109.602 139.315 109.371 142.893C108.673 150.878 111.403 176.739 113.022 188.298C115.374 207.618 118.25 207.653 122.438 210.892C129.641 216.476 150.358 227.358 157.191 230.052C169.588 234.938 179.723 227.407 187.275 223.672C194.203 220.168 200.889 216.204 207.287 211.806C209.179 210.41 210.156 209.014 210.135 207.583C210.1 207.018 210.114 204.645 210.114 204.031Z" fill="white"/>
<path d="M187.247 220.085C194.173 216.576 200.858 212.612 207.259 208.219C211.559 205.099 211.161 201.937 205.004 197.909C196.447 192.36 161.568 172.572 161.568 172.572C161.568 172.572 117.475 198.593 119.374 203.395C121.272 208.198 148.564 223.065 157.163 226.429C169.56 231.336 179.695 223.826 187.247 220.085Z" fill="#344E41"/>
<path opacity="0.6" d="M187.247 220.085C194.173 216.576 200.858 212.612 207.259 208.219C211.559 205.099 211.161 201.937 205.004 197.909C196.447 192.36 161.568 172.572 161.568 172.572C161.568 172.572 117.475 198.593 119.374 203.395C121.272 208.198 148.564 223.065 157.163 226.429C169.56 231.336 179.695 223.826 187.247 220.085Z" fill="white"/>
<path d="M144.334 117.807C139.692 115.371 133.662 118.679 126.186 122.769C121.405 125.387 117.335 128.493 114.858 134.3L111.71 132.478C114.181 126.692 118.25 123.593 123.01 120.975C130.688 116.787 136.817 113.416 141.507 116.222C141.926 116.459 143.559 117.367 144.334 117.807Z" fill="#344E41"/>
<path opacity="0.5" d="M144.334 117.807C139.692 115.371 133.662 118.679 126.186 122.769C121.405 125.387 117.335 128.493 114.858 134.3L111.71 132.478C114.181 126.692 118.25 123.593 123.01 120.975C130.688 116.787 136.817 113.416 141.507 116.222C141.926 116.459 143.559 117.367 144.334 117.807Z" fill="white"/>
<path d="M150.588 127.418C150.483 127.097 148.892 121.541 145.898 118.902C144.504 117.652 142.696 116.963 140.823 116.969C136.768 116.969 131.903 119.649 126.2 122.769C125.718 123.035 125.251 123.3 124.804 123.572L124.274 123.893C124.057 124.019 123.848 124.151 123.638 124.284C123.429 124.417 123.331 124.48 123.178 124.591C122.173 125.251 121.215 125.979 120.309 126.769C120.158 126.894 120.014 127.027 119.876 127.167C119.299 127.697 118.753 128.261 118.243 128.856L117.971 129.177C117.866 129.317 117.747 129.449 117.65 129.582C117.552 129.715 117.44 129.854 117.335 130.001C117.231 130.147 117.133 130.273 117.028 130.419C116.619 131.01 116.239 131.62 115.891 132.248C115.842 132.325 115.8 132.409 115.758 132.486C115.716 132.562 115.577 132.828 115.486 133.002L115.116 133.77C113.639 137.235 112.766 140.927 112.533 144.687C111.43 157.809 115.926 201.162 120.435 204.903C120.435 204.903 119.737 200.659 128.811 194.95C134.974 191.069 139.281 187.809 145.891 184.584C161.945 176.704 166.426 175.224 166.426 175.224C159.516 171.036 155.363 142.565 150.588 127.418Z" fill="#344E41"/>
<path opacity="0.4" d="M150.588 127.418C150.483 127.097 148.892 121.541 145.898 118.902C144.504 117.652 142.696 116.963 140.823 116.969C136.768 116.969 131.903 119.649 126.2 122.769C125.718 123.035 125.251 123.3 124.804 123.572L124.274 123.893C124.057 124.019 123.848 124.151 123.638 124.284C123.429 124.417 123.331 124.48 123.178 124.591C122.173 125.251 121.215 125.979 120.309 126.769C120.158 126.894 120.014 127.027 119.876 127.167C119.299 127.697 118.753 128.261 118.243 128.856L117.971 129.177C117.866 129.317 117.747 129.449 117.65 129.582C117.552 129.715 117.44 129.854 117.335 130.001C117.231 130.147 117.133 130.273 117.028 130.419C116.619 131.01 116.239 131.62 115.891 132.248C115.842 132.325 115.8 132.409 115.758 132.486C115.716 132.562 115.577 132.828 115.486 133.002L115.116 133.77C113.639 137.235 112.766 140.927 112.533 144.687C111.43 157.809 115.926 201.162 120.435 204.903C120.435 204.903 119.737 200.659 128.811 194.95C134.974 191.069 139.281 187.809 145.891 184.584C161.945 176.704 166.426 175.224 166.426 175.224C159.516 171.036 155.363 142.565 150.588 127.418Z" fill="white"/>
<path d="M177.992 242.672C176.296 246.553 174.425 250.797 174.425 250.797C174.354 251.506 174.456 252.223 174.721 252.885C174.986 253.547 175.406 254.135 175.947 254.601L181.182 246.923L177.992 242.672Z" fill="#263238"/>
<path d="M175.947 254.573L186.731 257.944L190.018 252.604L181.182 246.888L175.947 254.573Z" fill="black"/>
<path d="M184.727 232.767C184.772 232.638 184.844 232.52 184.94 232.422C185.035 232.324 185.151 232.248 185.279 232.2C185.407 232.152 185.544 232.133 185.681 232.144C185.817 232.156 185.949 232.197 186.068 232.265L185.677 233.158C186.734 235.199 188.381 236.874 190.402 237.967C195.504 240.927 197.089 239.684 197.438 239.398C197.438 239.398 197.738 238.805 197.906 238.4C198.422 238.582 198.743 238.819 198.199 239.985C198.066 240.264 197.117 243.258 197.005 243.838C196.246 246.141 195.777 248.531 195.609 250.95C195.355 253.815 195.491 256.701 196.014 259.529C197.41 267.507 198.611 269.454 198.862 272.051C199.239 275.987 194.332 276.937 187.212 272.504C182.515 269.566 178.836 264.575 178.599 261.595C178.362 258.614 180.637 252.584 180.33 250.329C180.023 248.074 177.95 246.141 177.971 242.651C180.065 237.946 181.461 237.66 183.038 235.615C183.758 234.768 184.329 233.805 184.727 232.767Z" fill="#37474F"/>
<path d="M197.906 238.4L201.752 228.628L188.448 221.795L186.068 232.265L185.677 233.158C185.677 233.158 185.055 236.46 189.243 239.203C193.431 241.946 197.019 240.124 197.438 239.398L197.906 238.4Z" fill="#C8856A"/>
<path d="M175.221 159.163C178.711 161.585 182.41 163.77 191.142 169.466C199.679 175.05 211.838 182.176 214.916 187.614C217.708 192.5 217.163 197.386 214.274 205.573C211.384 213.761 199.232 238.212 199.232 238.212C193.487 236.118 189.006 233.158 186.333 229.054C186.333 229.054 188.315 213.935 190.242 208.889C191.749 204.931 193.257 203.633 193.257 203.633L162.622 193.114L155.139 177.178C156.486 168.237 166.628 161.864 175.221 159.163Z" fill="#37474F"/>
<path d="M199.232 238.233C193.564 236.201 189.132 233.249 186.333 229.075C186.333 229.075 188.315 213.956 190.242 208.91C190.721 207.591 191.342 206.327 192.091 205.14C194.883 208.205 196.538 209.901 198.639 217.97C199.588 221.62 200.844 227.441 201.926 232.711C199.239 238.254 199.232 238.233 199.232 238.233Z" fill="#263238"/>
<path d="M174.355 170.527C176.24 178.903 173.615 185.059 173.615 185.059L190.416 202.676L162.622 193.114L174.355 170.527Z" fill="#263238"/>
<path d="M187.422 175.427C191.303 177.367 200.363 184.047 202.401 185.645C204.566 187.255 206.584 189.054 208.432 191.02C209.134 191.767 209.737 192.602 210.225 193.505C210.448 193.916 210.599 194.362 210.672 194.824C210.714 195.323 210.714 195.825 210.672 196.325C210.477 198.436 210.077 200.524 209.479 202.558C208.927 204.652 208.271 206.683 207.601 208.735C206.205 212.835 204.765 216.92 203.28 220.992C205.286 217.142 207.069 213.18 208.62 209.126C209.402 207.097 210.1 205.033 210.714 202.935C211.373 200.816 211.806 198.633 212.005 196.422C212.041 195.84 212.025 195.256 211.956 194.677C211.86 194.066 211.659 193.476 211.363 192.932C210.818 191.924 210.129 191 209.318 190.189C207.419 188.226 205.345 186.441 203.12 184.856C199.539 182.113 191.505 176.906 187.422 175.427Z" fill="#263238"/>
<path d="M226.077 293.088C225.421 292.39 220.493 288.049 219.718 287.211C216.047 283.365 211.517 274.235 209.946 269.657C209.123 267.255 208.027 263.375 206.135 256.632C206.135 256.632 195.665 215.987 193.299 209.936C190.933 203.884 168.499 186.378 168.499 186.378C168.499 186.378 174.32 177.897 173.266 161.076C157.792 166.904 142.91 169.368 128.511 168.523C127.894 175.907 128.941 183.334 131.575 190.259C134.311 197.4 142.345 202.956 152.606 208.295C161.1 212.721 172.547 218.863 174.942 220.161C177.036 221.278 178.369 222.723 178.871 227.267C179.388 231.972 179.639 239.831 188.504 254.245C191.624 259.947 194.918 269.51 196.007 272.721L196.244 274.396C196.316 275.474 196.766 276.493 197.515 277.272C198.29 278.137 199.106 278.947 199.972 279.743C202.268 281.837 206.673 286.674 209.702 290.129C214.064 295.106 219.223 296.006 223.878 295.671C228.534 295.336 226.656 293.696 226.077 293.088Z" fill="#C8856A"/>
<path d="M196.454 286.771C197.71 291.12 199.078 295.901 199.078 295.901C199.505 296.534 200.078 297.055 200.749 297.419C201.42 297.784 202.168 297.981 202.931 297.995L201.982 288.084L196.454 286.771Z" fill="#263238"/>
<path d="M202.931 297.995L214.12 293.396L213.171 286.744L201.982 288.084L202.931 297.995Z" fill="black"/>
<path d="M195.246 274.033C194.89 273.07 195.784 272.797 196.007 272.7L196.3 273.705C198.569 274.649 201.068 274.892 203.476 274.403C209.695 273.349 210.156 271.241 210.246 270.766C210.246 270.766 210.086 270.068 209.953 269.629C210.498 269.426 210.923 269.398 211.272 270.731C211.356 271.045 212.619 274.166 212.927 274.717C213.884 277.132 215.138 279.418 216.661 281.522C218.412 284.053 220.497 286.335 222.859 288.307C229.462 293.926 231.794 294.701 233.769 296.683C236.777 299.67 233.399 303.824 224.492 305.059C218.608 305.848 212.18 304.249 209.932 301.967C207.685 299.684 205.444 293.151 203.65 291.497C201.856 289.843 198.813 289.654 196.454 286.785C194.96 281.474 195.909 280.294 195.812 277.523C195.823 276.336 195.632 275.156 195.246 274.033Z" fill="#37474F"/>
<path d="M127.101 167.532C126.172 170.541 124.72 177.535 125.453 183.405C126.186 189.275 126.94 195.969 139.106 203.975C149.22 210.627 172.38 224.28 173.58 226.353C174.781 228.426 177.559 240.885 180.197 245.708C185.083 254.664 193.906 267.444 193.906 267.444C199.86 268.247 205.165 266.746 208.285 263.64C208.285 263.64 202.387 240.871 199.993 231.246C195.888 214.78 195.051 209.608 191.407 205.762C187.764 201.916 186.521 200.729 186.521 200.729L169.867 185.562C169.867 185.562 172.715 180.85 174.055 172.865C174.693 168.752 174.721 164.568 174.139 160.448C174.139 160.448 145.416 171.022 127.101 167.532Z" fill="#37474F"/>
<path d="M137.822 187.411L137.675 187.125C133.92 182.469 134.346 177.583 134.883 171.204C134.981 170.129 135.072 169.005 135.149 167.853L135.847 167.909C135.77 169.068 135.679 170.185 135.581 171.266C135.051 177.367 134.653 182.058 138.045 186.469C142.387 183.586 140.663 176.194 139.602 171.706C139.427 170.959 139.267 170.31 139.155 169.731L139.853 169.605C139.965 170.157 140.118 170.813 140.293 171.546C141.389 176.208 143.196 183.872 138.506 187.02C139.146 187.774 139.846 188.474 140.6 189.114C144.676 192.604 154.804 199.857 163.739 206.25C170.795 211.297 176.889 215.652 178.271 216.944C180.009 218.57 181.447 223.868 183.262 230.576C184.748 236.076 186.438 242.309 188.65 247.767C191.568 254.69 195.318 261.232 199.818 267.248C199.553 267.248 199.281 267.283 199.009 267.29C194.58 261.332 190.887 254.861 188.008 248.019C185.774 242.525 184.085 236.271 182.592 230.75C180.874 224.412 179.395 218.933 177.789 217.439C176.442 216.183 170.363 211.855 163.327 206.802C154.378 200.401 144.243 193.149 140.139 189.631C139.338 188.945 138.594 188.195 137.913 187.39L137.822 187.411Z" fill="#263238"/>
<path d="M147.412 170.875C147.417 173.067 147.739 175.247 148.369 177.346C148.978 179.454 149.799 181.496 150.819 183.439C151.835 185.376 153.032 187.213 154.392 188.926C155.745 190.642 157.285 192.201 158.985 193.574C157.687 191.822 156.431 190.084 155.251 188.305C154.071 186.525 152.989 184.689 152.012 182.804C151.019 180.922 150.134 178.986 149.36 177.004C148.591 175.001 147.941 172.955 147.412 170.875Z" fill="#263238"/>
<path d="M145.933 171.078C145.447 172.871 145.196 174.72 145.186 176.578C145.161 178.434 145.28 180.289 145.542 182.127C145.804 183.954 146.196 185.759 146.714 187.53C147.214 189.317 147.939 191.034 148.871 192.639C148.431 190.845 148.075 189.065 147.747 187.278C147.419 185.492 147.105 183.712 146.861 181.918C146.617 180.124 146.386 178.33 146.219 176.529C146.051 174.728 145.974 172.935 145.933 171.078Z" fill="#263238"/>
<path d="M176.54 198.551C179.088 201.28 181.733 203.919 184.253 206.627C185.516 207.962 186.711 209.36 187.834 210.815C188.945 212.232 189.845 213.803 190.507 215.478C191.1 217.188 191.694 218.968 192.252 220.741L193.983 226.045C195.128 229.591 196.338 233.119 197.613 236.627C196.882 232.965 196.023 229.333 195.037 225.731C194.046 222.13 193.027 218.57 191.763 215.003C191.049 213.208 190.055 211.538 188.818 210.054C187.633 208.576 186.353 207.177 184.986 205.866C182.312 203.305 179.423 200.917 176.54 198.551Z" fill="#263238"/>
<path d="M207.692 261.35C205.807 263.793 196.077 266.892 192.398 265.748L194.695 270.11C194.695 270.11 197.208 270.969 202.889 269.67C208.571 268.372 208.927 266.013 208.927 266.013L207.692 261.35Z" fill="#263238"/>
<path d="M207.685 95.5266C208.571 94.3679 209.011 93.3837 208.746 92.4274C208.005 92.1021 207.302 91.6947 206.652 91.2129C206.652 91.2129 206.261 91.2967 204.823 91.4712C203.385 91.6457 202.778 91.3455 202.24 90.7732C201.703 90.2008 202.052 89.5447 203.008 89.1887C203.964 88.8327 205.954 88.0231 206.449 87.8974C206.945 87.7718 211.642 90.124 212.152 90.843C212.662 91.5619 212.529 96.427 211.356 98.6955C210.184 100.964 200.851 106.443 200.851 106.443C200.851 106.443 197.613 111.329 198.262 109.689C199.155 107.448 198.045 103.756 198.534 99.0166C198.75 96.9226 199.525 93.0138 199.616 91.4851C199.721 89.7541 200.084 89.44 200.935 89.782C201.787 90.124 202.561 90.48 202.506 94.1864C202.45 97.5228 203.204 97.5019 203.937 97.4251C204.97 97.3344 207.685 95.5266 207.685 95.5266Z" fill="#C8856A"/>
<path d="M211.391 90.2497C211.342 91.185 210.965 94.3958 210.365 95.75C210.707 93.7991 210.819 91.8149 210.7 89.8379L211.391 90.2497Z" fill="#AF6152"/>
<path d="M210.232 96.0919C210.609 95.0938 211.168 93.2999 211.175 89.7052C211.175 85.1752 210.993 83.8769 211.601 81.8387C212.299 79.5633 213.904 79.4306 214.295 80.0239C214.686 80.6172 215.077 86.1873 215.077 86.1873C215.077 86.1873 215.9 91.883 214.379 94.6052C214.015 95.3422 213.38 95.9092 212.606 96.1866C211.832 96.464 210.981 96.43 210.232 96.0919Z" fill="#C8856A"/>
<path d="M215.049 85.5452C215.049 85.5452 214.916 83.891 214.804 82.8928C213.764 83.6676 213.311 85.6848 213.122 88.4768C212.948 91.0664 213.122 94.0608 211.412 96.9785C211.412 96.9785 212.11 97.8021 213.185 93.9073C214.023 90.9198 214.358 87.4228 215.049 85.5452Z" fill="#AF6152"/>
<path d="M216.982 88.7C217.027 87.0952 217.214 85.4974 217.541 83.9257C217.652 83.0252 215.956 83.123 214.749 85.0425C213.541 86.962 213.499 89.042 213.353 91.3245C213.296 92.6932 212.956 94.0354 212.356 95.2666C211.755 96.4979 210.906 97.5916 209.863 98.479C209.863 98.479 212.752 99.9238 214.483 97.1807C216.213 94.6992 217.09 91.7229 216.982 88.7Z" fill="#C8856A"/>
<path d="M216.982 88.7699V88.7001C216.961 88.1524 216.985 87.6038 217.052 87.0598C215.768 87.4437 214.909 89.3353 214.693 91.2478C214.476 93.1603 214.546 94.0398 214.204 94.8704C213.862 95.7011 211.412 98.514 211.412 98.514C212.38 98.2493 213.276 97.7724 214.037 97.118C214.909 96.2106 216.375 90.5149 216.375 90.5149L216.982 88.7699Z" fill="#AF6152"/>
<path d="M189.376 143.912C198.45 148.756 200.809 145.817 203.797 133.923C206.058 124.954 207.671 113.681 208.683 110.973C209.292 109.134 210.239 107.425 211.475 105.934C213.003 103.979 215.495 100.182 216.773 98.472C217.861 97.0509 218.392 95.2809 218.266 93.4953C218.225 92.7135 218.357 88.1067 217.952 88.0718C217.136 88.002 215.914 88.016 215.272 90.6823C214.944 92.0295 214.986 94.0397 214.644 95.0239C213.656 96.4857 212.369 97.7206 210.868 98.6465C208.725 100.043 206.568 97.5158 203.685 100.14C202.112 101.496 200.89 103.214 200.125 105.145C199.113 108.202 190.87 125.052 190.87 125.052C190.87 125.052 189.935 124.026 182.592 116.892C177.043 111.497 175.074 109.472 171.424 106.68C167.773 103.888 162.07 103.944 162.07 103.944L162.65 125.938C162.65 125.938 167.012 128.961 172.094 132.339C179.367 137.141 183.143 140.582 189.376 143.912Z" fill="#C8856A"/>
<path d="M190.835 125.052C189.197 129.233 188.482 133.719 188.741 138.202C188.741 138.202 185.949 132.032 189.439 123.593L190.835 125.052Z" fill="#AF6152"/>
<path d="M208.892 97.9905L207.566 98.2278C207.013 98.3423 206.467 98.4915 205.933 98.6745C205.066 98.9524 204.249 99.3646 203.511 99.896C202.812 100.422 202.267 101.126 201.933 101.934C201.63 102.872 201.453 103.846 201.41 104.831C201.41 104.873 201.452 104.915 201.472 104.831C201.813 103.951 202.207 103.094 202.652 102.262C203.013 101.47 203.567 100.781 204.264 100.259C205.027 99.7585 205.841 99.342 206.694 99.0166C207.504 98.7753 208.291 98.4623 209.046 98.0812C209.102 98.0394 209.171 97.9696 209.137 97.9067L208.892 97.9905Z" fill="#AF6152"/>
<path d="M126.179 135.948C124.197 126.266 125.397 115.706 129.83 108.3C133.843 107.092 139.043 105.508 139.043 105.508C139.043 105.508 147.608 104.196 154.658 103.909L162.098 103.972C166.503 107.769 176.638 116.969 178.983 124.117C179.853 127.013 179.771 130.112 178.75 132.959C177.728 135.806 175.821 138.25 173.308 139.933C173.124 143.55 173.297 147.176 173.825 150.759C173.825 150.759 177.671 155.561 178.096 160.782C176.526 168.809 169.022 175.992 149.744 177.36C133.69 178.505 126.221 171.232 126.221 171.232C123.848 168.44 128.636 157.348 128.315 151.534C128.016 146.29 127.301 141.079 126.179 135.948Z" fill="#F0F0F0"/>
<path d="M157.617 142.083C157.617 142.083 153.206 146.969 145.053 145.573C136.642 144.177 135.386 137.051 135.386 137.051C135.386 137.051 134.513 146.222 144.565 147.918C153.827 149.482 157.617 142.083 157.617 142.083Z" fill="#E0E0E0"/>
<path d="M132.636 65.4497C133.808 64.0652 135.389 63.0878 137.152 62.6577C138.841 62.2459 139.881 62.2738 141.493 61.6247C143.106 60.9755 144.348 59.9425 145.877 59.3003C149.241 57.9043 153.29 58.7978 156.165 61.0314C157.443 62.0225 158.629 63.2999 160.221 63.5442C161.015 63.6034 161.813 63.6034 162.608 63.5442C165.121 63.5442 167.445 65.1914 168.764 67.3343C169.762 69.0387 170.356 70.9488 170.502 72.9183C170.698 74.8657 170.014 76.6805 170.125 78.614C170.209 80.01 171.089 81.2943 171.954 82.3692C173.113 83.8141 174.048 84.9239 174.634 86.7596C175.135 88.1589 175.276 89.6611 175.046 91.1291C174.923 91.8596 174.618 92.5474 174.159 93.1292C173.701 93.711 173.103 94.1681 172.422 94.4586C172.945 93.0626 172.17 91.164 171.298 89.9774C171.619 91.2757 171.807 94.5005 168.506 97.2855C166.189 99.2399 162.838 99.9728 159.767 99.9658C156.549 99.9658 153.297 98.849 150.1 99.6726C149.223 99.9373 148.361 100.247 147.517 100.601C146.049 101.154 144.529 101.556 142.98 101.802C141.5 102.039 139.993 101.92 138.527 102.123C136.104 102.467 133.64 101.876 131.638 100.468C130.354 99.4596 129.315 98.1732 128.599 96.7056C127.884 95.238 127.51 93.6274 127.505 91.9946C126.965 92.6946 126.62 93.5257 126.507 94.4027C125.801 93.5492 125.307 92.541 125.065 91.4603C124.822 90.3796 124.838 89.2569 125.111 88.1836C125.565 86.5014 126.647 84.9937 126.779 83.2976C126.898 81.7969 126.284 80.338 126.13 78.8443C125.998 77.0925 126.471 75.3482 127.469 73.9026C128.467 72.457 129.931 71.3976 131.617 70.9011C131.412 69.9706 131.396 69.0083 131.571 68.0717C131.746 67.135 132.108 66.2433 132.636 65.4497Z" fill="#263238"/>
<path d="M133.082 83.877C135.135 83.0254 136.921 83.7443 138.094 85.8942C139.12 87.7648 141.137 87.0319 140.565 84.1003C145.109 79.5145 139.595 76.8341 143.322 72.4228C145.639 69.6727 150.791 70.238 152.892 71.8574C153.425 70.852 154.283 70.0573 155.327 69.6034C156.37 69.1495 157.537 69.0632 158.636 69.3586C160.814 70.0566 162.224 71.299 163.341 74.2446C164.513 77.3297 163.418 77.9509 164.039 80.1287C164.269 80.9803 165.169 82.6275 165.274 84.7983C165.749 95.0938 163.683 97.7602 161.463 99.5191C159.934 100.727 157.973 101.404 154.567 101.536L154.811 106.36C158.26 111.132 160.352 116.75 160.863 122.616C156.449 120.282 152.216 117.62 148.201 114.652C144.822 112.225 141.771 109.369 139.127 106.157L138.429 92.8951C137.989 94.0817 135.637 95.4428 133.166 93.5443C130.018 91.1501 129.453 85.3846 133.082 83.877Z" fill="#C8856A"/>
<path d="M162.196 78.5999L158.853 77.3505C158.922 77.1286 159.036 76.9233 159.188 76.7472C159.34 76.5711 159.526 76.428 159.735 76.3266C159.945 76.2252 160.172 76.1678 160.405 76.1578C160.637 76.1478 160.869 76.1855 161.086 76.2686C161.534 76.4415 161.899 76.7796 162.105 77.2132C162.312 77.6468 162.344 78.1431 162.196 78.5999Z" fill="#263238"/>
<path d="M150.086 78.0834L146.945 79.7656C146.825 79.5665 146.746 79.345 146.715 79.1147C146.683 78.8843 146.699 78.6499 146.761 78.4258C146.823 78.2017 146.93 77.9927 147.076 77.8114C147.221 77.6301 147.402 77.4804 147.608 77.3715C148.033 77.1497 148.528 77.0999 148.989 77.2324C149.45 77.3649 149.843 77.6696 150.086 78.0834Z" fill="#263238"/>
<path d="M153.792 80.2402L156.144 89.9075L161.037 87.0527L153.792 80.2402Z" fill="#AF6152"/>
<path d="M155.97 92.3646C155.663 92.1901 155.272 92.2948 154.902 92.2739C154.619 92.243 154.339 92.1917 154.064 92.1203C153.558 91.9809 153.084 91.7438 152.668 91.4223C152.605 91.3669 152.527 91.3314 152.444 91.3202C152.361 91.309 152.276 91.3227 152.201 91.3595C152.141 91.3903 152.096 91.4428 152.075 91.5061V91.5829C152.071 91.6059 152.071 91.6296 152.075 91.6527C152.075 91.6527 152.075 91.6527 152.075 91.7155C152.086 91.7727 152.113 91.8258 152.152 91.869C152.217 91.9498 152.292 92.0224 152.375 92.0854C152.503 92.1797 152.639 92.2637 152.78 92.3367C153.079 92.4927 153.392 92.6189 153.715 92.7136C154.448 92.9332 155.23 92.9332 155.963 92.7136C155.992 92.6986 156.018 92.6769 156.037 92.6502C156.057 92.6235 156.069 92.5926 156.075 92.5601V92.6019C156.084 92.5564 156.079 92.5091 156.06 92.4665C156.041 92.424 156.01 92.3884 155.97 92.3646Z" fill="#874C4C"/>
<path d="M153.911 93.7327H153.799H153.659H153.499C153.396 93.7178 153.296 93.6921 153.199 93.6559C153.101 93.6559 153.01 93.5722 152.92 93.5303C152.864 93.4927 152.803 93.4644 152.738 93.4465C152.599 93.4465 152.599 93.5861 152.647 93.6769C152.706 93.754 152.779 93.8182 152.864 93.8653L153.003 93.9491C153.106 93.997 153.21 94.0389 153.317 94.0747C153.413 94.1046 153.511 94.1279 153.611 94.1445C153.675 94.155 153.741 94.155 153.806 94.1445C153.868 94.1618 153.933 94.1618 153.995 94.1445C154.113 93.998 154.008 93.7676 153.911 93.7327Z" fill="#AF6152"/>
<path d="M151.14 83.0673C151.189 83.884 150.393 82.8928 149.458 82.9487C148.522 83.0045 147.803 84.0934 147.754 83.2697C147.784 82.8556 147.962 82.4662 148.257 82.1742C148.553 81.8822 148.944 81.7075 149.358 81.6827C149.773 81.658 150.182 81.7848 150.51 82.0395C150.837 82.2943 151.061 82.6596 151.14 83.0673Z" fill="#263238"/>
<path d="M162.07 82.0621C162.119 82.8857 161.324 81.8876 160.388 81.9504C159.453 82.0132 158.734 83.0951 158.685 82.2715C158.713 81.857 158.891 81.4668 159.185 81.1738C159.48 80.8809 159.871 80.7052 160.286 80.6795C160.7 80.6539 161.11 80.7801 161.439 81.0345C161.767 81.2889 161.992 81.6542 162.07 82.0621Z" fill="#263238"/>
<path d="M154.532 101.543C151.223 101.439 143.992 100.224 141.165 96.5945C141.165 96.5945 141.535 99.2748 146.617 101.606C149.974 103.149 154.623 103.309 154.623 103.309L154.532 101.543Z" fill="#AF6152"/>
<path d="M95.6696 112.474C94.7971 111.301 94.3714 110.317 94.6575 109.361C95.3971 109.049 96.0995 108.656 96.7515 108.188C96.7515 108.188 97.1424 108.279 98.5803 108.481C100.018 108.684 100.625 108.384 101.177 107.839C101.728 107.295 101.386 106.611 100.437 106.234C99.4877 105.857 97.5124 105.026 97.0168 104.894C96.5212 104.761 91.7818 107.029 91.2583 107.734C90.7348 108.439 90.7906 113.318 91.9563 115.601C93.1219 117.883 102.322 123.53 102.322 123.53C102.322 123.53 105.477 128.458 104.834 126.804C103.983 124.549 105.155 120.878 104.751 116.124C104.569 114.03 103.864 110.108 103.794 108.579C103.718 106.841 103.362 106.52 102.503 106.855C101.645 107.19 100.863 107.553 100.863 111.231C100.863 114.568 100.165 114.533 99.369 114.442C98.35 114.337 95.6696 112.474 95.6696 112.474Z" fill="#C8856A"/>
<path d="M92.047 107.141C92.047 108.077 92.403 111.294 92.9753 112.662C92.6684 110.705 92.5911 108.719 92.745 106.743L92.047 107.141Z" fill="#AF6152"/>
<path d="M93.0871 112.976C92.7241 111.978 92.2006 110.184 92.2565 106.583C92.3193 102.053 92.5357 100.754 91.9563 98.7024C91.3212 96.4199 89.6948 96.2594 89.297 96.8457C88.8991 97.432 88.4175 102.995 88.4175 102.995C88.4175 102.995 87.4891 108.656 88.9619 111.448C89.3165 112.188 89.9452 112.762 90.7151 113.047C91.4849 113.332 92.3356 113.307 93.0871 112.976Z" fill="#C8856A"/>
<path d="M88.4733 102.374C88.4733 102.374 88.6338 100.727 88.7594 99.7214C89.7925 100.524 90.2043 102.513 90.3439 105.375C90.4765 107.972 90.2252 110.959 91.9144 113.905C91.9144 113.905 91.2164 114.714 90.1903 110.799C89.4086 107.762 89.1294 104.265 88.4733 102.374Z" fill="#AF6152"/>
<path d="M86.4839 105.494C86.4678 103.889 86.309 102.289 86.0093 100.713C85.9116 99.8052 87.6077 99.9378 88.7454 101.871C89.8832 103.805 89.9251 105.899 90.0298 108.153C90.0592 109.521 90.3708 110.868 90.9449 112.11C91.519 113.352 92.3433 114.462 93.3662 115.371C93.3662 115.371 90.4486 116.767 88.7664 113.975C87.113 111.467 86.3126 108.493 86.4839 105.494Z" fill="#C8856A"/>
<path d="M86.484 105.564V105.494C86.5113 104.947 86.4973 104.398 86.4421 103.854C87.7195 104.258 88.5361 106.164 88.7316 108.083C88.927 110.003 88.8293 110.841 89.1574 111.713C89.4854 112.586 91.8586 115.398 91.8586 115.398C90.9008 115.13 90.0141 114.653 89.2621 114.002C88.4035 113.081 87.0354 107.364 87.0354 107.364L86.484 105.564Z" fill="#AF6152"/>
<path d="M132.887 123.67C132.887 114.323 129.83 108.314 129.83 108.314C124.672 110.101 121.614 110.694 119.025 116.983C117.28 121.213 110.244 135.982 109.672 137.644C107.347 132.639 103.801 124.507 103.089 122.246C102.354 120.299 101.157 118.559 99.5994 117.178C96.7585 114.498 94.5598 116.997 92.4379 115.559C90.9732 114.595 89.7271 113.335 88.7804 111.86C88.4593 110.868 88.5361 108.858 88.2359 107.504C87.6357 104.831 86.4142 104.796 85.5975 104.852C85.1927 104.852 85.2415 109.486 85.1857 110.268C85.0249 112.051 85.5214 113.831 86.5817 115.273C87.8311 117.004 89.7646 120.459 91.2583 123.028C92.2728 124.817 93.1052 126.704 93.7432 128.66C94.6855 131.383 95.9837 140.834 98.3849 149.761C100.94 159.303 103.864 162.506 106.063 163.567C110.551 165.773 115.242 161.083 118.041 156.867C121.775 151.241 124.769 146.927 128.12 141.308C131.182 135.93 132.823 129.859 132.887 123.67Z" fill="#C8856A"/>
<path d="M109.672 137.63C112.429 143.361 113.86 147.681 113.329 153.363C115.779 147.981 113.127 139.612 110.46 135.794L109.672 137.63Z" fill="#AF6152"/>
<path d="M94.4132 114.938L95.7324 115.203C96.2864 115.326 96.832 115.485 97.3657 115.678C98.2258 115.969 99.034 116.395 99.7599 116.941C100.453 117.489 100.988 118.212 101.309 119.035C101.597 119.977 101.756 120.954 101.784 121.939C101.784 121.981 101.742 122.022 101.721 121.939C101.389 121.056 101.009 120.191 100.584 119.349C100.236 118.551 99.6906 117.854 98.999 117.325C98.2476 116.805 97.4398 116.372 96.5909 116.034C95.7863 115.778 95.0061 115.451 94.2596 115.056C94.2038 115.022 94.134 114.945 94.1759 114.889L94.4132 114.938Z" fill="#AF6152"/>
<path d="M177.99 82.1175L179.301 81.0117L178.159 79.0074L180.367 80.1133L181.835 78.874L181.489 80.4854L183.574 81.6209L181.216 81.7603L180.544 83.76L179.847 81.9115L177.99 82.1175Z" fill="#FFEA00"/>
<path d="M161.936 55.353L163.739 53.614L162.169 50.4641L165.204 52.2031L167.224 50.2561L166.746 52.7862L169.614 54.5701L166.37 54.7903L165.447 57.9341L164.49 55.0289L161.936 55.353Z" fill="#FFEA00"/>
<path d="M111.68 78.6222L113.321 77.044L111.892 74.1781L114.65 75.7599L116.485 73.988L116.055 76.2908L118.66 77.912L115.711 78.1093L114.872 80.968L114.001 78.3281L111.68 78.6222Z" fill="#FFEA00"/>
<path d="M180.289 62.4987C178.817 59.554 174.263 57.9341 167.491 57.9341H167.065C164.014 57.9856 160.975 58.2751 157.986 58.799C146.19 60.8033 133.027 66.0646 124.812 72.3212C124.211 72.7776 123.636 73.2375 123.092 73.694C118.153 77.9188 116.264 81.9 117.768 84.9065C119.013 87.3878 119.829 88.5729 124.942 88.9951C124.942 88.6461 124.942 88.6461 124.942 88.2971C120.481 87.8441 119.593 86.7872 118.522 84.6353C117.156 81.9069 118.984 78.19 123.676 74.1745C123.932 73.9548 124.195 73.7386 124.463 73.519C132.654 66.902 146.595 61.2906 158.87 59.3446C161.566 58.9011 164.303 58.6565 167.049 58.6136C173.732 58.5553 178.148 60.0242 179.518 62.7561C180.889 65.488 179.072 69.2289 174.368 73.2272C173.76 73.7489 170.993 75.5741 170.312 76.0821C170.414 76.3021 170.163 76.58 170.312 76.7801C171.062 76.2241 174.275 74.2809 174.944 73.7077C179.883 69.4829 181.773 65.5017 180.289 62.4987Z" fill="#FFEA00"/>
</svg>
