<svg width="143" height="304" viewBox="0 0 143 304" fill="none" xmlns="http://www.w3.org/2000/svg">
<path d="M94.3627 243.095C88.2273 236.764 84.5907 220.759 90.6075 215.74H121.068C127.05 220.759 123.441 236.743 117.313 243.095L117.145 243.269L116.936 243.472C116.762 243.646 116.58 243.814 116.385 243.974L116.238 244.093C116.084 244.212 115.938 244.33 115.77 244.442C115.517 244.628 115.253 244.8 114.982 244.959C109.928 247.904 101.72 247.904 96.6941 244.959C96.42 244.8 96.1544 244.628 95.8983 244.442L95.4656 244.114L95.2841 243.967C95.0956 243.807 94.9142 243.646 94.7467 243.486L94.5023 243.241C94.4605 243.179 94.4046 243.137 94.3627 243.095Z" fill="#D28F3F"/>
<path d="M118.423 213.702C125.368 217.758 125.368 224.34 118.423 228.395C111.478 232.45 100.205 232.45 93.2529 228.395C86.3008 224.34 86.2729 217.758 93.2529 213.702C100.233 209.647 111.471 209.647 118.423 213.702Z" fill="#C07474"/>
<path d="M115.065 215.649C120.168 218.63 120.168 223.467 115.065 226.441C109.963 229.414 101.685 229.421 96.5824 226.441C91.48 223.46 91.48 218.63 96.5824 215.649C101.685 212.669 109.977 212.676 115.065 215.649Z" fill="#EBEBEB"/>
<path d="M96.5963 220.759C101.699 217.779 109.977 217.779 115.079 220.759C116.317 221.436 117.367 222.41 118.137 223.593C117.369 224.777 116.318 225.751 115.079 226.427C109.977 229.407 101.699 229.407 96.5963 226.427C95.3571 225.751 94.3063 224.777 93.5391 223.593C94.3083 222.41 95.3587 221.436 96.5963 220.759Z" fill="#AE8484"/>
<path d="M101.671 182.941C99.6115 185.538 93.4342 186.683 90.356 180.317C87.4663 174.349 84.416 168.716 83.4947 166.517C83.3659 166.23 83.2965 165.92 83.2907 165.606C83.2848 165.292 83.3427 164.979 83.4607 164.688C83.5787 164.396 83.7545 164.132 83.9775 163.91C84.2004 163.688 84.4659 163.514 84.758 163.397C84.758 163.397 84.6743 160.005 90.5794 161.862C96.4845 163.718 100.791 166.88 103.716 172.332C106.64 177.783 105.447 181.894 101.671 182.941Z" fill="#486A1A"/>
<path d="M104.812 191.443C104.622 190.301 104.368 189.171 104.051 188.058C103.406 185.851 102.603 183.693 101.65 181.601C99.7006 177.343 97.1502 173.387 94.0765 169.854C92.3636 167.841 90.4661 165.992 88.4087 164.333C88.3459 164.284 88.304 164.416 88.3529 164.458C91.8262 167.594 94.8639 171.181 97.385 175.124C99.8159 179.006 101.733 183.187 103.088 187.562C103.465 188.791 103.828 190.019 104.149 191.262C104.47 192.504 104.714 193.802 105.028 195.066C105.028 195.191 105.258 195.254 105.258 195.066C105.2 193.849 105.05 192.638 104.812 191.443Z" fill="#BFC783"/>
<path opacity="0.1" d="M104.812 191.443C104.622 190.301 104.368 189.171 104.051 188.058C103.406 185.851 102.603 183.693 101.65 181.601C99.7006 177.343 97.1502 173.387 94.0765 169.854C92.3636 167.841 90.4661 165.992 88.4087 164.333C88.3459 164.284 88.304 164.416 88.3529 164.458C91.8262 167.594 94.8639 171.181 97.385 175.124C99.8159 179.006 101.733 183.187 103.088 187.562C103.465 188.791 103.828 190.019 104.149 191.262C104.47 192.504 104.714 193.802 105.028 195.066C105.028 195.191 105.258 195.254 105.258 195.066C105.2 193.849 105.05 192.638 104.812 191.443Z" fill="black"/>
<path d="M108.365 178.383C103.004 180.038 99.0254 175.857 100.4 169.309C101.775 162.762 108.672 155.468 111.275 157.443C112.902 155.817 116.482 156.403 118.165 161.729C119.847 167.055 118.318 180.708 108.365 178.383Z" fill="#486A1A"/>
<path d="M111.512 161.429C109.99 165.248 108.796 169.189 107.946 173.211C107.025 177.286 106.325 181.408 105.852 185.559C104.984 193.59 104.625 201.668 104.777 209.745C104.777 211.978 104.805 214.212 104.86 216.445C104.909 218.742 104.86 221.066 105.07 223.349C105.147 224.228 106.389 223.998 106.41 223.188C106.487 219.175 106.263 215.14 106.222 211.12C106.18 207.099 106.222 203.169 106.298 199.198C106.438 191.103 107.163 183.03 108.469 175.04C108.853 172.813 109.272 170.594 109.795 168.395C110.34 166.085 111.01 163.809 111.617 161.513C111.666 161.429 111.575 161.275 111.512 161.429Z" fill="#BFC783"/>
<path opacity="0.1" d="M111.512 161.429C109.99 165.248 108.796 169.189 107.946 173.211C107.025 177.286 106.325 181.408 105.852 185.559C104.984 193.59 104.625 201.668 104.777 209.745C104.777 211.978 104.805 214.212 104.86 216.445C104.909 218.742 104.86 221.066 105.07 223.349C105.147 224.228 106.389 223.998 106.41 223.188C106.487 219.175 106.263 215.14 106.222 211.12C106.18 207.099 106.222 203.169 106.298 199.198C106.438 191.103 107.163 183.03 108.469 175.04C108.853 172.813 109.272 170.594 109.795 168.395C110.34 166.085 111.01 163.809 111.617 161.513C111.666 161.429 111.575 161.275 111.512 161.429Z" fill="black"/>
<path d="M98.397 196.329C96.8474 199.512 91.6124 200.726 86.88 197.125C82.1476 193.523 75.2792 176.98 80.4863 176.715C80.8842 174.14 95.8982 175.892 100.728 186.592C104.253 194.375 98.397 196.329 98.397 196.329Z" fill="#486A1A"/>
<path d="M104.679 203.309C104.233 202.297 103.72 201.315 103.144 200.37C101.999 198.425 100.755 196.541 99.4162 194.724C96.6665 191.032 93.5465 187.631 90.1049 184.575C88.2265 182.821 86.2378 181.189 84.151 179.689C84.0951 179.654 84.0882 179.779 84.151 179.814C85.8401 181.21 87.5433 182.606 89.1347 184.163C90.7822 185.76 92.3477 187.44 93.8253 189.195C96.6899 192.552 99.2874 196.127 101.594 199.889C102.243 200.957 102.843 202.06 103.507 203.121C104.17 204.181 104.972 205.277 105.601 206.408C105.691 206.576 105.936 206.576 105.845 206.345C105.44 205.403 105.112 204.321 104.679 203.309Z" fill="#BFC783"/>
<path opacity="0.1" d="M104.679 203.309C104.233 202.297 103.72 201.315 103.144 200.37C101.999 198.425 100.755 196.541 99.4162 194.724C96.6665 191.032 93.5465 187.631 90.1049 184.575C88.2265 182.821 86.2378 181.189 84.151 179.689C84.0951 179.654 84.0882 179.779 84.151 179.814C85.8401 181.21 87.5433 182.606 89.1347 184.163C90.7822 185.76 92.3477 187.44 93.8253 189.195C96.6899 192.552 99.2874 196.127 101.594 199.889C102.243 200.957 102.843 202.06 103.507 203.121C104.17 204.181 104.972 205.277 105.601 206.408C105.691 206.576 105.936 206.576 105.845 206.345C105.44 205.403 105.112 204.321 104.679 203.309Z" fill="black"/>
<path d="M108.211 194.996C105.147 194.298 104.993 190.612 108.825 186.103C112.657 181.594 122.304 179.619 122.785 181.518C124.928 181.518 124.928 188.232 120.182 194.403C115.435 200.573 108.497 199.121 108.211 194.996Z" fill="#486A1A"/>
<path d="M114.214 188.428C110.155 191.245 107.061 195.241 105.349 199.875C105.244 200.133 105.698 200.517 105.81 200.231C107.545 195.649 110.45 191.602 114.235 188.491C114.235 188.491 114.256 188.4 114.214 188.428Z" fill="#BFC783"/>
<path opacity="0.1" d="M114.214 188.428C110.155 191.245 107.061 195.241 105.349 199.875C105.244 200.133 105.698 200.517 105.81 200.231C107.545 195.649 110.45 191.602 114.235 188.491C114.235 188.491 114.256 188.4 114.214 188.428Z" fill="black"/>
<path d="M111.715 217.409C107.471 219.126 109.286 224.179 113.432 228.018C117.578 231.857 123.497 232.862 126.345 232.66C129.193 232.458 129.919 232.074 129.919 232.074C129.919 232.074 130.373 227.704 129.919 225.045C129.462 222.478 128.276 220.098 126.502 218.188C124.728 216.278 122.442 214.919 119.917 214.275C113.299 212.488 111.715 214.882 111.715 217.409Z" fill="#486A1A"/>
<path d="M123.441 224.87C121.543 222.594 119.359 220.571 116.943 218.853C114.528 217.269 111.303 215.908 108.406 216.899C107.283 217.283 105.538 218.4 105.747 219.796C105.747 219.928 106.012 220.277 106.18 220.082C106.628 219.439 107.14 218.842 107.708 218.302C108.374 217.812 109.161 217.513 109.984 217.436C112.059 217.291 114.13 217.762 115.938 218.791C118.807 220.312 121.124 222.671 123.406 224.933C123.441 224.947 123.476 224.891 123.441 224.87Z" fill="#BFC783"/>
<path opacity="0.1" d="M123.441 224.87C121.543 222.594 119.359 220.571 116.943 218.853C114.528 217.269 111.303 215.908 108.406 216.899C107.283 217.283 105.538 218.4 105.747 219.796C105.747 219.928 106.012 220.277 106.18 220.082C106.628 219.439 107.14 218.842 107.708 218.302C108.374 217.812 109.161 217.513 109.984 217.436C112.059 217.291 114.13 217.762 115.938 218.791C118.807 220.312 121.124 222.671 123.406 224.933C123.441 224.947 123.476 224.891 123.441 224.87Z" fill="black"/>
<path d="M95.5842 200.817C95.626 199.016 92.3664 195.324 84.4162 195.931C80.7866 196.224 77.4362 197.202 74.7907 199.77C73.8577 200.605 73.2373 201.732 73.0318 202.967C72.954 203.441 73.0197 203.927 73.2202 204.363C73.3943 204.671 73.6324 204.937 73.9182 205.145C75.8168 206.68 78.2947 206.276 80.5353 206.848C84.0253 207.734 91.3124 210.896 95.5213 208.788C99.7303 206.68 98.1039 202.136 95.5842 200.817Z" fill="#486A1A"/>
<path d="M102.627 205.773C98.0829 199.575 89.2183 199.051 82.2872 200.363C80.0075 200.784 77.7893 201.487 75.6841 202.457C75.6841 202.457 75.6841 202.548 75.6841 202.534C79.3057 201.217 83.1123 200.48 86.9638 200.349C90.7636 200.153 94.5551 200.871 98.0201 202.443C99.7203 203.298 101.232 204.485 102.466 205.933C102.62 206.101 102.718 205.899 102.627 205.773Z" fill="#BFC783"/>
<path opacity="0.1" d="M102.627 205.773C98.0829 199.575 89.2183 199.051 82.2872 200.363C80.0075 200.784 77.7893 201.487 75.6841 202.457C75.6841 202.457 75.6841 202.548 75.6841 202.534C79.3057 201.217 83.1123 200.48 86.9638 200.349C90.7636 200.153 94.5551 200.871 98.0201 202.443C99.7203 203.298 101.232 204.485 102.466 205.933C102.62 206.101 102.718 205.899 102.627 205.773Z" fill="black"/>
<path d="M115.826 185.524C115.715 188.567 120.014 190.333 124.139 187.702C128.265 185.07 132.627 182.509 136.466 181.517C140.305 180.526 142.127 177.392 140.912 175.878C139.698 174.363 137.771 170.538 127.65 171.787C117.529 173.037 113.977 177.588 112.594 180.798C111.212 184.009 114.305 186.403 115.826 185.524Z" fill="#486A1A"/>
<path d="M132.257 175.864C130.796 175.724 129.323 175.879 127.922 176.317C126.649 176.647 125.408 177.093 124.216 177.651C121.848 178.758 119.716 180.31 117.934 182.222C117.431 182.761 116.965 183.332 116.538 183.933C116.096 184.467 115.731 185.062 115.456 185.699C115.393 185.901 115.679 186.229 115.861 186.02C116.357 185.447 116.733 184.742 117.201 184.135C117.706 183.484 118.249 182.864 118.827 182.278C119.994 181.102 121.299 180.073 122.715 179.214C124.08 178.375 125.525 177.673 127.029 177.12C127.853 176.827 128.692 176.575 129.542 176.366C130.431 176.096 131.356 175.967 132.285 175.982C132.278 175.982 132.299 175.871 132.257 175.864Z" fill="#BFC783"/>
<path opacity="0.1" d="M132.257 175.864C130.796 175.724 129.323 175.879 127.922 176.317C126.649 176.647 125.408 177.093 124.216 177.651C121.848 178.758 119.716 180.31 117.934 182.222C117.431 182.761 116.965 183.332 116.538 183.933C116.096 184.467 115.731 185.062 115.456 185.699C115.393 185.901 115.679 186.229 115.861 186.02C116.357 185.447 116.733 184.742 117.201 184.135C117.706 183.484 118.249 182.864 118.827 182.278C119.994 181.102 121.299 180.073 122.715 179.214C124.08 178.375 125.525 177.673 127.029 177.12C127.853 176.827 128.692 176.575 129.542 176.366C130.431 176.096 131.356 175.967 132.285 175.982C132.278 175.982 132.299 175.871 132.257 175.864Z" fill="black"/>
<path d="M108.581 201.948C107.185 200.552 103.325 200.859 101.51 205.04C99.6954 209.221 103.506 213.793 103.932 215.084C105.684 214.072 107.052 214.672 110.137 214.072C111.857 213.668 113.384 212.684 114.462 211.286C115.54 209.887 116.103 208.16 116.056 206.394C115.854 202.555 114.242 200.028 108.581 201.948Z" fill="#486A1A"/>
<path d="M108.525 201.529C107.758 202.017 107.117 202.68 106.654 203.463C106.152 204.19 105.743 204.978 105.44 205.808C104.78 207.501 104.594 209.343 104.902 211.134C104.902 211.203 104.972 211.134 104.972 211.099C104.828 209.297 105.135 207.489 105.866 205.836C106.207 205.091 106.633 204.389 107.136 203.742C107.402 203.396 107.688 203.067 107.995 202.758C108.286 202.504 108.55 202.221 108.783 201.913C108.902 201.766 108.741 201.424 108.525 201.529Z" fill="#BFC783"/>
<path opacity="0.1" d="M108.525 201.529C107.758 202.017 107.117 202.68 106.654 203.463C106.152 204.19 105.743 204.978 105.44 205.808C104.78 207.501 104.594 209.343 104.902 211.134C104.902 211.203 104.972 211.134 104.972 211.099C104.828 209.297 105.135 207.489 105.866 205.836C106.207 205.091 106.633 204.389 107.136 203.742C107.402 203.396 107.688 203.067 107.995 202.758C108.286 202.504 108.55 202.221 108.783 201.913C108.902 201.766 108.741 201.424 108.525 201.529Z" fill="black"/>
<path d="M102.746 213.179C101.957 210.163 98.1389 208.474 93.1482 208.104C90.6873 207.881 88.2134 208.361 86.015 209.489C83.8165 210.618 81.9839 212.347 80.7308 214.477C78.1202 218.937 77.0383 222.49 78.6368 223.076C80.2352 223.663 86.929 224.591 91.2566 224.975C95.5842 225.359 100.994 224.577 104.519 221.29C108.044 218.002 106.878 213.87 102.746 213.179Z" fill="#486A1A"/>
<path d="M102.934 212.781C101.172 212.328 99.3353 212.242 97.5386 212.53C95.8049 212.734 94.0987 213.128 92.4502 213.702C90.7098 214.316 89.024 215.075 87.4106 215.971C86.566 216.431 85.7354 216.92 84.9257 217.444C84.1427 217.9 83.3959 218.415 82.6921 218.986C82.6921 218.986 82.6921 219.112 82.6921 219.091C83.5088 218.721 84.2766 218.204 85.0584 217.765C85.8401 217.325 86.7545 216.822 87.62 216.369C89.2287 215.546 90.897 214.846 92.6107 214.275C94.3284 213.698 96.1055 213.316 97.9086 213.137C99.5939 213.048 101.284 213.093 102.962 213.269C103.339 213.283 103.137 212.851 102.934 212.781Z" fill="#BFC783"/>
<path opacity="0.1" d="M102.934 212.781C101.172 212.328 99.3353 212.242 97.5386 212.53C95.8049 212.734 94.0987 213.128 92.4502 213.702C90.7098 214.316 89.024 215.075 87.4106 215.971C86.566 216.431 85.7354 216.92 84.9257 217.444C84.1427 217.9 83.3959 218.415 82.6921 218.986C82.6921 218.986 82.6921 219.112 82.6921 219.091C83.5088 218.721 84.2766 218.204 85.0584 217.765C85.8401 217.325 86.7545 216.822 87.62 216.369C89.2287 215.546 90.897 214.846 92.6107 214.275C94.3284 213.698 96.1055 213.316 97.9086 213.137C99.5939 213.048 101.284 213.093 102.962 213.269C103.339 213.283 103.137 212.851 102.934 212.781Z" fill="black"/>
<path d="M111.82 205.787C108.392 203.058 109.537 196.524 121.543 196.175C133.548 195.826 142.113 198.967 141.736 202.82C143.662 204.747 142.685 210.163 132.969 211.853C123.253 213.542 109.349 212.697 111.82 205.787Z" fill="#486A1A"/>
<path d="M136.089 202.862C132.547 202.28 128.954 202.07 125.368 202.234C122.033 202.214 118.707 202.596 115.463 203.372C114.635 203.599 113.829 203.9 113.055 204.272C112.694 204.439 112.342 204.625 112.001 204.831C111.729 204.998 111.422 205.145 111.303 205.459C111.294 205.509 111.297 205.56 111.311 205.609C111.326 205.658 111.351 205.702 111.386 205.739C111.42 205.777 111.463 205.805 111.51 205.823C111.558 205.841 111.609 205.848 111.659 205.843C112.387 205.561 113.088 205.213 113.753 204.803C114.433 204.504 115.133 204.252 115.847 204.049C117.218 203.659 118.619 203.383 120.035 203.225C123.397 202.805 126.783 202.619 130.17 202.667C132.138 202.667 134.107 202.841 136.068 203.002C136.124 203.002 136.145 202.869 136.089 202.862Z" fill="#BFC783"/>
<path opacity="0.1" d="M136.089 202.862C132.547 202.28 128.954 202.07 125.368 202.234C122.033 202.214 118.707 202.596 115.463 203.372C114.635 203.599 113.829 203.9 113.055 204.272C112.694 204.439 112.342 204.625 112.001 204.831C111.729 204.998 111.422 205.145 111.303 205.459C111.294 205.509 111.297 205.56 111.311 205.609C111.326 205.658 111.351 205.702 111.386 205.739C111.42 205.777 111.463 205.805 111.51 205.823C111.558 205.841 111.609 205.848 111.659 205.843C112.387 205.561 113.088 205.213 113.753 204.803C114.433 204.504 115.133 204.252 115.847 204.049C117.218 203.659 118.619 203.383 120.035 203.225C123.397 202.805 126.783 202.619 130.17 202.667C132.138 202.667 134.107 202.841 136.068 203.002C136.124 203.002 136.145 202.869 136.089 202.862Z" fill="black"/>
<path d="M46.0744 7.64769C47.4029 6.09467 49.1943 4.99825 51.1913 4.51576C53.1052 4.0538 54.2836 4.08512 56.1105 3.35694C57.9374 2.62877 59.3451 1.46995 61.0771 0.749607C64.8891 -0.816359 69.4761 0.185856 72.7344 2.6914C74.1817 3.80324 75.5262 5.2361 77.3293 5.51015C78.2297 5.5766 79.1338 5.5766 80.0341 5.51015C82.8812 5.51015 85.5148 7.35799 87.0095 9.76175C88.1399 11.6737 88.8135 13.8163 88.9788 16.0256C89.2002 18.2101 88.4252 20.2459 88.5517 22.4148C88.6466 23.9807 89.6431 25.4214 90.6238 26.6272C91.9366 28.248 92.9964 29.4929 93.6607 31.5522C94.2274 33.1217 94.3878 34.8069 94.1273 36.4536C93.9876 37.2731 93.6421 38.0446 93.1225 38.6972C92.6029 39.3499 91.9258 39.8627 91.1536 40.1885C91.7468 38.6225 90.8689 36.4928 89.8804 35.1617C90.2442 36.6181 90.4577 40.2355 86.7169 43.3596C84.0912 45.5519 80.2951 46.3741 76.8153 46.3662C73.1694 46.3662 69.484 45.1134 65.8618 46.0374C64.8689 46.3343 63.8922 46.6819 62.9356 47.0787C61.2726 47.6991 59.5502 48.1503 57.795 48.4255C56.1184 48.6917 54.4101 48.5586 52.7493 48.7856C50.0037 49.1721 47.2125 48.5086 44.9435 46.93C43.4888 45.7984 42.3118 44.3553 41.501 42.7091C40.6901 41.0628 40.2663 39.2561 40.2616 37.4245C39.6492 38.2097 39.2589 39.142 39.1306 40.1258C38.3309 39.1683 37.7709 38.0374 37.496 36.8252C37.2212 35.6129 37.2393 34.3535 37.5489 33.1495C38.063 31.2625 39.2888 29.5712 39.4391 27.6686C39.5735 25.9852 38.8775 24.3487 38.7036 22.6731C38.5536 20.708 39.089 18.7513 40.2203 17.1298C41.3515 15.5082 43.0103 14.3198 44.9197 13.7628C44.6874 12.719 44.6699 11.6395 44.8683 10.5889C45.0666 9.53821 45.4769 8.5379 46.0744 7.64769Z" fill="#263238"/>
<path d="M20.0675 294.713C46.8059 306.621 90.1575 306.621 116.932 294.713C143.707 282.805 143.671 263.493 116.932 251.578C90.1941 239.663 46.8424 239.67 20.0675 251.578C-6.70744 263.486 -6.67089 282.805 20.0675 294.713Z" fill="#E0E0E0"/>
<path d="M79.4705 52.7104C87.2025 54.2709 90.0141 56.5132 94.3511 63.7602C97.5564 69.1164 99.4964 72.5888 104.719 80.1381L121.048 81.9094L117.744 93.7042C117.744 93.7042 107.685 94.0206 101.992 94.4704C97.7321 94.8078 96.755 94.4704 94.1051 91.2792C88.6224 84.6929 82.0361 75.3161 82.0361 75.3161L79.4705 52.7104Z" fill="#E0E0E0"/>
<path opacity="0.02" d="M79.4705 52.7104C87.2025 54.2709 90.0141 56.5132 94.3511 63.7602C97.5564 69.1164 99.4964 72.5888 104.719 80.1381L121.048 81.9094L117.744 93.7042C117.744 93.7042 107.685 94.0206 101.992 94.4704C97.7321 94.8078 96.755 94.4704 94.1051 91.2792C88.6224 84.6929 82.0361 75.3161 82.0361 75.3161L79.4705 52.7104Z" fill="black"/>
<path d="M94.8431 101.324L97.0784 166.694C97.0784 166.694 77.0595 161.774 59.1212 164.803C41.1829 167.833 36.9092 172.05 36.9092 172.05L48.4791 70.9226L89.8736 72.1738C89.8736 72.1738 94.8431 78.9639 94.8431 101.324Z" fill="#EBEBEB"/>
<path d="M40.515 274.809C40.3253 278.963 39.5942 281.1 37.7737 283.343C36.7292 284.507 35.38 285.356 33.8784 285.795C32.3768 286.233 30.7825 286.243 29.2755 285.824C26.0632 284.959 22.7173 282.555 21.9722 279.069C21.2272 275.582 21.923 272.201 22.6752 269.502L40.515 274.809Z" fill="#263238"/>
<path d="M29.7394 207.154C32.0661 195.872 34.6598 190.825 35.1448 188.26C35.1448 188.26 38.561 161.612 40.1074 138.936C40.8525 128.02 40.5853 120.661 47.7199 108.008L89.1917 118.201C89.6978 124.014 93.5989 163.58 91.68 197.7C90.1055 225.704 88.053 234.842 87.8421 239.516C87.7226 242.173 87.7788 243.93 87.8913 247.621C87.9405 249.111 88.067 250.334 88.9316 251.276C90.3489 252.696 91.927 253.946 93.6341 255.001C96.8604 257.11 98.3436 258.284 102.034 259.598C102.755 259.813 103.445 260.12 104.086 260.512C104.399 260.701 104.662 260.961 104.854 261.271C105.046 261.582 105.161 261.934 105.19 262.297C105.19 263.296 104.276 264.083 103.348 264.575C100.009 266.346 95.8342 265.981 92.1861 264.926C88.538 263.872 85.157 262.115 81.4667 261.053C78.9221 260.35 76.23 259.992 73.8963 258.804C73.1268 258.479 72.4866 257.908 72.0758 257.18C71.8452 256.546 71.7847 255.863 71.9 255.198C72.1812 252.274 72.4905 251.353 72.4132 248.408C72.3429 245.596 71.9141 240.444 71.7103 237.646C71.5205 235.292 68.5331 218.422 68.983 207.99C69.1084 204.8 68.998 201.605 68.6526 198.431L64.9623 161.366C63.2753 167.559 57.0264 185.497 55.0794 193.7C52.6895 203.71 51.4032 215.821 46.4336 234.146C45.0277 239.305 42.441 245.526 41.8014 248.647C41.5272 252.604 40.0722 262.972 38.1673 267.337C35.2784 273.959 26.4428 273.748 25.6977 267.998C25.0721 263.113 28.3617 250.327 28.5093 247.122C28.6569 243.916 27.0684 220.298 29.7394 207.154Z" fill="#C8856A"/>
<path d="M27.1738 250.84C26.4709 254.966 25.8523 258.094 25.3814 260.484C24.0458 264.561 23.5257 266.529 22.7735 269.179C21.5364 273.509 21.7754 277.389 23.1039 279.723C25.0791 283.174 33.0571 286.752 37.2535 282.295C40.6837 278.675 40.5432 276.946 40.5361 271.569C40.5361 269.882 40.5361 268.356 40.5361 266.915C40.6416 262.108 40.7259 261.173 41.5132 258.122C41.963 256.379 41.5132 253.722 41.9068 251.873C42.3004 249.863 42.4691 248.984 41.7873 248.668C41.7873 248.668 41.4359 251.241 41 253.103C40.5994 254.811 40.2971 256.533 39.8965 258.242C39.4326 260.35 39.0389 262.459 38.3852 264.533C38.3149 264.758 38.1954 265.032 37.9424 265.06C37.6893 265.088 37.4363 264.736 37.4222 264.448C37.4357 264.276 37.4133 264.102 37.3565 263.939C37.2996 263.776 37.2095 263.626 37.0919 263.499C36.7478 263.228 36.3636 263.012 35.9531 262.86C35.1378 262.561 34.2912 262.356 33.4297 262.248C32.1987 262.003 30.9367 261.953 29.6902 262.101C29.322 262.146 28.9714 262.284 28.671 262.501C28.4039 262.712 28.3125 263.007 28.0805 263.204C27.9951 263.302 27.8779 263.367 27.7495 263.388C27.621 263.408 27.4894 263.383 27.3776 263.317C27.2839 263.219 27.2267 263.093 27.216 262.958C27.1492 262.474 27.135 261.983 27.1738 261.496C27.2792 258.804 27.476 256.161 27.8767 253.483C28.2788 251.381 28.4928 249.247 28.5163 247.107C27.7556 248.216 27.2932 249.501 27.1738 250.84Z" fill="#37474F"/>
<path d="M69.5382 258.002L111.846 266.508C112.029 266.953 112.095 267.437 112.037 267.914C111.979 268.392 111.8 268.847 111.516 269.235C109.97 271.041 104.761 273.452 98.3225 272.75C91.8838 272.047 88.3763 269.404 86.0004 267.752C84.7728 266.838 83.4335 266.084 82.0149 265.51C80.4826 264.877 78.2262 264.849 76.5955 264.638C75.1485 264.367 73.7226 263.994 72.3288 263.52C71.3174 263.218 70.3661 262.742 69.5171 262.114C69.3694 261.384 69.3057 260.638 69.3274 259.893C69.3484 259.338 69.4398 258.544 69.5382 258.002Z" fill="#263238"/>
<path d="M79.2737 254.193C77.9522 252.787 76.1809 252.021 74.3955 251.262C72.8842 250.608 72.4695 250.01 72.4203 248.401C72.4203 248.26 71.1902 248.352 71.0145 248.541C70.838 248.729 70.7005 248.95 70.61 249.191C70.5195 249.433 70.4778 249.69 70.4873 249.947C70.3819 251.156 70.2272 251.718 70.0164 252.97C69.5454 255.746 68.8706 256.625 69.3135 259.886C71.2043 262.213 77.0455 263.324 80.1875 263.71C85.1079 264.315 89.0372 268.265 92.7274 269.446C99.5035 271.611 106.146 270.451 108.719 269.2C111.699 267.752 113.372 265.369 110.926 263.64C109.429 262.585 100.944 258.382 99.4191 257.588C98.2101 256.948 97.0574 256.182 95.9046 255.521C95.7102 255.396 95.4965 255.303 95.272 255.247C94.9973 255.219 94.7197 255.248 94.4566 255.331C92.968 255.671 91.5157 256.154 90.1196 256.772C89.8726 256.852 89.6439 256.979 89.4471 257.148C89.2503 257.317 89.0894 257.524 88.9739 257.756C88.7138 258.586 90.4359 260.048 89.3956 260.315C88.4608 260.561 86.8581 259.387 86.1201 259.008C83.688 257.749 81.1997 256.33 79.4143 254.305C79.3733 254.261 79.3259 254.223 79.2737 254.193Z" fill="#37474F"/>
<path d="M89.1216 105.956L89.5574 110.173C93.557 133.489 93.9295 164.389 93.5008 173.78C92.2496 201.46 88.6788 250.277 88.6788 250.277C88.6788 250.277 87.5752 252.991 79.7026 253.616C73.6435 254.101 70.1219 252.042 70.1219 252.042C70.1219 252.042 67.3103 218.949 66.8674 210.957C66.7184 207.537 66.7912 204.111 67.0854 200.701C67.4451 196.444 67.3933 192.162 66.9307 187.915L64.822 164.276C64.822 164.276 56.9775 197.018 56.2183 201.003C52.4296 220.994 43.2356 258.052 43.2356 258.052C43.2356 258.052 36.832 259.739 31.0682 258.719C25.3043 257.7 24.0039 255.669 24.0039 255.669C24.0039 255.669 27.5677 213.993 28.4674 205.917C29.6764 195.12 30.794 190.094 31.6094 185.673C32.5724 180.471 33.0152 160.86 33.7181 149.452C34.168 141.671 34.4773 135.759 35.4262 130.044C37.3944 118.095 43.2004 110.911 45.4005 106.511L45.745 104.156C52.2539 109.393 76.9331 112.626 89.1216 105.956Z" fill="#455A64"/>
<path d="M64.8149 164.283L70.9584 141.973C70.9584 141.973 78.9364 140.448 82.8587 136.132C82.8587 136.132 81.973 141.579 73.7208 144.363L67.9148 163.855L66.8253 186.77L64.8149 164.283Z" fill="#37474F"/>
<path d="M55.5575 50.6507L44.7397 53.5326C42.5818 54.2355 45.0139 66.9793 44.4094 81.5296C43.7978 96.4664 39.5522 120.64 39.5522 120.64C39.5522 120.64 49.6812 124.857 67.8444 124.569C85.7757 124.274 91.1319 118.678 91.1319 118.678L88.7209 101.035L87.5189 87.1529C87.5189 87.1529 93.9646 78.1275 90.3798 69.2567C86.7949 60.386 74.4167 48.8723 74.4167 48.8723L68.8566 49.1464L55.5575 50.6507Z" fill="#D0D0D0"/>
<path opacity="0.7" d="M55.5575 50.6507L44.7397 53.5326C42.5818 54.2355 45.0139 66.9793 44.4094 81.5296C43.7978 96.4664 39.5522 120.64 39.5522 120.64C39.5522 120.64 49.6812 124.857 67.8444 124.569C85.7757 124.274 91.1319 118.678 91.1319 118.678L88.7209 101.035L87.5189 87.1529C87.5189 87.1529 93.9646 78.1275 90.3798 69.2567C86.7949 60.386 74.4167 48.8723 74.4167 48.8723L68.8566 49.1464L55.5575 50.6507Z" fill="white"/>
<path opacity="0.3" d="M54.4819 86.0705C55.6515 87.7798 57.2422 89.1585 59.1003 90.0733C60.9583 90.9882 63.021 91.4084 65.0889 91.2932C67.0283 91.1738 68.9093 90.5833 70.569 89.5728C72.2287 88.5623 73.6169 87.1623 74.6133 85.4941C74.6133 85.4941 73.3692 92.9801 64.393 93.1488C55.4168 93.3175 54.4819 86.0705 54.4819 86.0705Z" fill="#D0D0D0"/>
<path d="M68.4207 49.5824C72.8912 53.3149 79.85 58.3336 83.9761 63.725C92.3126 74.6342 94.1261 84.6717 94.7869 97.3523C94.9204 78.3736 97.24 67.7245 74.4024 48.1485C70.3255 44.6339 68.7088 43.8748 68.7088 43.8748L68.4207 49.5824Z" fill="#E0E0E0"/>
<path d="M53.3856 47.0801C53.7159 51.7685 58.6574 63.5141 59.1143 76.3071C59.5712 89.1001 52.4999 172.198 52.4999 172.198C52.4999 172.198 38.9548 173.913 28.9805 168.234C28.9805 168.234 32.495 138.086 40.2271 104.585C42.2163 95.8973 38.5822 85.1216 37.8512 73.4111C37.444 67.0472 38.2723 60.6645 40.2903 54.6153C40.2903 54.6153 47.5444 52.1902 49.7585 50.9039C51.243 49.9222 52.4836 48.6143 53.3856 47.0801Z" fill="#F0F0F0"/>
<path d="M52.8444 49.3505C53.1607 50.8617 53.6668 52.6893 54.2502 54.8051C55.8036 60.4776 57.9405 68.2377 58.2287 76.3423C58.6504 88.2918 52.3804 163.138 51.6845 171.39C50.8832 171.46 49.4634 171.559 47.6569 171.559C42.7365 171.559 35.7706 170.856 29.9294 167.742C30.4707 163.363 34.0696 135.302 41.0636 104.782C42.3639 99.1026 41.3377 92.5866 40.2482 85.691C39.6226 81.7125 38.9689 77.6005 38.7088 73.3619C38.3428 67.2602 39.1053 61.1433 40.9581 55.3182C42.5467 54.777 48.1981 52.8229 50.1803 51.6701C51.192 51.0515 52.0925 50.2674 52.8444 49.3505ZM53.3856 47.0801C52.4756 48.6174 51.2252 49.9255 49.7305 50.9039C47.5163 52.1902 40.2622 54.6153 40.2622 54.6153C38.2442 60.6645 37.4159 67.0472 37.8231 73.4111C38.526 85.1216 42.1882 95.9043 40.199 104.585C32.5232 138.086 28.9524 168.234 28.9524 168.234C35.1732 171.748 42.7787 172.451 47.6288 172.451C49.2465 172.462 50.8635 172.38 52.4718 172.205C52.4718 172.205 59.5009 89.1142 59.0862 76.3142C58.6715 63.5142 53.6878 51.7755 53.3575 47.0871L53.3856 47.0801Z" fill="#EBEBEB"/>
<path d="M77.2354 15.0835C78.5569 16.0746 80.3001 19.1674 80.0471 24.3759C79.9135 25.9505 80.9257 27.5953 80.989 30.5334C81.242 41.6465 79.302 43.6498 76.3216 45.0275C74.2144 45.9834 71.9225 46.4634 69.6088 46.4333L69.9603 51.8035C71.8722 54.9596 71.8089 56.7239 71.4926 60.8078C61.5394 57.954 53.8214 51.1358 53.8144 51.1147L53.4419 38.5748C53.4419 38.5748 52.5 38.3147 52.5 38.3217C51.7992 38.8747 50.9325 39.1755 50.0398 39.1755C49.1471 39.1755 48.2804 38.8747 47.5796 38.3217C45.3162 36.6628 43.7768 32.4946 45.7169 30.1047C47.6569 27.7148 51.2066 28.6356 52.507 30.6881C53.8074 32.7406 56.9072 32.0939 55.902 28.9519C57.3079 28.249 59.0511 26.7658 57.6242 20.9879C57.3008 19.5048 57.7859 16.9321 59.1706 15.6528C61.4761 13.5441 66.0591 13.8885 68.7021 16.433C72.2447 13.4527 74.5011 13.038 77.2354 15.0835Z" fill="#C8856A"/>
<path d="M76.9752 21.2129L73.3201 20.5099C73.3538 20.27 73.436 20.0393 73.5617 19.8322C73.6874 19.625 73.854 19.4455 74.0513 19.3048C74.2486 19.1641 74.4725 19.065 74.7093 19.0136C74.9461 18.9621 75.1909 18.9595 75.4288 19.0057C75.9198 19.1063 76.3536 19.3911 76.6412 19.8016C76.9288 20.212 77.0483 20.717 76.9752 21.2129Z" fill="#263238"/>
<path d="M60.6044 22.9349L64.1189 21.6205C64.0443 21.3894 63.9234 21.176 63.7636 20.9933C63.6037 20.8106 63.4082 20.6624 63.1892 20.5578C62.9701 20.4532 62.732 20.3943 62.4894 20.3849C62.2468 20.3754 62.0048 20.4156 61.7782 20.5028C61.3061 20.6778 60.92 21.0288 60.7011 21.4823C60.4823 21.9358 60.4476 22.4564 60.6044 22.9349Z" fill="#263238"/>
<path d="M65.384 35.531L70.5855 37.1477C70.4979 37.4921 70.3407 37.8149 70.1238 38.0963C69.9069 38.3777 69.6347 38.6119 69.324 38.7843C69.0133 38.9568 68.6707 39.0639 68.3171 39.0992C67.9635 39.1344 67.6064 39.0971 67.2678 38.9893C66.5717 38.7623 65.9887 38.2776 65.6385 37.6346C65.2882 36.9916 65.1972 36.239 65.384 35.531Z" fill="#AF6152"/>
<path d="M68.4629 39.1019C68.4354 38.4604 68.1555 37.8559 67.6841 37.42C67.2127 36.9841 66.5881 36.7524 65.9464 36.7752C65.7482 36.7788 65.5515 36.8119 65.363 36.8736C65.4578 37.3703 65.6848 37.8322 66.02 38.2108C66.3552 38.5893 66.7863 38.8704 67.2679 39.0245C67.6546 39.1439 68.064 39.1704 68.4629 39.1019Z" fill="#FFA8A7"/>
<path d="M68.6248 24.0737L69.6861 33.9637L74.5854 32.4735L68.6248 24.0737Z" fill="#AF6152"/>
<path d="M69.6439 46.4122C66.0731 46.2927 58.0178 44.3527 56.0566 39.6572C56.0566 39.6572 56.4081 43.0312 60.8435 45.5476C64.358 47.5369 69.7494 47.9656 69.7494 47.9656L69.6439 46.4122Z" fill="#AF6152"/>
<path d="M65.6443 26.6182C65.6258 26.9286 65.5159 27.2265 65.3284 27.4745C65.1408 27.7224 64.8841 27.9093 64.5905 28.0116C64.2969 28.1139 63.9796 28.1269 63.6786 28.0491C63.3776 27.9713 63.1063 27.8062 62.899 27.5745C62.6918 27.3427 62.5577 27.0548 62.5138 26.747C62.4699 26.4393 62.5181 26.1254 62.6524 25.8449C62.7866 25.5645 63.0008 25.3301 63.2681 25.1712C63.5353 25.0124 63.8437 24.9362 64.1541 24.9523C64.5726 24.9759 64.9645 25.1646 65.2439 25.4769C65.5233 25.7893 65.6673 26.1998 65.6443 26.6182Z" fill="#263238"/>
<path d="M77.3197 25.8803C77.261 26.1878 77.1124 26.471 76.8927 26.694C76.673 26.917 76.392 27.0698 76.0854 27.133C75.7788 27.1962 75.4603 27.167 75.1703 27.049C74.8803 26.9311 74.6318 26.7297 74.4564 26.4705C74.2809 26.2112 74.1863 25.9057 74.1846 25.5926C74.1829 25.2796 74.2741 24.973 74.4468 24.7119C74.6194 24.4507 74.8657 24.2466 75.1544 24.1256C75.4431 24.0045 75.7612 23.9718 76.0685 24.0316C76.2723 24.0704 76.4664 24.149 76.6397 24.263C76.813 24.377 76.962 24.5241 77.0783 24.6959C77.1946 24.8677 77.2757 25.0608 77.3172 25.264C77.3586 25.4673 77.3594 25.6767 77.3197 25.8803Z" fill="#263238"/>
<path d="M46.75 52.2184C48.5354 51.4241 50.5598 49.1888 51.6071 47.9447C52.6545 46.7005 53.0129 45.8359 53.7159 45.8359V48.0782C53.7159 48.0782 59.3954 60.9626 59.3391 72.2443C59.4657 79.9763 58.6362 89.065 58.6362 89.065C56.3096 83.5963 50.9042 74.5991 50.9042 74.5991L53.8564 67.5208C52.0851 60.5198 48.0434 55.9719 46.75 52.2184Z" fill="#E0E0E0"/>
<path d="M54.763 90.9416C54.6231 90.8614 54.4572 90.8401 54.3017 90.8823C54.1461 90.9245 54.0137 91.0267 53.9335 91.1665C53.8534 91.3063 53.832 91.4723 53.8742 91.6278C53.9164 91.7834 54.0186 91.9158 54.1585 91.9959L54.6856 92.2982C54.7308 92.327 54.7832 92.3423 54.8368 92.3423C54.8903 92.3423 54.9427 92.327 54.9879 92.2982C55.113 92.2165 55.217 92.1065 55.2915 91.977C55.366 91.8475 55.4089 91.7023 55.4167 91.5531C55.4213 91.4993 55.4121 91.4453 55.39 91.3961C55.3678 91.3469 55.3335 91.3041 55.2901 91.272L54.763 90.9697V90.9416Z" fill="#455A64"/>
<path d="M55.4168 91.5251C55.4214 91.4713 55.4122 91.4172 55.3901 91.368C55.3679 91.3188 55.3336 91.2761 55.2902 91.2439L54.7631 90.9416C54.6733 90.8898 54.5715 90.8625 54.4678 90.8625C54.3642 90.8625 54.2624 90.8898 54.1726 90.9416C54.3343 90.8784 54.5873 91.026 54.8755 91.1947C55.1637 91.3634 55.3113 91.5813 55.0794 92.0241C54.9107 92.3475 54.7138 92.3123 54.6225 92.2702L54.6787 92.3053C54.7239 92.3341 54.7763 92.3494 54.8298 92.3494C54.8834 92.3494 54.9358 92.3341 54.981 92.3053C55.1121 92.221 55.2205 92.1058 55.2965 91.9697C55.3725 91.8336 55.4138 91.6809 55.4168 91.5251Z" fill="#37474F"/>
<path d="M57.2938 90.9063C57.0787 90.7657 56.8372 90.6704 56.584 90.6262C56.3308 90.5821 56.0713 90.59 55.8214 90.6495C55.5714 90.7091 55.3361 90.8189 55.13 90.9724C54.9239 91.1258 54.7512 91.3197 54.6225 91.5422C54.4939 91.7646 54.4119 92.0109 54.3816 92.2661C54.3513 92.5213 54.3733 92.78 54.4464 93.0264C54.5194 93.2727 54.6419 93.5016 54.8064 93.6991C54.9708 93.8966 55.1738 94.0584 55.4029 94.1748C55.5545 94.2438 55.7217 94.271 55.8873 94.2537C56.0529 94.2364 56.2108 94.1752 56.3448 94.0764C56.7338 93.8249 57.0576 93.4849 57.2897 93.0841C57.5219 92.6834 57.6557 92.2333 57.6804 91.7708C57.698 91.6054 57.6715 91.4383 57.6036 91.2864C57.5357 91.1346 57.4288 91.0034 57.2938 90.9063Z" fill="#D0D0D0"/>
<path d="M56.3165 90.9978C55.9275 91.2508 55.6037 91.5922 55.3716 91.994C55.1395 92.3959 55.0057 92.847 54.981 93.3104C54.9641 93.4757 54.9909 93.6426 55.0587 93.7944C55.1266 93.9461 55.2331 94.0774 55.3676 94.175L67.0289 100.909C67.1798 100.979 67.3467 101.007 67.5123 100.991C67.6779 100.975 67.8361 100.915 67.9708 100.817C68.3599 100.565 68.6837 100.223 68.9158 99.8213C69.1478 99.4194 69.2817 98.9683 69.3063 98.5049C69.3233 98.3396 69.2965 98.1727 69.2286 98.0209C69.1608 97.8692 69.0543 97.738 68.9197 97.6403L57.2936 90.9064C57.1383 90.8296 56.9646 90.7975 56.7921 90.8136C56.6196 90.8298 56.4549 90.8935 56.3165 90.9978Z" fill="#D0D0D0"/>
<path opacity="0.2" d="M56.3165 90.9978C55.9275 91.2508 55.6037 91.5922 55.3716 91.994C55.1395 92.3959 55.0057 92.847 54.981 93.3104C54.9641 93.4757 54.9909 93.6426 55.0587 93.7944C55.1266 93.9461 55.2331 94.0774 55.3676 94.175L67.0289 100.909C67.1798 100.979 67.3467 101.007 67.5123 100.991C67.6779 100.975 67.8361 100.915 67.9708 100.817C68.3599 100.565 68.6837 100.223 68.9158 99.8213C69.1478 99.4194 69.2817 98.9683 69.3063 98.5049C69.3233 98.3396 69.2965 98.1727 69.2286 98.0209C69.1608 97.8692 69.0543 97.738 68.9197 97.6403L57.2936 90.9064C57.1383 90.8296 56.9646 90.7975 56.7921 90.8136C56.6196 90.8298 56.4549 90.8935 56.3165 90.9978Z" fill="white"/>
<path d="M70.0374 98.8846C70.0131 99.3607 69.8761 99.8244 69.6379 100.237C69.3996 100.65 69.0668 101.001 68.6667 101.26C68.5278 101.36 68.3651 101.422 68.1949 101.439C68.0247 101.457 67.8529 101.429 67.6967 101.359L66.797 100.839C66.6577 100.74 66.5471 100.606 66.4767 100.45C66.4063 100.294 66.3786 100.123 66.3963 99.953C66.4263 99.4741 66.5693 99.0091 66.8137 98.5961C67.058 98.1831 67.3968 97.8339 67.8022 97.5771C67.9411 97.4772 68.1038 97.4156 68.274 97.3983C68.4443 97.381 68.616 97.4088 68.7722 97.4787L69.6719 97.9989C69.8048 98.1018 69.9085 98.2377 69.9726 98.393C70.0368 98.5484 70.0591 98.7179 70.0374 98.8846Z" fill="#D0D0D0"/>
<path opacity="0.35" d="M70.0374 98.8846C70.0131 99.3607 69.8761 99.8244 69.6379 100.237C69.3996 100.65 69.0668 101.001 68.6667 101.26C68.5278 101.36 68.3651 101.422 68.1949 101.439C68.0247 101.457 67.8529 101.429 67.6967 101.359L66.797 100.839C66.6577 100.74 66.5471 100.606 66.4767 100.45C66.4063 100.294 66.3786 100.123 66.3963 99.953C66.4263 99.4741 66.5693 99.0091 66.8137 98.5961C67.058 98.1831 67.3968 97.8339 67.8022 97.5771C67.9411 97.4772 68.1038 97.4156 68.274 97.3983C68.4443 97.381 68.616 97.4088 68.7722 97.4787L69.6719 97.9989C69.8048 98.1018 69.9085 98.2377 69.9726 98.393C70.0368 98.5484 70.0591 98.7179 70.0374 98.8846Z" fill="white"/>
<path d="M67.2962 100.466C67.3261 99.9872 67.4691 99.5222 67.7135 99.1092C67.9579 98.6962 68.2966 98.347 68.702 98.0903C68.8336 97.9752 68.9979 97.9043 69.1719 97.8874C69.3459 97.8706 69.5207 97.9086 69.672 97.9963C69.8232 98.0839 69.9432 98.2167 70.015 98.376C70.0869 98.5354 70.1071 98.7132 70.0727 98.8846C70.0483 99.3607 69.9114 99.8244 69.6731 100.237C69.4348 100.65 69.102 101.001 68.702 101.26C68.5631 101.36 68.4004 101.422 68.2301 101.439C68.0599 101.457 67.8881 101.429 67.732 101.359C67.5851 101.264 67.4669 101.13 67.3901 100.973C67.3133 100.816 67.2808 100.64 67.2962 100.466Z" fill="#D0D0D0"/>
<path opacity="0.15" d="M67.2962 100.466C67.3261 99.9872 67.4691 99.5222 67.7135 99.1092C67.9579 98.6962 68.2966 98.347 68.702 98.0903C68.8336 97.9752 68.9979 97.9043 69.1719 97.8874C69.3459 97.8706 69.5207 97.9086 69.672 97.9963C69.8232 98.0839 69.9432 98.2167 70.015 98.376C70.0869 98.5354 70.1071 98.7132 70.0727 98.8846C70.0483 99.3607 69.9114 99.8244 69.6731 100.237C69.4348 100.65 69.102 101.001 68.702 101.26C68.5631 101.36 68.4004 101.422 68.2301 101.439C68.0599 101.457 67.8881 101.429 67.732 101.359C67.5851 101.264 67.4669 101.13 67.3901 100.973C67.3133 100.816 67.2808 100.64 67.2962 100.466Z" fill="black"/>
<path d="M78.5496 107.326C78.4273 107.242 78.3301 107.127 78.2683 106.992C78.2064 106.857 78.1822 106.708 78.1982 106.56C78.221 106.148 78.3404 105.747 78.5467 105.389C78.7531 105.031 79.0406 104.727 79.3861 104.501C79.507 104.414 79.6485 104.361 79.7966 104.346C79.9446 104.331 80.0939 104.355 80.2296 104.416L80.6654 104.838C80.7444 104.924 80.8051 105.025 80.8437 105.135C80.8824 105.245 80.8983 105.362 80.8903 105.478C80.8688 105.858 80.7584 106.228 80.5679 106.557C80.3775 106.887 80.1123 107.167 79.7938 107.376C79.6975 107.439 79.5893 107.483 79.4757 107.503C79.3621 107.524 79.2455 107.521 79.133 107.495L78.5496 107.326Z" fill="#D0D0D0"/>
<g opacity="0.15">
<path d="M78.5496 107.326C78.4273 107.242 78.3301 107.127 78.2683 106.992C78.2064 106.857 78.1822 106.708 78.1982 106.56C78.221 106.148 78.3404 105.747 78.5467 105.389C78.7531 105.031 79.0406 104.727 79.3861 104.501C79.507 104.414 79.6485 104.361 79.7966 104.346C79.9446 104.331 80.0939 104.355 80.2296 104.416L80.6654 104.838C80.7444 104.924 80.8051 105.025 80.8437 105.135C80.8824 105.245 80.8983 105.362 80.8903 105.478C80.8688 105.858 80.7584 106.228 80.5679 106.557C80.3775 106.887 80.1123 107.167 79.7938 107.376C79.6975 107.439 79.5893 107.483 79.4757 107.503C79.3621 107.524 79.2455 107.521 79.133 107.495L78.5496 107.326Z" fill="black"/>
</g>
<path d="M78.1982 106.581C78.2211 106.169 78.3404 105.768 78.5468 105.41C78.7531 105.052 79.0406 104.748 79.3861 104.522C79.5071 104.435 79.6486 104.382 79.7966 104.367C79.9446 104.352 80.0939 104.377 80.2296 104.437L69.686 98.3643C69.5514 98.3002 69.402 98.2735 69.2536 98.2872C69.1052 98.3008 68.9631 98.3541 68.8425 98.4416C68.497 98.6678 68.2095 98.9721 68.0031 99.3298C67.7968 99.6876 67.6774 100.089 67.6545 100.501C67.6395 100.649 67.6633 100.798 67.7237 100.934C67.7842 101.069 67.8791 101.187 67.999 101.274L78.5426 107.347C78.4217 107.263 78.3259 107.147 78.2652 107.012C78.2046 106.877 78.1815 106.728 78.1982 106.581Z" fill="#D0D0D0"/>
<path d="M80.7074 104.894C80.5864 104.836 80.4518 104.812 80.318 104.824C80.1843 104.836 80.0564 104.885 79.9482 104.965C79.6384 105.168 79.3808 105.441 79.1964 105.762C79.012 106.083 78.9059 106.443 78.8869 106.813C78.8697 106.948 78.8895 107.084 78.944 107.208C78.9984 107.332 79.0856 107.438 79.1961 107.516C79.899 107.903 81.9023 108.641 82.9005 108.521C82.9551 108.517 83.008 108.5 83.0551 108.472C83.172 108.395 83.2688 108.291 83.3372 108.169C83.4057 108.046 83.444 107.909 83.4488 107.769C83.4601 107.721 83.4601 107.67 83.4488 107.622C83.0411 106.673 81.3681 105.281 80.7074 104.894Z" fill="#D0D0D0"/>
<path opacity="0.2" d="M68.8705 98.4205C68.7491 98.4922 68.636 98.5771 68.5331 98.6735L79.0768 104.754C79.1823 104.66 79.2951 104.576 79.4142 104.501H79.4774L68.9338 98.4275L68.8705 98.4205ZM68.1676 97.4083H68.0622L57.6872 91.4125C56.3306 90.6252 55.7682 90.6463 55.22 90.9626C55.7612 90.7658 56.9983 91.4898 57.16 91.5812L67.6264 97.6262L67.7529 97.5489L68.6526 98.062C68.7834 97.9907 68.9228 97.9364 69.0673 97.9003L68.1676 97.4083ZM83.3786 108.057L83.2169 107.734C83.2169 107.734 83.2169 107.488 82.5703 106.792C81.7849 106.058 80.8969 105.443 79.9343 104.965C79.7914 105.049 79.6612 105.153 79.5477 105.274C80.5496 105.774 81.4927 106.385 82.3594 107.094C82.7161 107.396 83.0369 107.738 83.3153 108.114C83.3153 108.114 83.3856 108.079 83.3927 108.057H83.3786Z" fill="white"/>
<path d="M82.9429 108.24L83.3787 108.493C83.5685 108.599 84.0816 108.774 84.1871 108.62C84.2925 108.465 83.8567 108.093 83.6669 107.98L83.2311 107.734C83.2311 107.734 83.1257 107.734 83.0062 107.938C82.8867 108.142 82.9429 108.24 82.9429 108.24Z" fill="#455A64"/>
<path d="M84.1448 108.43C84.1187 108.436 84.0941 108.447 84.0724 108.463C84.0507 108.479 84.0323 108.499 84.0182 108.521C83.9975 108.573 83.9975 108.631 84.0182 108.683C84.1096 108.683 84.1799 108.683 84.208 108.62C84.2361 108.556 84.194 108.507 84.1448 108.43Z" fill="#263238"/>
<path d="M26.0001 104.128C25.7682 99.8477 26.7031 87.856 27.666 76.6024C29.0016 61.1384 31.8132 58.9453 39.8334 55.9087C46.4689 59.5146 47.7482 66.4102 45.274 81.9164L43.1652 99.9531C47.4741 100.867 53.3293 102.062 58.2708 100.656C59.2791 100.37 60.2124 99.8657 61.0051 99.1799C61.4829 98.8083 62.0233 98.525 62.6007 98.3435L63.6621 98.969C64.3651 99.0323 65.1172 99.1448 65.8131 99.1729C67.4157 99.2362 69.665 99.1729 71.2747 99.2643C74.7892 99.4751 77.4251 99.686 80.6304 101.085C81.2349 101.352 81.9941 101.823 82.7392 102.259C83.3155 102.582 82.7392 103.236 82.3807 103.461C81.9304 103.741 81.4284 103.927 80.9046 104.009C80.2022 104.081 79.4934 104.063 78.7958 103.953C78.6078 103.922 78.4149 103.946 78.2405 104.023C78.089 104.129 77.9854 104.291 77.9523 104.473C77.9278 104.65 77.9137 104.828 77.9102 105.007C77.8759 105.455 77.7388 105.889 77.5096 106.276C77.2805 106.662 76.9653 106.99 76.5887 107.235C76.2724 107.432 75.928 107.566 75.6046 107.755C75.2194 108.017 74.8937 108.357 74.6487 108.754C74.2972 109.21 73.9457 109.688 73.5943 110.159C72.3501 111.692 71.7948 111.776 69.2011 112.416C66.6073 113.055 64.7306 112.156 61.0473 112.416C57.3641 112.676 44.1001 114.827 38.1113 114.995C26.9631 115.241 26.4149 111.818 26.0001 104.128Z" fill="#C8856A"/>
<path d="M43.1369 99.9389C38.6453 99.1025 33.8374 99.2922 31.0117 101.345C35.6439 96.3822 43.3197 98.4277 43.3197 98.4277L43.1369 99.9389Z" fill="#F28F8F"/>
<path d="M40.2621 54.6152C34.5052 56.1968 29.5638 59.4513 28.3126 65.0675C27.0614 70.6838 25.6626 87.1671 25.4096 95.4966C25.1565 103.826 25.4096 110.616 27.0965 112.669C28.7835 114.721 30.576 115.523 35.2925 115.515C40.009 115.508 49.7865 114.524 49.7865 114.524C49.7865 114.524 47.9941 105.879 51.0237 101.211L44.0508 99.6789C44.0508 99.6789 46.525 78.8868 47.0873 73.9453C47.6497 69.0038 47.4529 60.2245 40.2621 54.6152Z" fill="#E0E0E0"/>
<path d="M138.304 64.8494L101.647 73.3616L87.2588 114.25L87.9547 115.171L122.882 106.391L139 65.7772L138.304 64.8494Z" fill="#D0D0D0"/>
<path opacity="0.35" d="M102.343 74.2894L87.9547 115.171L87.2588 114.25L101.647 73.3616L102.343 74.2894Z" fill="black"/>
<path opacity="0.25" d="M139 65.7773L102.343 74.2896L87.9548 115.171L122.883 106.392L139 65.7773Z" fill="black"/>
<g opacity="0.1">
<path d="M127.416 73.1932C127.416 73.1932 127.613 72.5746 127.866 71.7874C128.119 71.0001 125.996 71.2039 123.135 72.181L116.556 73.404C113.702 74.3811 111.031 75.0489 110.785 75.808L110.335 77.2138L127.416 73.1932Z" fill="black"/>
</g>
<path d="M130.221 67.0566C130.375 66.5856 129.56 66.5926 128.4 66.7684L126.292 67.2323C126.292 67.2323 127.346 65.2852 122.397 66.0514C116.95 66.8949 116.542 69.5238 116.542 69.5238C115.671 69.7857 114.787 69.9993 113.892 70.1634C112.079 70.543 111.84 70.8663 111.643 71.3373L111.284 72.2019L129.968 67.8719C129.968 67.8719 130.066 67.5345 130.221 67.0566Z" fill="#37474F"/>
<path d="M128.028 69.5451C126.284 70.1145 125.546 70.4097 125.167 71.5765C124.731 72.9191 124.604 73.4814 124.604 73.4814L114.834 76.1314C114.834 76.1314 115.537 74.1703 115.762 73.5166C115.987 72.8628 114.729 72.7082 113.021 73.2776L113.597 71.6468L128.752 67.8511L128.028 69.5451Z" fill="#37474F"/>
<path d="M127.894 73.2703L128.344 71.8645C128.59 71.1054 126.474 71.2811 123.621 72.2581L117.041 73.5445C114.18 74.5215 111.509 75.1893 111.263 75.9484L110.813 77.3191L127.894 73.2703Z" fill="#37474F"/>
<path d="M133.848 84.5801C135.099 83.1743 135.022 82.9915 134.551 82.155C134.183 81.4925 133.663 80.927 133.034 80.5053C132.404 80.0836 131.683 79.8179 130.931 79.73C129.609 79.6175 128.274 79.4348 127.55 79.73C126.826 80.0252 127.241 81.5084 128.956 82.0988C131.592 83.0196 131.493 83.7577 131.493 83.7577C130.35 83.3394 129.187 82.9804 128.007 82.6822C127.009 82.5065 125.118 82.7736 123.951 82.8158C122.784 82.858 122.383 84.313 124.267 85.051L122.158 85.1424C120.661 85.2057 120.05 85.9226 121.118 86.97C121.456 87.3257 121.905 87.5562 122.39 87.6237C122.39 87.6237 120.823 87.4409 120.732 87.9541C120.464 89.4372 121.385 89.9433 124.436 91.2296C126.84 92.2418 127.719 93.6406 127.543 94.688L127.304 95.2925C127.304 95.2925 128.344 94.6388 129.511 94.0202C130.368 93.5633 131.114 93.0291 130.917 91.7498C130.917 91.7498 132.632 91.9817 132.864 90.9344C132.982 90.1549 132.932 89.3591 132.716 88.6007C133.045 88.4627 133.328 88.2342 133.532 87.9418C133.736 87.6494 133.853 87.3051 133.869 86.9489C133.955 86.2725 133.811 85.5869 133.461 85.0018L133.848 84.5801Z" fill="#C8856A"/>
<path d="M124.267 85.0721C124.908 85.0092 125.553 85.0092 126.193 85.0721C126.823 85.2471 127.423 85.5173 127.972 85.8735C129.068 86.5107 130.109 87.2372 131.086 88.0455C129.907 87.5828 128.771 87.0184 127.691 86.3585C127.183 86.0233 126.647 85.734 126.088 85.4939C125.533 85.3533 124.872 85.2619 124.267 85.0721Z" fill="#AF6152"/>
<path d="M122.362 87.6449C123.056 87.5298 123.767 87.5927 124.429 87.8277C125.085 88.049 125.719 88.3338 126.32 88.6782C127.519 89.3371 128.646 90.1218 129.68 91.0189C128.414 90.4777 127.233 89.8169 126.046 89.1632C124.923 88.4329 123.674 87.918 122.362 87.6449Z" fill="#AF6152"/>
</svg>
