<svg width="40" height="40" viewBox="0 0 40 40" fill="none" xmlns="http://www.w3.org/2000/svg">
<g clip-path="url(#clip0_313_7931)">
<path d="M19.9997 31.3143C26.2484 31.3143 31.3141 26.2487 31.3141 19.9999C31.3141 13.7512 26.2484 8.68555 19.9997 8.68555C13.7509 8.68555 8.6853 13.7512 8.6853 19.9999C8.6853 26.2487 13.7509 31.3143 19.9997 31.3143Z" fill="#FFD347"/>
<path d="M20 4.44133C19.9206 4.44134 19.842 4.42571 19.7687 4.39534C19.6953 4.36496 19.6287 4.32044 19.5726 4.26431C19.5164 4.20818 19.4719 4.14154 19.4415 4.0682C19.4112 3.99486 19.3955 3.91626 19.3955 3.83687V0.604453C19.3955 0.270547 19.6662 0 20 0C20.3338 0 20.6045 0.270547 20.6045 0.604453V3.83695C20.6045 3.91633 20.5888 3.99492 20.5584 4.06826C20.5281 4.14159 20.4835 4.20822 20.4274 4.26434C20.3713 4.32046 20.3046 4.36498 20.2313 4.39535C20.158 4.42571 20.0794 4.44134 20 4.44133ZM11.919 6.60687C11.8128 6.607 11.7084 6.57912 11.6164 6.52606C11.5244 6.47299 11.4481 6.39661 11.395 6.30461L9.77883 3.50523C9.69867 3.3664 9.67695 3.20141 9.71844 3.04656C9.75994 2.89171 9.86124 2.75969 10.0001 2.67953C10.1389 2.59938 10.3039 2.57766 10.4588 2.61915C10.6136 2.66064 10.7456 2.76195 10.8258 2.90078L12.442 5.70016C12.495 5.79201 12.5229 5.8962 12.523 6.00227C12.523 6.10834 12.4951 6.21254 12.4421 6.30442C12.3891 6.3963 12.3129 6.47262 12.2211 6.52571C12.1292 6.5788 12.0251 6.60679 11.919 6.60687ZM6.0018 12.523C5.89586 12.523 5.7918 12.495 5.70016 12.4419L2.90078 10.8257C2.76461 10.7442 2.66593 10.6125 2.62606 10.4588C2.58619 10.3052 2.60831 10.1421 2.68766 10.0047C2.767 9.86726 2.89721 9.76654 3.05017 9.72427C3.20313 9.68199 3.36658 9.70156 3.50523 9.77875L6.30461 11.3949C6.41989 11.4615 6.50997 11.5642 6.56088 11.6872C6.61179 11.8102 6.62068 11.9466 6.58616 12.0752C6.55165 12.2037 6.47567 12.3173 6.37001 12.3983C6.26435 12.4793 6.13491 12.5231 6.0018 12.523ZM3.83687 20.6045H0.604453C0.270625 20.6045 0 20.3339 0 20C0 19.6661 0.270625 19.3955 0.604453 19.3955H3.83695C3.99726 19.3956 4.15101 19.4592 4.26435 19.5726C4.3777 19.686 4.44138 19.8397 4.44137 20C4.44136 20.1603 4.37766 20.3141 4.2643 20.4274C4.15094 20.5408 3.99719 20.6045 3.83687 20.6045ZM3.20352 30.3023C3.0704 30.3024 2.94096 30.2586 2.83529 30.1776C2.72963 30.0966 2.65365 29.9831 2.61914 29.8545C2.58463 29.7259 2.59353 29.5896 2.64446 29.4666C2.69538 29.3436 2.78549 29.2408 2.90078 29.1743L5.70016 27.5581C5.83881 27.4809 6.00226 27.4614 6.15522 27.5036C6.30818 27.5459 6.43839 27.6466 6.51773 27.7841C6.59708 27.9215 6.6192 28.0846 6.57933 28.2382C6.53946 28.3918 6.44078 28.5236 6.30461 28.6051L3.50523 30.2213C3.41354 30.2743 3.30946 30.3023 3.20352 30.3023ZM10.3017 37.4016C10.1957 37.4014 10.0915 37.3734 9.99968 37.3203C9.90787 37.2672 9.83165 37.1909 9.77867 37.099C9.72568 37.0071 9.69781 36.9029 9.69784 36.7969C9.69786 36.6908 9.7258 36.5866 9.77883 36.4948L11.395 33.6954C11.4765 33.5592 11.6083 33.4605 11.7619 33.4207C11.9155 33.3808 12.0786 33.4029 12.216 33.4823C12.3534 33.5616 12.4542 33.6918 12.4964 33.8448C12.5387 33.9977 12.5191 34.1612 12.442 34.2998L10.8258 37.0992C10.7727 37.1912 10.6963 37.2676 10.6043 37.3207C10.5123 37.3738 10.4079 37.4017 10.3017 37.4016ZM20 40C19.9206 40 19.842 39.9844 19.7687 39.954C19.6953 39.9236 19.6287 39.8791 19.5726 39.823C19.5164 39.7669 19.4719 39.7002 19.4415 39.6269C19.4112 39.5535 19.3955 39.4749 19.3955 39.3955V36.163C19.3955 35.8291 19.6662 35.5586 20 35.5586C20.3338 35.5586 20.6045 35.8291 20.6045 36.163V39.3955C20.6045 39.4749 20.5888 39.5535 20.5585 39.6269C20.5281 39.7002 20.4836 39.7669 20.4274 39.823C20.3713 39.8791 20.3047 39.9236 20.2313 39.954C20.158 39.9844 20.0794 40 20 40ZM29.6983 37.4016C29.5921 37.4017 29.4877 37.3738 29.3957 37.3207C29.3037 37.2677 29.2274 37.1913 29.1743 37.0993L27.5581 34.2999C27.478 34.1611 27.4562 33.9961 27.4977 33.8412C27.5392 33.6864 27.6405 33.5544 27.7794 33.4742C27.9182 33.3941 28.0832 33.3723 28.238 33.4138C28.3929 33.4553 28.5249 33.5566 28.6051 33.6955L30.2213 36.4948C30.2743 36.5867 30.3022 36.6909 30.3023 36.797C30.3023 36.903 30.2744 37.0072 30.2214 37.0991C30.1684 37.191 30.0922 37.2673 30.0003 37.3204C29.9085 37.3735 29.8043 37.4015 29.6983 37.4016ZM36.7965 30.3023C36.6905 30.3023 36.5865 30.2743 36.4948 30.2212L33.6955 28.605C33.5593 28.5235 33.4606 28.3917 33.4207 28.2381C33.3809 28.0845 33.403 27.9214 33.4823 27.784C33.5617 27.6466 33.6919 27.5458 33.8449 27.5036C33.9978 27.4613 34.1613 27.4809 34.2999 27.558L37.0993 29.1742C37.2146 29.2408 37.3047 29.3435 37.3556 29.4665C37.4065 29.5895 37.4154 29.7259 37.3809 29.8545C37.3463 29.983 37.2704 30.0966 37.1647 30.1776C37.059 30.2585 36.9296 30.3024 36.7965 30.3023ZM39.3955 20.6045H36.163C35.8292 20.6045 35.5586 20.3339 35.5586 20C35.5586 19.6661 35.8292 19.3955 36.163 19.3955H39.3955C39.7294 19.3955 40 19.6661 40 20C40 20.3339 39.7294 20.6045 39.3955 20.6045ZM33.9982 12.523C33.8651 12.5231 33.7356 12.4793 33.63 12.3983C33.5243 12.3173 33.4483 12.2038 33.4138 12.0752C33.3793 11.9466 33.3882 11.8103 33.4391 11.6873C33.4901 11.5643 33.5802 11.4615 33.6955 11.395L36.4948 9.77883C36.6335 9.70164 36.7969 9.68207 36.9499 9.72434C37.1029 9.76661 37.2331 9.86734 37.3124 10.0048C37.3918 10.1422 37.4139 10.3053 37.374 10.4589C37.3341 10.6125 37.2355 10.7443 37.0993 10.8258L34.2999 12.442C34.2082 12.495 34.1042 12.523 33.9982 12.523ZM28.081 6.60687C27.975 6.60676 27.8708 6.57874 27.779 6.52564C27.6872 6.47253 27.6109 6.39621 27.558 6.30433C27.505 6.21245 27.4771 6.10824 27.4771 6.00218C27.4772 5.89612 27.5051 5.79193 27.5581 5.70008L29.1743 2.9007C29.2558 2.76453 29.3875 2.66585 29.5412 2.62598C29.6948 2.58611 29.8579 2.60823 29.9953 2.68758C30.1327 2.76693 30.2335 2.89713 30.2757 3.05009C30.318 3.20305 30.2984 3.3665 30.2213 3.50516L28.6051 6.30453C28.552 6.39654 28.4756 6.47293 28.3836 6.52601C28.2916 6.57909 28.1872 6.60698 28.081 6.60687Z" fill="#FFD347"/>
<path d="M19.9993 8.68555C19.5898 8.68555 19.1854 8.70789 18.7871 8.75023C24.4656 9.35516 28.8889 14.1605 28.8889 19.9995C28.8889 25.8385 24.4655 30.644 18.7871 31.2489C19.1854 31.2914 19.5897 31.3136 19.9993 31.3136C26.2479 31.3136 31.3134 26.2481 31.3134 19.9995C31.3134 13.7509 26.248 8.68555 19.9993 8.68555Z" fill="#FFBE31"/>
</g>
<defs>
<clipPath id="clip0_313_7931">
<rect width="40" height="40" fill="white"/>
</clipPath>
</defs>
</svg>
