<svg width="16" height="17" viewBox="0 0 16 17" fill="none" xmlns="http://www.w3.org/2000/svg">
<path d="M14.665 4.552C14.4384 4.42975 14.1825 4.37218 13.9253 4.38558C13.6682 4.39899 13.4197 4.48285 13.207 4.628L10.5 6.444V5C10.4995 4.60234 10.3413 4.22111 10.0601 3.93992C9.77889 3.65873 9.39766 3.50053 9 3.5H2C1.60234 3.50053 1.22111 3.65873 0.939924 3.93992C0.658734 4.22111 0.500529 4.60234 0.5 5V12C0.500529 12.3977 0.658734 12.7789 0.939924 13.0601C1.22111 13.3413 1.60234 13.4995 2 13.5H9C9.39766 13.4995 9.77889 13.3413 10.0601 13.0601C10.3413 12.7789 10.4995 12.3977 10.5 12V10.556L13.207 12.372C13.4192 12.5182 13.6679 12.6027 13.9253 12.6161C14.1826 12.6296 14.4387 12.5714 14.665 12.448C14.9227 12.3049 15.1367 12.0944 15.2838 11.8389C15.4309 11.5834 15.5056 11.2927 15.5 10.998V6.002C15.5056 5.70726 15.4309 5.41656 15.2838 5.1611C15.1367 4.90564 14.9227 4.69507 14.665 4.552ZM9.5 12C9.5 12.1326 9.44732 12.2598 9.35355 12.3536C9.25979 12.4473 9.13261 12.5 9 12.5H2C1.86739 12.5 1.74021 12.4473 1.64645 12.3536C1.55268 12.2598 1.5 12.1326 1.5 12V5C1.5 4.86739 1.55268 4.74021 1.64645 4.64645C1.74021 4.55268 1.86739 4.5 2 4.5H9C9.13261 4.5 9.25979 4.55268 9.35355 4.64645C9.44732 4.74021 9.5 4.86739 9.5 5V12ZM14.5 10.998C14.5053 11.1115 14.4796 11.2243 14.4257 11.3244C14.3718 11.4244 14.2917 11.5079 14.194 11.566C14.1276 11.6037 14.0517 11.6214 13.9755 11.6172C13.8992 11.6129 13.8258 11.5868 13.764 11.542L10.5 9.352V7.648L13.764 5.458C13.8262 5.41396 13.8995 5.38835 13.9755 5.38411C14.0516 5.37986 14.1273 5.39715 14.194 5.434C14.2917 5.49206 14.3718 5.57557 14.4257 5.67562C14.4796 5.77567 14.5053 5.88848 14.5 6.002V10.998Z" fill="#89898B"/>
</svg>
